P1
128 64
00000000000000000000000000000000000000000000000000000000000000000000000000000000000000000000000000000000000000000000000000000000
00000000000000000000000000000000000000000000000000000000000000000000000000000000000000000000000000000000000000000000000000000000
00000000000000000000000000000000000000000000000000000000000000000000000000000000000000000000000000000000000000000000000000000000
00000000000000000000000000000000000000000000000000000000000000000000000000000000000000000000000000000000000000000000000000000000
00000000000000000000000000000000000000000000000000000000000000000000000000000000000000000000000000000000000000000000000000000000
00000000000000000000000000000000000000000000000000000000000000000000000000000000000000000000000000000000000000000000000000000000
00000000000000000000000000000000000000000000000000000000000000000000000000000000000000000000000000000000000000000000000000000000
00000000000000000000000000000000000000000000000000000000000000000000000000000000000000000000000000000000000000000000000000000000
00000000000000000000000000000000000000000000000000000000000000000000000000000000000000000000000000000000000000000000000000000000
00000000000000000000000000000000000000000000000000000000000000000000000000000000000000000000000000000000000000000000000000000000
00001111111000111111100011111110001111110001111111000111111100000000111111100011111110001111111000111111000111111100011111110000
00000100001000010000100001000010000100011000100001000010000100000000010000100001000010000100001000010001100010000100001000010000
00000100000000010000000001000000000100001000100000000010000000000000010000000001000000000100000000010000100010000000001000000000
00000100010000010001000001000100000100011000100010000010001000000000010001000001000100000100010000010001100010001000001000100000
00000111110000011111000001111100000111110000111110000011111000000000011111000001111100000111110000011111000011111000001111100000
00000100010000010001000001000100000100000000100010000010001000000000010001000001000100000100010000010000000010001000001000100000
00000100000000010000000001000000000100000000100000000010000000000000010000000001000000000100000000010000000010000000001000000000
00000100000000010000100001000010000100000000100000000010000100000000010000000001000010000100001000010000000010000000001000010000
00001111000000111111100011111110001110000001111000000111111100000000111100000011111110001111111000111000000111100000011111110000
00000000000000000000000000000000000000000000000000000000000000000000000000000000000000000000000000000000000000000000000000000000
00000000000000000000000000000000000000000000000000000000000000000000000000000000000000000000000000000000000000000000000000000000
00000000000000000000000000000000000000000000000000000000000000000000000000000000000000000000000000000000000000000000000000000000
00000000000000000000000000000000000000000000000000000000000000000000000000000000000000000000000000000000000000000000000000000000
00000000000000000000000000000000000000000000000000000000000000000000000000000000000000000000000000000000000000000000000000000000
00000000000000000000000000000000000000000000000000000000000000000000000000000000000000000000000000000000000000000000000000000000
00000000000000000000000000000000000000000000000000000000000000000000000000000000000000000000000000000000000000000000000000000000
00000000000000000000000000000000000000000000000000000000000000000000000000000000000000000000000000000000000000000000000000000000
00001111111000111111000111111100011111110001111111000111111000000000111111100011111100011111110001111111000111111100011111100000
00000100001000010001100010000100001000010000100001000010001100000000010000100001000110001000010000100001000010000100001000110000
00000100000000010000100010000000001000000000100000000010000100000000010000000001000010001000000000100000000010000000001000010000
00000100010000010001100010001000001000100000100010000010001100000000010001000001000110001000100000100010000010001000001000110000
00000111110000011111000011111000001111100000111110000011111000000000011111000001111100001111100000111110000011111000001111100000
00000100010000010000000010001000001000100000100010000010000000000000010001000001000000001000100000100010000010001000001000000000
00000100000000010000000010000000001000000000100000000010000000000000010000000001000000001000000000100000000010000000001000000000
00000100001000010000000010000000001000010000100001000010000000000000010000100001000000001000000000100001000010000100001000000000
00001111111000111000000111100000011111110001111111000111000000000000111111100011100000011110000001111111000111111100011100000000
00000000000000000000000000000000000000000000000000000000000000000000000000000000000000000000000000000000000000000000000000000000
00000000000000000000000000000000000000000000000000000000000000000000000000000000000000000000000000000000000000000000000000000000
00000000000000000000000000000000000000000000000000000000000000000000000000000000000000000000000000000000000000000000000000000000
00000000000000000000000000000000000000000000000000000000000000000000000000000000000000000000000000000000000000000000000000000000
00000000000000000000000000000000000000000000000000000000000000000000000000000000000000000000000000000000000000000000000000000000
00000000000000000000000000000000000000000000000000000000000000000000000000000000000000000000000000000000000000000000000000000000
00000000000000000000000000000000000000000000000000000000000000000000000000000000000000000000000000000000000000000000000000000000
00000000000000000000000000000000000000000000000000000000000000000000000000000000000000000000000000000000000000000000000000000000
00001111111000111111100011111110001111110001111111000111111100000000111111100011111110001111111000111111000111111100011111110000
00000100001000010000100001000010000100011000100001000010000100000000010000100001000010000100001000010001100010000100001000010000
00000100000000010000000001000000000100001000100000000010000000000000010000000001000000000100000000010000100010000000001000000000
00000100010000010001000001000100000100011000100010000010001000000000010001000001000100000100010000010001100010001000001000100000
00000111110000011111000001111100000111110000111110000011111000000000011111000001111100000111110000011111000011111000001111100000
00000100010000010001000001000100000100000000100010000010001000000000010001000001000100000100010000010000000010001000001000100000
00000100000000010000000001000000000100000000100000000010000000000000010000000001000000000100000000010000000010000000001000000000
00000100000000010000100001000010000100000000100000000010000100000000010000000001000010000100001000010000000010000000001000010000
00001111000000111111100011111110001110000001111000000111111100000000111100000011111110001111111000111000000111100000011111110000
00000000000000000000000000000000000000000000000000000000000000000000000000000000000000000000000000000000000000000000000000000000
00000000000000000000000000000000000000000000000000000000000000000000000000000000000000000000000000000000000000000000000000000000
00000000000000000000000000000000000000000000000000000000000000000000000000000000000000000000000000000000000000000000000000000000
00000000000000000000000000000000000000000000000000000000000000000000000000000000000000000000000000000000000000000000000000000000
00000000000000000000000000000000000000000000000000000000000000000000000000000000000000000000000000000000000000000000000000000000
00000000000000000000000000000000000000000000000000000000000000000000000000000000000000000000000000000000000000000000000000000000
00000000000000000000000000000000000000000000000000000000000000000000000000000000000000000000000000000000000000000000000000000000
00000000000000000000000000000000000000000000000000000000000000000000000000000000000000000000000000000000000000000000000000000000
00000000000000000000000000000000000000000000000000000000000000000000000000000000000000000000000000000000000000000000000000000000
00000000000000000000000000000000000000000000000000000000000000000000000000000000000000000000000000000000000000000000000000000000
00000000000000000000000000000000000000000000000000000000000000000000000000000000000000000000000000000000000000000000000000000000
