P1
64 256
0000000000000000000000000000000000000000000000000000000000000000
0000000000000000000000000000000000000000000000000000000000000000
0000000000000000000000000000000000000000000000000000000000000000
0000000000000000000000000000000000000000000000000000000000000000
0000000000000000000000000000000000000000000000000000000000000000
0000000000000000000000000000000000000000000000000000000000000000
0000000000000000000000000000000000000000000000000000000000000000
0000000000000000000000000000000000000000000000000000000000000000
0000000000000000000000000000000000000000000000000000000000000000
0000000000000000000000000000000000000000000000000000000000000000
0000111111100011111110001111111000111111000111111100011111110000
0000010000100001000010000100001000010001100010000100001000010000
0000010000000001000000000100000000010000100010000000001000000000
0000010001000001000100000100010000010001100010001000001000100000
0000011111000001111100000111110000011111000011111000001111100000
0000010001000001000100000100010000010000000010001000001000100000
0000010000000001000000000100000000010000000010000000001000000000
0000010000000001000010000100001000010000000010000000001000010000
0000111100000011111110001111111000111000000111100000011111110000
0000000000000000000000000000000000000000000000000000000000000000
0000000000000000000000000000000000000000000000000000000000000000
0000000000000000000000000000000000000000000000000000000000000000
0000000000000000000000000000000000000000000000000000000000000000
0000000000000000000000000000000000000000000000000000000000000000
0000000000000000000000000000000000000000000000000000000000000000
0000000000000000000000000000000000000000000000000000000000000000
0000000000000000000000000000000000000000000000000000000000000000
0000111111100011111100011111110001111111000111111100011111100000
0000010000100001000110001000010000100001000010000100001000110000
0000010000000001000010001000000000100000000010000000001000010000
0000010001000001000110001000100000100010000010001000001000110000
0000011111000001111100001111100000111110000011111000001111100000
0000010001000001000000001000100000100010000010001000001000000000
0000010000000001000000001000000000100000000010000000001000000000
0000010000100001000000001000000000100001000010000100001000000000
0000111111100011100000011110000001111111000111111100011100000000
0000000000000000000000000000000000000000000000000000000000000000
0000000000000000000000000000000000000000000000000000000000000000
0000000000000000000000000000000000000000000000000000000000000000
0000000000000000000000000000000000000000000000000000000000000000
0000000000000000000000000000000000000000000000000000000000000000
0000000000000000000000000000000000000000000000000000000000000000
0000000000000000000000000000000000000000000000000000000000000000
0000000000000000000000000000000000000000000000000000000000000000
0000111111100011111110001111111000111111000111111100011111110000
0000010000100001000010000100001000010001100010000100001000010000
0000010000000001000000000100000000010000100010000000001000000000
0000010001000001000100000100010000010001100010001000001000100000
0000011111000001111100000111110000011111000011111000001111100000
0000010001000001000100000100010000010000000010001000001000100000
0000010000000001000000000100000000010000000010000000001000000000
0000010000000001000010000100001000010000000010000000001000010000
0000111100000011111110001111111000111000000111100000011111110000
0000000000000000000000000000000000000000000000000000000000000000
0000000000000000000000000000000000000000000000000000000000000000
0000000000000000000000000000000000000000000000000000000000000000
0000000000000000000000000000000000000000000000000000000000000000
0000000000000000000000000000000000000000000000000000000000000000
0000000000000000000000000000000000000000000000000000000000000000
0000000000000000000000000000000000000000000000000000000000000000
0000000000000000000000000000000000000000000000000000000000000000
0000000000000000000000000000000000000000000000000000000000000000
0000000000000000000000000000000000000000000000000000000000000000
0000000000000000000000000000000000000000000000000000000000000000
0000000000000000000000000000000000000000000000000000000000000000
0000000000000000000000000000000000000000000000000000000000000000
0000000000000000000000000000000000000000000000000000000000000000
0000000000000000000000000000000000000000000000000000000000000000
0000000000000000000000000000000000000000000000000000000000000000
0000000000000000000000000000000000000000000000000000000000000000
0000000000000000000000000000000000000000000000000000000000000000
0000000000000000000000000000000000000000000000000000000000000000
0000000000000000000000000000000000000000000000000000000000000000
0000000000000000000000000000000000000000000000000000000000000000
0000111111100011111110001111111000111111000111111100011111110000
0000010000100001000010000100001000010001100010000100001000010000
0000010000000001000000000100000000010000100010000000001000000000
0000010001000001000100000100010000010001100010001000001000100000
0000011111000001111100000111110000011111000011111000001111100000
0000010001000001000100000100010000010000000010001000001000100000
0000010000000001000000000100000000010000000010000000001000000000
0000010000000001000010000100001000010000000010000000001000010000
0000111100000011111110001111111000111000000111100000011111110000
0000000000000000000000000000000000000000000000000000000000000000
0000000000000000000000000000000000000000000000000000000000000000
0000000000000000000000000000000000000000000000000000000000000000
0000000000000000000000000000000000000000000000000000000000000000
0000000000000000000000000000000000000000000000000000000000000000
0000000000000000000000000000000000000000000000000000000000000000
0000000000000000000000000000000000000000000000000000000000000000
0000000000000000000000000000000000000000000000000000000000000000
0000111111100011111100011111110001111111000111111100011111100000
0000010000100001000110001000010000100001000010000100001000110000
0000010000000001000010001000000000100000000010000000001000010000
0000010001000001000110001000100000100010000010001000001000110000
0000011111000001111100001111100000111110000011111000001111100000
0000010001000001000000001000100000100010000010001000001000000000
0000010000000001000000001000000000100000000010000000001000000000
0000010000100001000000001000000000100001000010000100001000000000
0000111111100011100000011110000001111111000111111100011100000000
0000000000000000000000000000000000000000000000000000000000000000
0000000000000000000000000000000000000000000000000000000000000000
0000000000000000000000000000000000000000000000000000000000000000
0000000000000000000000000000000000000000000000000000000000000000
0000000000000000000000000000000000000000000000000000000000000000
0000000000000000000000000000000000000000000000000000000000000000
0000000000000000000000000000000000000000000000000000000000000000
0000000000000000000000000000000000000000000000000000000000000000
0000111111100011111110001111111000111111000111111100011111110000
0000010000100001000010000100001000010001100010000100001000010000
0000010000000001000000000100000000010000100010000000001000000000
0000010001000001000100000100010000010001100010001000001000100000
0000011111000001111100000111110000011111000011111000001111100000
0000010001000001000100000100010000010000000010001000001000100000
0000010000000001000000000100000000010000000010000000001000000000
0000010000000001000010000100001000010000000010000000001000010000
0000111100000011111110001111111000111000000111100000011111110000
0000000000000000000000000000000000000000000000000000000000000000
0000000000000000000000000000000000000000000000000000000000000000
0000000000000000000000000000000000000000000000000000000000000000
0000000000000000000000000000000000000000000000000000000000000000
0000000000000000000000000000000000000000000000000000000000000000
0000000000000000000000000000000000000000000000000000000000000000
0000000000000000000000000000000000000000000000000000000000000000
0000000000000000000000000000000000000000000000000000000000000000
0000000000000000000000000000000000000000000000000000000000000000
0000000000000000000000000000000000000000000000000000000000000000
0000000000000000000000000000000000000000000000000000000000000000
0000000000000000000000000000000000000000000000000000000000000000
0000000000000000000000000000000000000000000000000000000000000000
0000000000000000000000000000000000000000000000000000000000000000
0000000000000000000000000000000000000000000000000000000000000000
0000000000000000000000000000000000000000000000000000000000000000
0000000000000000000000000000000000000000000000000000000000000000
0000000000000000000000000000000000000000000000000000000000000000
0000000000000000000000000000000000000000000000000000000000000000
0000000000000000000000000000000000000000000000000000000000000000
0000000000000000000000000000000000000000000000000000000000000000
0000111111100011111110001111111000111111000111111100011111110000
0000010000100001000010000100001000010001100010000100001000010000
0000010000000001000000000100000000010000100010000000001000000000
0000010001000001000100000100010000010001100010001000001000100000
0000011111000001111100000111110000011111000011111000001111100000
0000010001000001000100000100010000010000000010001000001000100000
0000010000000001000000000100000000010000000010000000001000000000
0000010000000001000010000100001000010000000010000000001000010000
0000111100000011111110001111111000111000000111100000011111110000
0000000000000000000000000000000000000000000000000000000000000000
0000000000000000000000000000000000000000000000000000000000000000
0000000000000000000000000000000000000000000000000000000000000000
0000000000000000000000000000000000000000000000000000000000000000
0000000000000000000000000000000000000000000000000000000000000000
0000000000000000000000000000000000000000000000000000000000000000
0000000000000000000000000000000000000000000000000000000000000000
0000000000000000000000000000000000000000000000000000000000000000
0000111111100011111100011111110001111111000111111100011111100000
0000010000100001000110001000010000100001000010000100001000110000
0000010000000001000010001000000000100000000010000000001000010000
0000010001000001000110001000100000100010000010001000001000110000
0000011111000001111100001111100000111110000011111000001111100000
0000010001000001000000001000100000100010000010001000001000000000
0000010000000001000000001000000000100000000010000000001000000000
0000010000100001000000001000000000100001000010000100001000000000
0000111111100011100000011110000001111111000111111100011100000000
0000000000000000000000000000000000000000000000000000000000000000
0000000000000000000000000000000000000000000000000000000000000000
0000000000000000000000000000000000000000000000000000000000000000
0000000000000000000000000000000000000000000000000000000000000000
0000000000000000000000000000000000000000000000000000000000000000
0000000000000000000000000000000000000000000000000000000000000000
0000000000000000000000000000000000000000000000000000000000000000
0000000000000000000000000000000000000000000000000000000000000000
0000111111100011111110001111111000111111000111111100011111110000
0000010000100001000010000100001000010001100010000100001000010000
0000010000000001000000000100000000010000100010000000001000000000
0000010001000001000100000100010000010001100010001000001000100000
0000011111000001111100000111110000011111000011111000001111100000
0000010001000001000100000100010000010000000010001000001000100000
0000010000000001000000000100000000010000000010000000001000000000
0000010000000001000010000100001000010000000010000000001000010000
0000111100000011111110001111111000111000000111100000011111110000
0000000000000000000000000000000000000000000000000000000000000000
0000000000000000000000000000000000000000000000000000000000000000
0000000000000000000000000000000000000000000000000000000000000000
0000000000000000000000000000000000000000000000000000000000000000
0000000000000000000000000000000000000000000000000000000000000000
0000000000000000000000000000000000000000000000000000000000000000
0000000000000000000000000000000000000000000000000000000000000000
0000000000000000000000000000000000000000000000000000000000000000
0000000000000000000000000000000000000000000000000000000000000000
0000000000000000000000000000000000000000000000000000000000000000
0000000000000000000000000000000000000000000000000000000000000000
0000000000000000000000000000000000000000000000000000000000000000
0000000000000000000000000000000000000000000000000000000000000000
0000000000000000000000000000000000000000000000000000000000000000
0000000000000000000000000000000000000000000000000000000000000000
0000000000000000000000000000000000000000000000000000000000000000
0000000000000000000000000000000000000000000000000000000000000000
0000000000000000000000000000000000000000000000000000000000000000
0000000000000000000000000000000000000000000000000000000000000000
0000000000000000000000000000000000000000000000000000000000000000
0000000000000000000000000000000000000000000000000000000000000000
0000111111100011111110001111111000111111000111111100011111110000
0000010000100001000010000100001000010001100010000100001000010000
0000010000000001000000000100000000010000100010000000001000000000
0000010001000001000100000100010000010001100010001000001000100000
0000011111000001111100000111110000011111000011111000001111100000
0000010001000001000100000100010000010000000010001000001000100000
0000010000000001000000000100000000010000000010000000001000000000
0000010000000001000010000100001000010000000010000000001000010000
0000111100000011111110001111111000111000000111100000011111110000
0000000000000000000000000000000000000000000000000000000000000000
0000000000000000000000000000000000000000000000000000000000000000
0000000000000000000000000000000000000000000000000000000000000000
0000000000000000000000000000000000000000000000000000000000000000
0000000000000000000000000000000000000000000000000000000000000000
0000000000000000000000000000000000000000000000000000000000000000
0000000000000000000000000000000000000000000000000000000000000000
0000000000000000000000000000000000000000000000000000000000000000
0000111111100011111100011111110001111111000111111100011111100000
0000010000100001000110001000010000100001000010000100001000110000
0000010000000001000010001000000000100000000010000000001000010000
0000010001000001000110001000100000100010000010001000001000110000
0000011111000001111100001111100000111110000011111000001111100000
0000010001000001000000001000100000100010000010001000001000000000
0000010000000001000000001000000000100000000010000000001000000000
0000010000100001000000001000000000100001000010000100001000000000
0000111111100011100000011110000001111111000111111100011100000000
0000000000000000000000000000000000000000000000000000000000000000
0000000000000000000000000000000000000000000000000000000000000000
0000000000000000000000000000000000000000000000000000000000000000
0000000000000000000000000000000000000000000000000000000000000000
0000000000000000000000000000000000000000000000000000000000000000
0000000000000000000000000000000000000000000000000000000000000000
0000000000000000000000000000000000000000000000000000000000000000
0000000000000000000000000000000000000000000000000000000000000000
0000111111100011111110001111111000111111000111111100011111110000
0000010000100001000010000100001000010001100010000100001000010000
0000010000000001000000000100000000010000100010000000001000000000
0000010001000001000100000100010000010001100010001000001000100000
0000011111000001111100000111110000011111000011111000001111100000
0000010001000001000100000100010000010000000010001000001000100000
0000010000000001000000000100000000010000000010000000001000000000
0000010000000001000010000100001000010000000010000000001000010000
0000111100000011111110001111111000111000000111100000011111110000
0000000000000000000000000000000000000000000000000000000000000000
0000000000000000000000000000000000000000000000000000000000000000
0000000000000000000000000000000000000000000000000000000000000000
0000000000000000000000000000000000000000000000000000000000000000
0000000000000000000000000000000000000000000000000000000000000000
0000000000000000000000000000000000000000000000000000000000000000
0000000000000000000000000000000000000000000000000000000000000000
0000000000000000000000000000000000000000000000000000000000000000
0000000000000000000000000000000000000000000000000000000000000000
0000000000000000000000000000000000000000000000000000000000000000
0000000000000000000000000000000000000000000000000000000000000000
