P1
64 64
0000000000000000000000000000000000000000000000000000000000000000
0000000000000000000000000000000000000000000000000000000000000000
0000000000000000000000000000000000000000000000000000000000000000
0000000000000000000000000000000000000000000000000000000000000000
0000000000000000000000000000000000000000000000000000000000000000
0000000000000000000000000000000000000000000000000000000000000000
0000000000000000000000000000000000000000000000000000000000000000
0000000000000000000000000000000000000000000000000000000000000000
0000000000000000000000000000000000000000000000000000000000000000
0001111111110111111111011111111101111111101111111110111111111000
0001111001110111100111011110011101111011111111001110111100111000
0001111111110111111111011111111101111111111111111110111111111000
0000101011110010101111001010111100101011110101011110010101111000
0000111111100011111110001111111000111111110111111100011111110000
0000111011100011101110001110111000111011110111011100011101110000
0000111111100011111110001111111000111111100111111100011111110000
0000101011100010101111001010111100101000000101011100010101111000
0001111110000111111111011111111101111100001111110000111111111000
0001111110000111100111011110011101111100001111110000111100111000
0001111110000111111111011111111101111100001111110000111111111000
0000000000000000000000000000000000000000000000000000000000000000
0000000000000000000000000000000000000000000000000000000000000000
0000000000000000000000000000000000000000000000000000000000000000
0000000000000000000000000000000000000000000000000000000000000000
0000000000000000000000000000000000000000000000000000000000000000
0000000000000000000000000000000000000000000000000000000000000000
0001111111110111111110111111111011111111101111111110111111110000
0001111001110111101111111100111011110011101111001110111101111000
0001111111110111111111111111111011111111101111111110111111111000
0000101011110010101111010101111001010111100101011110010101111000
0000111111100011111111011111110001111111000111111100011111111000
0000111011100011101111011101110001110111000111011100011101111000
0000111111100011111110011111110001111111000111111100011111110000
0000101011110010100000010101110001010111100101011110010100000000
0001111111110111110000111111000011111111101111111110111110000000
0001111001110111110000111111000011110011101111001110111110000000
0001111111110111110000111111000011111111101111111110111110000000
0000000000000000000000000000000000000000000000000000000000000000
0000000000000000000000000000000000000000000000000000000000000000
0000000000000000000000000000000000000000000000000000000000000000
0000000000000000000000000000000000000000000000000000000000000000
0000000000000000000000000000000000000000000000000000000000000000
0000000000000000000000000000000000000000000000000000000000000000
0001111111110111111111011111111101111111101111111110111111111000
0001111001110111100111011110011101111011111111001110111100111000
0001111111110111111111011111111101111111111111111110111111111000
0000101011110010101111001010111100101011110101011110010101111000
0000111111100011111110001111111000111111110111111100011111110000
0000111011100011101110001110111000111011110111011100011101110000
0000111111100011111110001111111000111111100111111100011111110000
0000101011100010101111001010111100101000000101011100010101111000
0001111110000111111111011111111101111100001111110000111111111000
0001111110000111100111011110011101111100001111110000111100111000
0001111110000111111111011111111101111100001111110000111111111000
0000000000000000000000000000000000000000000000000000000000000000
0000000000000000000000000000000000000000000000000000000000000000
0000000000000000000000000000000000000000000000000000000000000000
0000000000000000000000000000000000000000000000000000000000000000
0000000000000000000000000000000000000000000000000000000000000000
0000000000000000000000000000000000000000000000000000000000000000
0000000000000000000000000000000000000000000000000000000000000000
0000000000000000000000000000000000000000000000000000000000000000
0000000000000000000000000000000000000000000000000000000000000000
0000000000000000000000000000000000000000000000000000000000000000
