P1
320 64
00000000000000000000000000000000000000000000000000000000000000000000000000000000000000000000000000000000000000000000000000000000000000000000000000000000000000000000000000000000000000000000000000000000000000000000000000000000000000000000000000000000000000000000000000000000000000000000000000000000000000000000000000000000
00000000000000000000000000000000000000000000000000000000000000000000000000000000000000000000000000000000000000000000000000000000000000000000000000000000000000000000000000000000000000000000000000000000000000000000000000000000000000000000000000000000000000000000000000000000000000000000000000000000000000000000000000000000
00000000000000000000000000000000000000000000000000000000000000000000000000000000000000000000000000000000000000000000000000000000000000000000000000000000000000000000000000000000000000000000000000000000000000000000000000000000000000000000000000000000000000000000000000000000000000000000000000000000000000000000000000000000
00000000000000000000000000000000000000000000000000000000000000000000000000000000000000000000000000000000000000000000000000000000000000000000000000000000000000000000000000000000000000000000000000000000000000000000000000000000000000000000000000000000000000000000000000000000000000000000000000000000000000000000000000000000
00000000000000000000000000000000000000000000000000000000000000000000000000000000000000000000000000000000000000000000000000000000000000000000000000000000000000000000000000000000000000000000000000000000000000000000000000000000000000000000000000000000000000000000000000000000000000000000000000000000000000000000000000000000
00000000000000000000000000000000000000000000000000000000000000000000000000000000000000000000000000000000000000000000000000000000000000000000000000000000000000000000000000000000000000000000000000000000000000000000000000000000000000000000000000000000000000000000000000000000000000000000000000000000000000000000000000000000
00000000000000000000000000000000000000000000000000000000000000000000000000000000000000000000000000000000000000000000000000000000000000000000000000000000000000000000000000000000000000000000000000000000000000000000000000000000000000000000000000000000000000000000000000000000000000000000000000000000000000000000000000000000
00000000000000000000000000000000000000000000000000000000000000000000000000000000000000000000000000000000000000000000000000000000000000000000000000000000000000000000000000000000000000000000000000000000000000000000000000000000000000000000000000000000000000000000000000000000000000000000000000000000000000000000000000000000
00000000000000000000000000000000000000000000000000000000000000000000000000000000000000000000000000000000000000000000000000000000000000000000000000000000000000000000000000000000000000000000000000000000000000000000000000000000000000000000000000000000000000000000000000000000000000000000000000000000000000000000000000000000
00011111111101111111110111111111011111111011111111101111111110000001111111110111111111011111111101111111101111111110111111111000000111111111011111111101111111110111111110111111111011111111100000011111111101111111110111111111011111111011111111101111111110000001111111110111111111011111111101111111101111111110111111111000
00011110011101111001110111100111011110111111110011101111001110000001111001110111100111011110011101111011111111001110111100111000000111100111011110011101111001110111101111111100111011110011100000011110011101111001110111100111011110111111110011101111001110000001111001110111100111011110011101111011111111001110111100111000
00011111111101111111110111111111011111111111111111101111111110000001111111110111111111011111111101111111111111111110111111111000000111111111011111111101111111110111111111111111111011111111100000011111111101111111110111111111011111111111111111101111111110000001111111110111111111011111111101111111111111111110111111111000
00001010111100101011110010101111001010111101010111100101011110000000101011110010101111001010111100101011110101011110010101111000000010101111001010111100101011110010101111010101111001010111100000001010111100101011110010101111001010111101010111100101011110000000101011110010101111001010111100101011110101011110010101111000
00001111111000111111100011111110001111111101111111000111111100000000111111100011111110001111111000111111110111111100011111110000000011111110001111111000111111100011111111011111110001111111000000001111111000111111100011111110001111111101111111000111111100000000111111100011111110001111111000111111110111111100011111110000
00001110111000111011100011101110001110111101110111000111011100000000111011100011101110001110111000111011110111011100011101110000000011101110001110111000111011100011101111011101110001110111000000001110111000111011100011101110001110111101110111000111011100000000111011100011101110001110111000111011110111011100011101110000
00001111111000111111100011111110001111111001111111000111111100000000111111100011111110001111111000111111100111111100011111110000000011111110001111111000111111100011111110011111110001111111000000001111111000111111100011111110001111111001111111000111111100000000111111100011111110001111111000111111100111111100011111110000
00001010111000101011110010101111001010000001010111000101011110000000101011100010101111001010111100101000000101011100010101111000000010101110001010111100101011110010100000010101110001010111100000001010111000101011110010101111001010000001010111000101011110000000101011100010101111001010111100101000000101011100010101111000
00011111100001111111110111111111011111000011111100001111111110000001111110000111111111011111111101111100001111110000111111111000000111111000011111111101111111110111110000111111000011111111100000011111100001111111110111111111011111000011111100001111111110000001111110000111111111011111111101111100001111110000111111111000
00011111100001111001110111100111011111000011111100001111001110000001111110000111100111011110011101111100001111110000111100111000000111111000011110011101111001110111110000111111000011110011100000011111100001111001110111100111011111000011111100001111001110000001111110000111100111011110011101111100001111110000111100111000
00011111100001111111110111111111011111000011111100001111111110000001111110000111111111011111111101111100001111110000111111111000000111111000011111111101111111110111110000111111000011111111100000011111100001111111110111111111011111000011111100001111111110000001111110000111111111011111111101111100001111110000111111111000
00000000000000000000000000000000000000000000000000000000000000000000000000000000000000000000000000000000000000000000000000000000000000000000000000000000000000000000000000000000000000000000000000000000000000000000000000000000000000000000000000000000000000000000000000000000000000000000000000000000000000000000000000000000
00000000000000000000000000000000000000000000000000000000000000000000000000000000000000000000000000000000000000000000000000000000000000000000000000000000000000000000000000000000000000000000000000000000000000000000000000000000000000000000000000000000000000000000000000000000000000000000000000000000000000000000000000000000
00000000000000000000000000000000000000000000000000000000000000000000000000000000000000000000000000000000000000000000000000000000000000000000000000000000000000000000000000000000000000000000000000000000000000000000000000000000000000000000000000000000000000000000000000000000000000000000000000000000000000000000000000000000
00000000000000000000000000000000000000000000000000000000000000000000000000000000000000000000000000000000000000000000000000000000000000000000000000000000000000000000000000000000000000000000000000000000000000000000000000000000000000000000000000000000000000000000000000000000000000000000000000000000000000000000000000000000
00000000000000000000000000000000000000000000000000000000000000000000000000000000000000000000000000000000000000000000000000000000000000000000000000000000000000000000000000000000000000000000000000000000000000000000000000000000000000000000000000000000000000000000000000000000000000000000000000000000000000000000000000000000
00000000000000000000000000000000000000000000000000000000000000000000000000000000000000000000000000000000000000000000000000000000000000000000000000000000000000000000000000000000000000000000000000000000000000000000000000000000000000000000000000000000000000000000000000000000000000000000000000000000000000000000000000000000
00011111111101111111101111111110111111111011111111101111111100000001111111110111111110111111111011111111101111111110111111110000000111111111011111111011111111101111111110111111111011111111000000011111111101111111101111111110111111111011111111101111111100000001111111110111111110111111111011111111101111111110111111110000
00011110011101111011111111001110111100111011110011101111011110000001111001110111101111111100111011110011101111001110111101111000000111100111011110111111110011101111001110111100111011110111100000011110011101111011111111001110111100111011110011101111011110000001111001110111101111111100111011110011101111001110111101111000
00011111111101111111111111111110111111111011111111101111111110000001111111110111111111111111111011111111101111111110111111111000000111111111011111111111111111101111111110111111111011111111100000011111111101111111111111111110111111111011111111101111111110000001111111110111111111111111111011111111101111111110111111111000
00001010111100101011110101011110010101111001010111100101011110000000101011110010101111010101111001010111100101011110010101111000000010101111001010111101010111100101011110010101111001010111100000001010111100101011110101011110010101111001010111100101011110000000101011110010101111010101111001010111100101011110010101111000
00001111111000111111110111111100011111110001111111000111111110000000111111100011111111011111110001111111000111111100011111111000000011111110001111111101111111000111111100011111110001111111100000001111111000111111110111111100011111110001111111000111111110000000111111100011111111011111110001111111000111111100011111111000
00001110111000111011110111011100011101110001110111000111011110000000111011100011101111011101110001110111000111011100011101111000000011101110001110111101110111000111011100011101110001110111100000001110111000111011110111011100011101110001110111000111011110000000111011100011101111011101110001110111000111011100011101111000
00001111111000111111100111111100011111110001111111000111111100000000111111100011111110011111110001111111000111111100011111110000000011111110001111111001111111000111111100011111110001111111000000001111111000111111100111111100011111110001111111000111111100000000111111100011111110011111110001111111000111111100011111110000
00001010111100101000000101011100010101111001010111100101000000000000101011110010100000010101110001010111100101011110010100000000000010101111001010000001010111000101011110010101111001010000000000001010111100101000000101011100010101111001010111100101000000000000101011110010100000010101110001010111100101011110010100000000
00011111111101111100001111110000111111111011111111101111100000000001111111110111110000111111000011111111101111111110111110000000000111111111011111000011111100001111111110111111111011111000000000011111111101111100001111110000111111111011111111101111100000000001111111110111110000111111000011111111101111111110111110000000
00011110011101111100001111110000111100111011110011101111100000000001111001110111110000111111000011110011101111001110111110000000000111100111011111000011111100001111001110111100111011111000000000011110011101111100001111110000111100111011110011101111100000000001111001110111110000111111000011110011101111001110111110000000
00011111111101111100001111110000111111111011111111101111100000000001111111110111110000111111000011111111101111111110111110000000000111111111011111000011111100001111111110111111111011111000000000011111111101111100001111110000111111111011111111101111100000000001111111110111110000111111000011111111101111111110111110000000
00000000000000000000000000000000000000000000000000000000000000000000000000000000000000000000000000000000000000000000000000000000000000000000000000000000000000000000000000000000000000000000000000000000000000000000000000000000000000000000000000000000000000000000000000000000000000000000000000000000000000000000000000000000
00000000000000000000000000000000000000000000000000000000000000000000000000000000000000000000000000000000000000000000000000000000000000000000000000000000000000000000000000000000000000000000000000000000000000000000000000000000000000000000000000000000000000000000000000000000000000000000000000000000000000000000000000000000
00000000000000000000000000000000000000000000000000000000000000000000000000000000000000000000000000000000000000000000000000000000000000000000000000000000000000000000000000000000000000000000000000000000000000000000000000000000000000000000000000000000000000000000000000000000000000000000000000000000000000000000000000000000
00000000000000000000000000000000000000000000000000000000000000000000000000000000000000000000000000000000000000000000000000000000000000000000000000000000000000000000000000000000000000000000000000000000000000000000000000000000000000000000000000000000000000000000000000000000000000000000000000000000000000000000000000000000
00000000000000000000000000000000000000000000000000000000000000000000000000000000000000000000000000000000000000000000000000000000000000000000000000000000000000000000000000000000000000000000000000000000000000000000000000000000000000000000000000000000000000000000000000000000000000000000000000000000000000000000000000000000
00000000000000000000000000000000000000000000000000000000000000000000000000000000000000000000000000000000000000000000000000000000000000000000000000000000000000000000000000000000000000000000000000000000000000000000000000000000000000000000000000000000000000000000000000000000000000000000000000000000000000000000000000000000
00011111111101111111110111111111011111111011111111101111111110000001111111110111111111011111111101111111101111111110111111111000000111111111011111111101111111110111111110111111111011111111100000011111111101111111110111111111011111111011111111101111111110000001111111110111111111011111111101111111101111111110111111111000
00011110011101111001110111100111011110111111110011101111001110000001111001110111100111011110011101111011111111001110111100111000000111100111011110011101111001110111101111111100111011110011100000011110011101111001110111100111011110111111110011101111001110000001111001110111100111011110011101111011111111001110111100111000
00011111111101111111110111111111011111111111111111101111111110000001111111110111111111011111111101111111111111111110111111111000000111111111011111111101111111110111111111111111111011111111100000011111111101111111110111111111011111111111111111101111111110000001111111110111111111011111111101111111111111111110111111111000
00001010111100101011110010101111001010111101010111100101011110000000101011110010101111001010111100101011110101011110010101111000000010101111001010111100101011110010101111010101111001010111100000001010111100101011110010101111001010111101010111100101011110000000101011110010101111001010111100101011110101011110010101111000
00001111111000111111100011111110001111111101111111000111111100000000111111100011111110001111111000111111110111111100011111110000000011111110001111111000111111100011111111011111110001111111000000001111111000111111100011111110001111111101111111000111111100000000111111100011111110001111111000111111110111111100011111110000
00001110111000111011100011101110001110111101110111000111011100000000111011100011101110001110111000111011110111011100011101110000000011101110001110111000111011100011101111011101110001110111000000001110111000111011100011101110001110111101110111000111011100000000111011100011101110001110111000111011110111011100011101110000
00001111111000111111100011111110001111111001111111000111111100000000111111100011111110001111111000111111100111111100011111110000000011111110001111111000111111100011111110011111110001111111000000001111111000111111100011111110001111111001111111000111111100000000111111100011111110001111111000111111100111111100011111110000
00001010111000101011110010101111001010000001010111000101011110000000101011100010101111001010111100101000000101011100010101111000000010101110001010111100101011110010100000010101110001010111100000001010111000101011110010101111001010000001010111000101011110000000101011100010101111001010111100101000000101011100010101111000
00011111100001111111110111111111011111000011111100001111111110000001111110000111111111011111111101111100001111110000111111111000000111111000011111111101111111110111110000111111000011111111100000011111100001111111110111111111011111000011111100001111111110000001111110000111111111011111111101111100001111110000111111111000
00011111100001111001110111100111011111000011111100001111001110000001111110000111100111011110011101111100001111110000111100111000000111111000011110011101111001110111110000111111000011110011100000011111100001111001110111100111011111000011111100001111001110000001111110000111100111011110011101111100001111110000111100111000
00011111100001111111110111111111011111000011111100001111111110000001111110000111111111011111111101111100001111110000111111111000000111111000011111111101111111110111110000111111000011111111100000011111100001111111110111111111011111000011111100001111111110000001111110000111111111011111111101111100001111110000111111111000
00000000000000000000000000000000000000000000000000000000000000000000000000000000000000000000000000000000000000000000000000000000000000000000000000000000000000000000000000000000000000000000000000000000000000000000000000000000000000000000000000000000000000000000000000000000000000000000000000000000000000000000000000000000
00000000000000000000000000000000000000000000000000000000000000000000000000000000000000000000000000000000000000000000000000000000000000000000000000000000000000000000000000000000000000000000000000000000000000000000000000000000000000000000000000000000000000000000000000000000000000000000000000000000000000000000000000000000
00000000000000000000000000000000000000000000000000000000000000000000000000000000000000000000000000000000000000000000000000000000000000000000000000000000000000000000000000000000000000000000000000000000000000000000000000000000000000000000000000000000000000000000000000000000000000000000000000000000000000000000000000000000
00000000000000000000000000000000000000000000000000000000000000000000000000000000000000000000000000000000000000000000000000000000000000000000000000000000000000000000000000000000000000000000000000000000000000000000000000000000000000000000000000000000000000000000000000000000000000000000000000000000000000000000000000000000
00000000000000000000000000000000000000000000000000000000000000000000000000000000000000000000000000000000000000000000000000000000000000000000000000000000000000000000000000000000000000000000000000000000000000000000000000000000000000000000000000000000000000000000000000000000000000000000000000000000000000000000000000000000
00000000000000000000000000000000000000000000000000000000000000000000000000000000000000000000000000000000000000000000000000000000000000000000000000000000000000000000000000000000000000000000000000000000000000000000000000000000000000000000000000000000000000000000000000000000000000000000000000000000000000000000000000000000
00000000000000000000000000000000000000000000000000000000000000000000000000000000000000000000000000000000000000000000000000000000000000000000000000000000000000000000000000000000000000000000000000000000000000000000000000000000000000000000000000000000000000000000000000000000000000000000000000000000000000000000000000000000
00000000000000000000000000000000000000000000000000000000000000000000000000000000000000000000000000000000000000000000000000000000000000000000000000000000000000000000000000000000000000000000000000000000000000000000000000000000000000000000000000000000000000000000000000000000000000000000000000000000000000000000000000000000
00000000000000000000000000000000000000000000000000000000000000000000000000000000000000000000000000000000000000000000000000000000000000000000000000000000000000000000000000000000000000000000000000000000000000000000000000000000000000000000000000000000000000000000000000000000000000000000000000000000000000000000000000000000
00000000000000000000000000000000000000000000000000000000000000000000000000000000000000000000000000000000000000000000000000000000000000000000000000000000000000000000000000000000000000000000000000000000000000000000000000000000000000000000000000000000000000000000000000000000000000000000000000000000000000000000000000000000
