P1
576 64
000000000000000000000000000000000000000000000000000000000000000000000000000000000000000000000000000000000000000000000000000000000000000000000000000000000000000000000000000000000000000000000000000000000000000000000000000000000000000000000000000000000000000000000000000000000000000000000000000000000000000000000000000000000000000000000000000000000000000000000000000000000000000000000000000000000000000000000000000000000000000000000000000000000000000000000000000000000000000000000000000000000000000000000000000000000000000000000000000000000000000000000000000000000000000000000000
000000000000000000000000000000000000000000000000000000000000000000000000000000000000000000000000000000000000000000000000000000000000000000000000000000000000000000000000000000000000000000000000000000000000000000000000000000000000000000000000000000000000000000000000000000000000000000000000000000000000000000000000000000000000000000000000000000000000000000000000000000000000000000000000000000000000000000000000000000000000000000000000000000000000000000000000000000000000000000000000000000000000000000000000000000000000000000000000000000000000000000000000000000000000000000000000
000000000000000000000000000000000000000000000000000000000000000000000000000000000000000000000000000000000000000000000000000000000000000000000000000000000000000000000000000000000000000000000000000000000000000000000000000000000000000000000000000000000000000000000000000000000000000000000000000000000000000000000000000000000000000000000000000000000000000000000000000000000000000000000000000000000000000000000000000000000000000000000000000000000000000000000000000000000000000000000000000000000000000000000000000000000000000000000000000000000000000000000000000000000000000000000000
000000000000000000000000000000000000000000000000000000000000000000000000000000000000000000000000000000000000000000000000000000000000000000000000000000000000000000000000000000000000000000000000000000000000000000000000000000000000000000000000000000000000000000000000000000000000000000000000000000000000000000000000000000000000000000000000000000000000000000000000000000000000000000000000000000000000000000000000000000000000000000000000000000000000000000000000000000000000000000000000000000000000000000000000000000000000000000000000000000000000000000000000000000000000000000000000
000000000000000000000000000000000000000000000000000000000000000000000000000000000000000000000000000000000000000000000000000000000000000000000000000000000000000000000000000000000000000000000000000000000000000000000000000000000000000000000000000000000000000000000000000000000000000000000000000000000000000000000000000000000000000000000000000000000000000000000000000000000000000000000000000000000000000000000000000000000000000000000000000000000000000000000000000000000000000000000000000000000000000000000000000000000000000000000000000000000000000000000000000000000000000000000000
000000000000000000000000000000000000000000000000000000000000000000000000000000000000000000000000000000000000000000000000000000000000000000000000000000000000000000000000000000000000000000000000000000000000000000000000000000000000000000000000000000000000000000000000000000000000000000000000000000000000000000000000000000000000000000000000000000000000000000000000000000000000000000000000000000000000000000000000000000000000000000000000000000000000000000000000000000000000000000000000000000000000000000000000000000000000000000000000000000000000000000000000000000000000000000000000
000000000000000000000000000000000000000000000000000000000000000000000000000000000000000000000000000000000000000000000000000000000000000000000000000000000000000000000000000000000000000000000000000000000000000000000000000000000000000000000000000000000000000000000000000000000000000000000000000000000000000000000000000000000000000000000000000000000000000000000000000000000000000000000000000000000000000000000000000000000000000000000000000000000000000000000000000000000000000000000000000000000000000000000000000000000000000000000000000000000000000000000000000000000000000000000000
000000000000000000000000000000000000000000000000000000000000000000000000000000000000000000000000000000000000000000000000000000000000000000000000000000000000000000000000000000000000000000000000000000000000000000000000000000000000000000000000000000000000000000000000000000000000000000000000000000000000000000000000000000000000000000000000000000000000000000000000000000000000000000000000000000000000000000000000000000000000000000000000000000000000000000000000000000000000000000000000000000000000000000000000000000000000000000000000000000000000000000000000000000000000000000000000
000000000000000000000000000000000000000000000000000000000000000000000000000000000000000000000000000000000000000000000000000000000000000000000000000000000000000000000000000000000000000000000000000000000000000000000000000000000000000000000000000000000000000000000000000000000000000000000000000000000000000000000000000000000000000000000000000000000000000000000000000000000000000000000000000000000000000000000000000000000000000000000000000000000000000000000000000000000000000000000000000000000000000000000000000000000000000000000000000000000000000000000000000000000000000000000000
000011111110001111111000111111100011111100011111110001111111000000001111111000111111100011111110001111110001111111000111111100000000111111100011111110001111111000111111000111111100011111110000000011111110001111111000111111100011111100011111110001111111000000001111111000111111100011111110001111110001111111000111111100000000111111100011111110001111111000111111000111111100011111110000000011111110001111111000111111100011111100011111110001111111000000001111111000111111100011111110001111110001111111000111111100000000111111100011111110001111111000111111000111111100011111110000
000111000011011100001101110000110111000110111000011011100001100000011100001101110000110111000011011100011011100001101110000110000001110000110111000011011100001101110001101110000110111000011000000111000011011100001101110000110111000110111000011011100001100000011100001101110000110111000011011100011011100001101110000110000001110000110111000011011100001101110001101110000110111000011000000111000011011100001101110000110111000110111000011011100001100000011100001101110000110111000011011100011011100001101110000110000001110000110111000011011100001101110001101110000110111000011000
000011111111001111111100111111110011111111011111111001111111100000001111111100111111110011111111001111111101111111100111111110000000111111110011111111001111111100111111110111111110011111111000000011111111001111111100111111110011111111011111111001111111100000001111111100111111110011111111001111111101111111100111111110000000111111110011111111001111111100111111110111111110011111111000000011111111001111111100111111110011111111011111111001111111100000001111111100111111110011111111001111111101111111100111111110000000111111110011111111001111111100111111110111111110011111111000
000010100000001010000000101000000010101111010100000001010000000000001010000000101000000010100000001010111101010000000101000000000000101000000010100000001010000000101011110101000000010100000000000010100000001010000000101000000010101111010100000001010000000000001010000000101000000010100000001010111101010000000101000000000000101000000010100000001010000000101011110101000000010100000000000010100000001010000000101000000010101111010100000001010000000000001010000000101000000010100000001010111101010000000101000000000000101000000010100000001010000000101011110101000000010100000000
000010111110001011111000101111100010111111010111110001011111000000001011111000101111100010111110001011111101011111000101111100000000101111100010111110001011111000101111110101111100010111110000000010111110001011111000101111100010111111010111110001011111000000001011111000101111100010111110001011111101011111000101111100000000101111100010111110001011111000101111110101111100010111110000000010111110001011111000101111100010111111010111110001011111000000001011111000101111100010111110001011111101011111000101111100000000101111100010111110001011111000101111110101111100010111110000
000011101110001110111000111011100011100110011101110001110111000000001110111000111011100011101110001110011001110111000111011100000000111011100011101110001110111000111001100111011100011101110000000011101110001110111000111011100011100110011101110001110111000000001110111000111011100011101110001110011001110111000111011100000000111011100011101110001110111000111001100111011100011101110000000011101110001110111000111011100011100110011101110001110111000000001110111000111011100011101110001110011001110111000111011100000000111011100011101110001110111000111001100111011100011101110000
000010111110001011111000101111100010111100010111110001011111000000001011111000101111100010111110001011110001011111000101111100000000101111100010111110001011111000101111000101111100010111110000000010111110001011111000101111100010111100010111110001011111000000001011111000101111100010111110001011110001011111000101111100000000101111100010111110001011111000101111000101111100010111110000000010111110001011111000101111100010111100010111110001011111000000001011111000101111100010111110001011110001011111000101111100000000101111100010111110001011111000101111000101111100010111110000
000010100100001010000000101000000010100000010100100001010000000000001010010000101000000010100000001010000001010010000101000000000000101001000010100000001010000000101000000101001000010100000000000010100100001010000000101000000010100000010100100001010000000000001010010000101000000010100000001010000001010010000101000000000000101001000010100000001010000000101000000101001000010100000000000010100100001010000000101000000010100000010100100001010000000000001010010000101000000010100000001010000001010010000101000000000000101001000010100000001010000000101000000101001000010100000000
000011110000001111111100111111110011100000011110000001111111100000001111000000111111110011111111001110000001111000000111111110000000111100000011111111001111111100111000000111100000011111111000000011110000001111111100111111110011100000011110000001111111100000001111000000111111110011111111001110000001111000000111111110000000111100000011111111001111111100111000000111100000011111111000000011110000001111111100111111110011100000011110000001111111100000001111000000111111110011111111001110000001111000000111111110000000111100000011111111001111111100111000000111100000011111111000
000111011000011100001101110000110111110000111011000011100001100000011101100001110000110111000011011111000011101100001110000110000001110110000111000011011100001101111100001110110000111000011000000111011000011100001101110000110111110000111011000011100001100000011101100001110000110111000011011111000011101100001110000110000001110110000111000011011100001101111100001110110000111000011000000111011000011100001101110000110111110000111011000011100001100000011101100001110000110111000011011111000011101100001110000110000001110110000111000011011100001101111100001110110000111000011000
000011110000001111111000111111100011100000011110000001111111000000001111000000111111100011111110001110000001111000000111111100000000111100000011111110001111111000111000000111100000011111110000000011110000001111111000111111100011100000011110000001111111000000001111000000111111100011111110001110000001111000000111111100000000111100000011111110001111111000111000000111100000011111110000000011110000001111111000111111100011100000011110000001111111000000001111000000111111100011111110001110000001111000000111111100000000111100000011111110001111111000111000000111100000011111110000
000000000000000000000000000000000000000000000000000000000000000000000000000000000000000000000000000000000000000000000000000000000000000000000000000000000000000000000000000000000000000000000000000000000000000000000000000000000000000000000000000000000000000000000000000000000000000000000000000000000000000000000000000000000000000000000000000000000000000000000000000000000000000000000000000000000000000000000000000000000000000000000000000000000000000000000000000000000000000000000000000000000000000000000000000000000000000000000000000000000000000000000000000000000000000000000000
000000000000000000000000000000000000000000000000000000000000000000000000000000000000000000000000000000000000000000000000000000000000000000000000000000000000000000000000000000000000000000000000000000000000000000000000000000000000000000000000000000000000000000000000000000000000000000000000000000000000000000000000000000000000000000000000000000000000000000000000000000000000000000000000000000000000000000000000000000000000000000000000000000000000000000000000000000000000000000000000000000000000000000000000000000000000000000000000000000000000000000000000000000000000000000000000
000000000000000000000000000000000000000000000000000000000000000000000000000000000000000000000000000000000000000000000000000000000000000000000000000000000000000000000000000000000000000000000000000000000000000000000000000000000000000000000000000000000000000000000000000000000000000000000000000000000000000000000000000000000000000000000000000000000000000000000000000000000000000000000000000000000000000000000000000000000000000000000000000000000000000000000000000000000000000000000000000000000000000000000000000000000000000000000000000000000000000000000000000000000000000000000000
000000000000000000000000000000000000000000000000000000000000000000000000000000000000000000000000000000000000000000000000000000000000000000000000000000000000000000000000000000000000000000000000000000000000000000000000000000000000000000000000000000000000000000000000000000000000000000000000000000000000000000000000000000000000000000000000000000000000000000000000000000000000000000000000000000000000000000000000000000000000000000000000000000000000000000000000000000000000000000000000000000000000000000000000000000000000000000000000000000000000000000000000000000000000000000000000
000000000000000000000000000000000000000000000000000000000000000000000000000000000000000000000000000000000000000000000000000000000000000000000000000000000000000000000000000000000000000000000000000000000000000000000000000000000000000000000000000000000000000000000000000000000000000000000000000000000000000000000000000000000000000000000000000000000000000000000000000000000000000000000000000000000000000000000000000000000000000000000000000000000000000000000000000000000000000000000000000000000000000000000000000000000000000000000000000000000000000000000000000000000000000000000000
000000000000000000000000000000000000000000000000000000000000000000000000000000000000000000000000000000000000000000000000000000000000000000000000000000000000000000000000000000000000000000000000000000000000000000000000000000000000000000000000000000000000000000000000000000000000000000000000000000000000000000000000000000000000000000000000000000000000000000000000000000000000000000000000000000000000000000000000000000000000000000000000000000000000000000000000000000000000000000000000000000000000000000000000000000000000000000000000000000000000000000000000000000000000000000000000
000011111110001111110001111111000111111100011111110001111110000000001111111000111111000111111100011111110001111111000111111000000000111111100011111100011111110001111111000111111100011111100000000011111110001111110001111111000111111100011111110001111110000000001111111000111111000111111100011111110001111111000111111000000000111111100011111100011111110001111111000111111100011111100000000011111110001111110001111111000111111100011111110001111110000000001111111000111111000111111100011111110001111111000111111000000000111111100011111100011111110001111111000111111100011111100000
000111000011011100011011100001101110000110111000011011100011000000011100001101110001101110000110111000011011100001101110001100000001110000110111000110111000011011100001101110000110111000110000000111000011011100011011100001101110000110111000011011100011000000011100001101110001101110000110111000011011100001101110001100000001110000110111000110111000011011100001101110000110111000110000000111000011011100011011100001101110000110111000011011100011000000011100001101110001101110000110111000011011100001101110001100000001110000110111000110111000011011100001101110000110111000110000
000011111111001111111101111111100111111110011111111001111111100000001111111100111111110111111110011111111001111111100111111110000000111111110011111111011111111001111111100111111110011111111000000011111111001111111101111111100111111110011111111001111111100000001111111100111111110111111110011111111001111111100111111110000000111111110011111111011111111001111111100111111110011111111000000011111111001111111101111111100111111110011111111001111111100000001111111100111111110111111110011111111001111111100111111110000000111111110011111111011111111001111111100111111110011111111000
000010100000001010111101010000000101000000010100000001010111100000001010000000101011110101000000010100000001010000000101011110000000101000000010101111010100000001010000000101000000010101111000000010100000001010111101010000000101000000010100000001010111100000001010000000101011110101000000010100000001010000000101011110000000101000000010101111010100000001010000000101000000010101111000000010100000001010111101010000000101000000010100000001010111100000001010000000101011110101000000010100000001010000000101011110000000101000000010101111010100000001010000000101000000010101111000
000010111110001011111101011111000101111100010111110001011111100000001011111000101111110101111100010111110001011111000101111110000000101111100010111111010111110001011111000101111100010111111000000010111110001011111101011111000101111100010111110001011111100000001011111000101111110101111100010111110001011111000101111110000000101111100010111111010111110001011111000101111100010111111000000010111110001011111101011111000101111100010111110001011111100000001011111000101111110101111100010111110001011111000101111110000000101111100010111111010111110001011111000101111100010111111000
000011101110001110011001110111000111011100011101110001110011000000001110111000111001100111011100011101110001110111000111001100000000111011100011100110011101110001110111000111011100011100110000000011101110001110011001110111000111011100011101110001110011000000001110111000111001100111011100011101110001110111000111001100000000111011100011100110011101110001110111000111011100011100110000000011101110001110011001110111000111011100011101110001110011000000001110111000111001100111011100011101110001110111000111001100000000111011100011100110011101110001110111000111011100011100110000
000010111110001011110001011111000101111100010111110001011110000000001011111000101111000101111100010111110001011111000101111000000000101111100010111100010111110001011111000101111100010111100000000010111110001011110001011111000101111100010111110001011110000000001011111000101111000101111100010111110001011111000101111000000000101111100010111100010111110001011111000101111100010111100000000010111110001011110001011111000101111100010111110001011110000000001011111000101111000101111100010111110001011111000101111000000000101111100010111100010111110001011111000101111100010111100000
000010100000001010000001010010000101000000010100000001010000000000001010000000101000000101001000010100000001010000000101000000000000101000000010100000010100100001010000000101000000010100000000000010100000001010000001010010000101000000010100000001010000000000001010000000101000000101001000010100000001010000000101000000000000101000000010100000010100100001010000000101000000010100000000000010100000001010000001010010000101000000010100000001010000000000001010000000101000000101001000010100000001010000000101000000000000101000000010100000010100100001010000000101000000010100000000
000011111111001110000001111000000111111110011111111001110000000000001111111100111000000111100000011111111001111111100111000000000000111111110011100000011110000001111111100111111110011100000000000011111111001110000001111000000111111110011111111001110000000000001111111100111000000111100000011111111001111111100111000000000000111111110011100000011110000001111111100111111110011100000000000011111111001110000001111000000111111110011111111001110000000000001111111100111000000111100000011111111001111111100111000000000000111111110011100000011110000001111111100111111110011100000000
000111000011011111000011101100001110000110111000011011111000000000011100001101111100001110110000111000011011100001101111100000000001110000110111110000111011000011100001101110000110111110000000000111000011011111000011101100001110000110111000011011111000000000011100001101111100001110110000111000011011100001101111100000000001110000110111110000111011000011100001101110000110111110000000000111000011011111000011101100001110000110111000011011111000000000011100001101111100001110110000111000011011100001101111100000000001110000110111110000111011000011100001101110000110111110000000
000011111110001110000001111000000111111100011111110001110000000000001111111000111000000111100000011111110001111111000111000000000000111111100011100000011110000001111111000111111100011100000000000011111110001110000001111000000111111100011111110001110000000000001111111000111000000111100000011111110001111111000111000000000000111111100011100000011110000001111111000111111100011100000000000011111110001110000001111000000111111100011111110001110000000000001111111000111000000111100000011111110001111111000111000000000000111111100011100000011110000001111111000111111100011100000000
000000000000000000000000000000000000000000000000000000000000000000000000000000000000000000000000000000000000000000000000000000000000000000000000000000000000000000000000000000000000000000000000000000000000000000000000000000000000000000000000000000000000000000000000000000000000000000000000000000000000000000000000000000000000000000000000000000000000000000000000000000000000000000000000000000000000000000000000000000000000000000000000000000000000000000000000000000000000000000000000000000000000000000000000000000000000000000000000000000000000000000000000000000000000000000000000
000000000000000000000000000000000000000000000000000000000000000000000000000000000000000000000000000000000000000000000000000000000000000000000000000000000000000000000000000000000000000000000000000000000000000000000000000000000000000000000000000000000000000000000000000000000000000000000000000000000000000000000000000000000000000000000000000000000000000000000000000000000000000000000000000000000000000000000000000000000000000000000000000000000000000000000000000000000000000000000000000000000000000000000000000000000000000000000000000000000000000000000000000000000000000000000000
000000000000000000000000000000000000000000000000000000000000000000000000000000000000000000000000000000000000000000000000000000000000000000000000000000000000000000000000000000000000000000000000000000000000000000000000000000000000000000000000000000000000000000000000000000000000000000000000000000000000000000000000000000000000000000000000000000000000000000000000000000000000000000000000000000000000000000000000000000000000000000000000000000000000000000000000000000000000000000000000000000000000000000000000000000000000000000000000000000000000000000000000000000000000000000000000
000000000000000000000000000000000000000000000000000000000000000000000000000000000000000000000000000000000000000000000000000000000000000000000000000000000000000000000000000000000000000000000000000000000000000000000000000000000000000000000000000000000000000000000000000000000000000000000000000000000000000000000000000000000000000000000000000000000000000000000000000000000000000000000000000000000000000000000000000000000000000000000000000000000000000000000000000000000000000000000000000000000000000000000000000000000000000000000000000000000000000000000000000000000000000000000000
000000000000000000000000000000000000000000000000000000000000000000000000000000000000000000000000000000000000000000000000000000000000000000000000000000000000000000000000000000000000000000000000000000000000000000000000000000000000000000000000000000000000000000000000000000000000000000000000000000000000000000000000000000000000000000000000000000000000000000000000000000000000000000000000000000000000000000000000000000000000000000000000000000000000000000000000000000000000000000000000000000000000000000000000000000000000000000000000000000000000000000000000000000000000000000000000
000000000000000000000000000000000000000000000000000000000000000000000000000000000000000000000000000000000000000000000000000000000000000000000000000000000000000000000000000000000000000000000000000000000000000000000000000000000000000000000000000000000000000000000000000000000000000000000000000000000000000000000000000000000000000000000000000000000000000000000000000000000000000000000000000000000000000000000000000000000000000000000000000000000000000000000000000000000000000000000000000000000000000000000000000000000000000000000000000000000000000000000000000000000000000000000000
000011111110001111111000111111100011111100011111110001111111000000001111111000111111100011111110001111110001111111000111111100000000111111100011111110001111111000111111000111111100011111110000000011111110001111111000111111100011111100011111110001111111000000001111111000111111100011111110001111110001111111000111111100000000111111100011111110001111111000111111000111111100011111110000000011111110001111111000111111100011111100011111110001111111000000001111111000111111100011111110001111110001111111000111111100000000111111100011111110001111111000111111000111111100011111110000
000111000011011100001101110000110111000110111000011011100001100000011100001101110000110111000011011100011011100001101110000110000001110000110111000011011100001101110001101110000110111000011000000111000011011100001101110000110111000110111000011011100001100000011100001101110000110111000011011100011011100001101110000110000001110000110111000011011100001101110001101110000110111000011000000111000011011100001101110000110111000110111000011011100001100000011100001101110000110111000011011100011011100001101110000110000001110000110111000011011100001101110001101110000110111000011000
000011111111001111111100111111110011111111011111111001111111100000001111111100111111110011111111001111111101111111100111111110000000111111110011111111001111111100111111110111111110011111111000000011111111001111111100111111110011111111011111111001111111100000001111111100111111110011111111001111111101111111100111111110000000111111110011111111001111111100111111110111111110011111111000000011111111001111111100111111110011111111011111111001111111100000001111111100111111110011111111001111111101111111100111111110000000111111110011111111001111111100111111110111111110011111111000
000010100000001010000000101000000010101111010100000001010000000000001010000000101000000010100000001010111101010000000101000000000000101000000010100000001010000000101011110101000000010100000000000010100000001010000000101000000010101111010100000001010000000000001010000000101000000010100000001010111101010000000101000000000000101000000010100000001010000000101011110101000000010100000000000010100000001010000000101000000010101111010100000001010000000000001010000000101000000010100000001010111101010000000101000000000000101000000010100000001010000000101011110101000000010100000000
000010111110001011111000101111100010111111010111110001011111000000001011111000101111100010111110001011111101011111000101111100000000101111100010111110001011111000101111110101111100010111110000000010111110001011111000101111100010111111010111110001011111000000001011111000101111100010111110001011111101011111000101111100000000101111100010111110001011111000101111110101111100010111110000000010111110001011111000101111100010111111010111110001011111000000001011111000101111100010111110001011111101011111000101111100000000101111100010111110001011111000101111110101111100010111110000
000011101110001110111000111011100011100110011101110001110111000000001110111000111011100011101110001110011001110111000111011100000000111011100011101110001110111000111001100111011100011101110000000011101110001110111000111011100011100110011101110001110111000000001110111000111011100011101110001110011001110111000111011100000000111011100011101110001110111000111001100111011100011101110000000011101110001110111000111011100011100110011101110001110111000000001110111000111011100011101110001110011001110111000111011100000000111011100011101110001110111000111001100111011100011101110000
000010111110001011111000101111100010111100010111110001011111000000001011111000101111100010111110001011110001011111000101111100000000101111100010111110001011111000101111000101111100010111110000000010111110001011111000101111100010111100010111110001011111000000001011111000101111100010111110001011110001011111000101111100000000101111100010111110001011111000101111000101111100010111110000000010111110001011111000101111100010111100010111110001011111000000001011111000101111100010111110001011110001011111000101111100000000101111100010111110001011111000101111000101111100010111110000
000010100100001010000000101000000010100000010100100001010000000000001010010000101000000010100000001010000001010010000101000000000000101001000010100000001010000000101000000101001000010100000000000010100100001010000000101000000010100000010100100001010000000000001010010000101000000010100000001010000001010010000101000000000000101001000010100000001010000000101000000101001000010100000000000010100100001010000000101000000010100000010100100001010000000000001010010000101000000010100000001010000001010010000101000000000000101001000010100000001010000000101000000101001000010100000000
000011110000001111111100111111110011100000011110000001111111100000001111000000111111110011111111001110000001111000000111111110000000111100000011111111001111111100111000000111100000011111111000000011110000001111111100111111110011100000011110000001111111100000001111000000111111110011111111001110000001111000000111111110000000111100000011111111001111111100111000000111100000011111111000000011110000001111111100111111110011100000011110000001111111100000001111000000111111110011111111001110000001111000000111111110000000111100000011111111001111111100111000000111100000011111111000
000111011000011100001101110000110111110000111011000011100001100000011101100001110000110111000011011111000011101100001110000110000001110110000111000011011100001101111100001110110000111000011000000111011000011100001101110000110111110000111011000011100001100000011101100001110000110111000011011111000011101100001110000110000001110110000111000011011100001101111100001110110000111000011000000111011000011100001101110000110111110000111011000011100001100000011101100001110000110111000011011111000011101100001110000110000001110110000111000011011100001101111100001110110000111000011000
000011110000001111111000111111100011100000011110000001111111000000001111000000111111100011111110001110000001111000000111111100000000111100000011111110001111111000111000000111100000011111110000000011110000001111111000111111100011100000011110000001111111000000001111000000111111100011111110001110000001111000000111111100000000111100000011111110001111111000111000000111100000011111110000000011110000001111111000111111100011100000011110000001111111000000001111000000111111100011111110001110000001111000000111111100000000111100000011111110001111111000111000000111100000011111110000
000000000000000000000000000000000000000000000000000000000000000000000000000000000000000000000000000000000000000000000000000000000000000000000000000000000000000000000000000000000000000000000000000000000000000000000000000000000000000000000000000000000000000000000000000000000000000000000000000000000000000000000000000000000000000000000000000000000000000000000000000000000000000000000000000000000000000000000000000000000000000000000000000000000000000000000000000000000000000000000000000000000000000000000000000000000000000000000000000000000000000000000000000000000000000000000000
000000000000000000000000000000000000000000000000000000000000000000000000000000000000000000000000000000000000000000000000000000000000000000000000000000000000000000000000000000000000000000000000000000000000000000000000000000000000000000000000000000000000000000000000000000000000000000000000000000000000000000000000000000000000000000000000000000000000000000000000000000000000000000000000000000000000000000000000000000000000000000000000000000000000000000000000000000000000000000000000000000000000000000000000000000000000000000000000000000000000000000000000000000000000000000000000
000000000000000000000000000000000000000000000000000000000000000000000000000000000000000000000000000000000000000000000000000000000000000000000000000000000000000000000000000000000000000000000000000000000000000000000000000000000000000000000000000000000000000000000000000000000000000000000000000000000000000000000000000000000000000000000000000000000000000000000000000000000000000000000000000000000000000000000000000000000000000000000000000000000000000000000000000000000000000000000000000000000000000000000000000000000000000000000000000000000000000000000000000000000000000000000000
000000000000000000000000000000000000000000000000000000000000000000000000000000000000000000000000000000000000000000000000000000000000000000000000000000000000000000000000000000000000000000000000000000000000000000000000000000000000000000000000000000000000000000000000000000000000000000000000000000000000000000000000000000000000000000000000000000000000000000000000000000000000000000000000000000000000000000000000000000000000000000000000000000000000000000000000000000000000000000000000000000000000000000000000000000000000000000000000000000000000000000000000000000000000000000000000
000000000000000000000000000000000000000000000000000000000000000000000000000000000000000000000000000000000000000000000000000000000000000000000000000000000000000000000000000000000000000000000000000000000000000000000000000000000000000000000000000000000000000000000000000000000000000000000000000000000000000000000000000000000000000000000000000000000000000000000000000000000000000000000000000000000000000000000000000000000000000000000000000000000000000000000000000000000000000000000000000000000000000000000000000000000000000000000000000000000000000000000000000000000000000000000000
000000000000000000000000000000000000000000000000000000000000000000000000000000000000000000000000000000000000000000000000000000000000000000000000000000000000000000000000000000000000000000000000000000000000000000000000000000000000000000000000000000000000000000000000000000000000000000000000000000000000000000000000000000000000000000000000000000000000000000000000000000000000000000000000000000000000000000000000000000000000000000000000000000000000000000000000000000000000000000000000000000000000000000000000000000000000000000000000000000000000000000000000000000000000000000000000
000000000000000000000000000000000000000000000000000000000000000000000000000000000000000000000000000000000000000000000000000000000000000000000000000000000000000000000000000000000000000000000000000000000000000000000000000000000000000000000000000000000000000000000000000000000000000000000000000000000000000000000000000000000000000000000000000000000000000000000000000000000000000000000000000000000000000000000000000000000000000000000000000000000000000000000000000000000000000000000000000000000000000000000000000000000000000000000000000000000000000000000000000000000000000000000000
000000000000000000000000000000000000000000000000000000000000000000000000000000000000000000000000000000000000000000000000000000000000000000000000000000000000000000000000000000000000000000000000000000000000000000000000000000000000000000000000000000000000000000000000000000000000000000000000000000000000000000000000000000000000000000000000000000000000000000000000000000000000000000000000000000000000000000000000000000000000000000000000000000000000000000000000000000000000000000000000000000000000000000000000000000000000000000000000000000000000000000000000000000000000000000000000
000000000000000000000000000000000000000000000000000000000000000000000000000000000000000000000000000000000000000000000000000000000000000000000000000000000000000000000000000000000000000000000000000000000000000000000000000000000000000000000000000000000000000000000000000000000000000000000000000000000000000000000000000000000000000000000000000000000000000000000000000000000000000000000000000000000000000000000000000000000000000000000000000000000000000000000000000000000000000000000000000000000000000000000000000000000000000000000000000000000000000000000000000000000000000000000000
000000000000000000000000000000000000000000000000000000000000000000000000000000000000000000000000000000000000000000000000000000000000000000000000000000000000000000000000000000000000000000000000000000000000000000000000000000000000000000000000000000000000000000000000000000000000000000000000000000000000000000000000000000000000000000000000000000000000000000000000000000000000000000000000000000000000000000000000000000000000000000000000000000000000000000000000000000000000000000000000000000000000000000000000000000000000000000000000000000000000000000000000000000000000000000000000
