P1
64 128
0000000000000000000000000000000000000000000000000000000000000000
0000000000000000000000000000000000000000000000000000000000000000
0000000000000000000000000000000000000000000000000000000000000000
0000000000000000000000000000000000000000000000000000000000000000
0000000000000000000000000000000000000000000000000000000000000000
0000000000000000000000000000000000000000000000000000000000000000
0000000000000000000000000000000000000000000000000000000000000000
0000000000000000000000000000000000000000000000000000000000000000
0000000000000000000000000000000000000000000000000000000000000000
0000111111100011111110001111111000111111000111111100011111110000
0001110000110111000011011100001101110001101110000110111000011000
0000111111110011111111001111111100111111110111111110011111111000
0000101000000010100000001010000000101011110101000000010100000000
0000101111100010111110001011111000101111110101111100010111110000
0000111011100011101110001110111000111001100111011100011101110000
0000101111100010111110001011111000101111000101111100010111110000
0000101001000010100000001010000000101000000101001000010100000000
0000111100000011111111001111111100111000000111100000011111111000
0001110110000111000011011100001101111100001110110000111000011000
0000111100000011111110001111111000111000000111100000011111110000
0000000000000000000000000000000000000000000000000000000000000000
0000000000000000000000000000000000000000000000000000000000000000
0000000000000000000000000000000000000000000000000000000000000000
0000000000000000000000000000000000000000000000000000000000000000
0000000000000000000000000000000000000000000000000000000000000000
0000000000000000000000000000000000000000000000000000000000000000
0000111111100011111100011111110001111111000111111100011111100000
0001110000110111000110111000011011100001101110000110111000110000
0000111111110011111111011111111001111111100111111110011111111000
0000101000000010101111010100000001010000000101000000010101111000
0000101111100010111111010111110001011111000101111100010111111000
0000111011100011100110011101110001110111000111011100011100110000
0000101111100010111100010111110001011111000101111100010111100000
0000101000000010100000010100100001010000000101000000010100000000
0000111111110011100000011110000001111111100111111110011100000000
0001110000110111110000111011000011100001101110000110111110000000
0000111111100011100000011110000001111111000111111100011100000000
0000000000000000000000000000000000000000000000000000000000000000
0000000000000000000000000000000000000000000000000000000000000000
0000000000000000000000000000000000000000000000000000000000000000
0000000000000000000000000000000000000000000000000000000000000000
0000000000000000000000000000000000000000000000000000000000000000
0000000000000000000000000000000000000000000000000000000000000000
0000111111100011111110001111111000111111000111111100011111110000
0001110000110111000011011100001101110001101110000110111000011000
0000111111110011111111001111111100111111110111111110011111111000
0000101000000010100000001010000000101011110101000000010100000000
0000101111100010111110001011111000101111110101111100010111110000
0000111011100011101110001110111000111001100111011100011101110000
0000101111100010111110001011111000101111000101111100010111110000
0000101001000010100000001010000000101000000101001000010100000000
0000111100000011111111001111111100111000000111100000011111111000
0001110110000111000011011100001101111100001110110000111000011000
0000111100000011111110001111111000111000000111100000011111110000
0000000000000000000000000000000000000000000000000000000000000000
0000000000000000000000000000000000000000000000000000000000000000
0000000000000000000000000000000000000000000000000000000000000000
0000000000000000000000000000000000000000000000000000000000000000
0000000000000000000000000000000000000000000000000000000000000000
0000000000000000000000000000000000000000000000000000000000000000
0000000000000000000000000000000000000000000000000000000000000000
0000000000000000000000000000000000000000000000000000000000000000
0000000000000000000000000000000000000000000000000000000000000000
0000000000000000000000000000000000000000000000000000000000000000
0000000000000000000000000000000000000000000000000000000000000000
0000000000000000000000000000000000000000000000000000000000000000
0000000000000000000000000000000000000000000000000000000000000000
0000000000000000000000000000000000000000000000000000000000000000
0000000000000000000000000000000000000000000000000000000000000000
0000000000000000000000000000000000000000000000000000000000000000
0000000000000000000000000000000000000000000000000000000000000000
0000000000000000000000000000000000000000000000000000000000000000
0000000000000000000000000000000000000000000000000000000000000000
0000111111100011111110001111111000111111000111111100011111110000
0001110000110111000011011100001101110001101110000110111000011000
0000111111110011111111001111111100111111110111111110011111111000
0000101000000010100000001010000000101011110101000000010100000000
0000101111100010111110001011111000101111110101111100010111110000
0000111011100011101110001110111000111001100111011100011101110000
0000101111100010111110001011111000101111000101111100010111110000
0000101001000010100000001010000000101000000101001000010100000000
0000111100000011111111001111111100111000000111100000011111111000
0001110110000111000011011100001101111100001110110000111000011000
0000111100000011111110001111111000111000000111100000011111110000
0000000000000000000000000000000000000000000000000000000000000000
0000000000000000000000000000000000000000000000000000000000000000
0000000000000000000000000000000000000000000000000000000000000000
0000000000000000000000000000000000000000000000000000000000000000
0000000000000000000000000000000000000000000000000000000000000000
0000000000000000000000000000000000000000000000000000000000000000
0000111111100011111100011111110001111111000111111100011111100000
0001110000110111000110111000011011100001101110000110111000110000
0000111111110011111111011111111001111111100111111110011111111000
0000101000000010101111010100000001010000000101000000010101111000
0000101111100010111111010111110001011111000101111100010111111000
0000111011100011100110011101110001110111000111011100011100110000
0000101111100010111100010111110001011111000101111100010111100000
0000101000000010100000010100100001010000000101000000010100000000
0000111111110011100000011110000001111111100111111110011100000000
0001110000110111110000111011000011100001101110000110111110000000
0000111111100011100000011110000001111111000111111100011100000000
0000000000000000000000000000000000000000000000000000000000000000
0000000000000000000000000000000000000000000000000000000000000000
0000000000000000000000000000000000000000000000000000000000000000
0000000000000000000000000000000000000000000000000000000000000000
0000000000000000000000000000000000000000000000000000000000000000
0000000000000000000000000000000000000000000000000000000000000000
0000111111100011111110001111111000111111000111111100011111110000
0001110000110111000011011100001101110001101110000110111000011000
0000111111110011111111001111111100111111110111111110011111111000
0000101000000010100000001010000000101011110101000000010100000000
0000101111100010111110001011111000101111110101111100010111110000
0000111011100011101110001110111000111001100111011100011101110000
0000101111100010111110001011111000101111000101111100010111110000
0000101001000010100000001010000000101000000101001000010100000000
0000111100000011111111001111111100111000000111100000011111111000
0001110110000111000011011100001101111100001110110000111000011000
0000111100000011111110001111111000111000000111100000011111110000
0000000000000000000000000000000000000000000000000000000000000000
0000000000000000000000000000000000000000000000000000000000000000
0000000000000000000000000000000000000000000000000000000000000000
0000000000000000000000000000000000000000000000000000000000000000
0000000000000000000000000000000000000000000000000000000000000000
0000000000000000000000000000000000000000000000000000000000000000
0000000000000000000000000000000000000000000000000000000000000000
0000000000000000000000000000000000000000000000000000000000000000
0000000000000000000000000000000000000000000000000000000000000000
0000000000000000000000000000000000000000000000000000000000000000
