P1
128 128
11111111111111111111111111111111111111111111111111111111111111111111111111111111111111111111111111111111111111111111111111111111
11111111111111111111111111111111111111111111111111111111111111111111111111111111111111111111111111111111111111111111111111111111
11111111111111111111111111111111111111111111111111111111111111111111111111111111111111111111111111111111111111111111111111111111
11111111111111111111111111111111111111111111111111111111111111111111111111111111111111111111111111111111111111111111111111111111
11111111111111111111111111111111111111111111111111111111111111111111111111111111111111111111111111111111111111111111111111111111
11111111111111111111111111111111111111111111111111111111111111111111111111111111111111111111111111111111111111111111111111111111
11111111111111111111111111111111111111111111111111111111111111111111111111111111111111111111111111111111111111111111111111111111
11111111111111111111111111111111111111111111111111111111111111111111111111111111111111111111111111111111111111111111111111111111
11111111111111111111111111111111111111111111111111111111111111111111111111111111111111111111111111111111111111111111111111111111
11100000000010000000001000000000100000000100000000010000000001111110000000001000000000100000000010000000010000000001000000000111
11100001100010000110001000011000100001000000001100010000110001111110000110001000011000100001100010000100000000110001000011000111
11100000000010000000001000000000100000000000000000010000000001111110000000001000000000100000000010000000000000000001000000000111
11110101000011010100001101010000110101000010101000011010100001111111010100001101010000110101000011010100001010100001101010000111
11110000000111000000011100000001110000000010000000111000000011111111000000011100000001110000000111000000001000000011100000001111
11110001000111000100011100010001110001000010001000111000100011111111000100011100010001110001000111000100001000100011100010001111
11110000000111000000011100000001110000000110000000111000000011111111000000011100000001110000000111000000011000000011100000001111
11110101000111010100001101010000110101111110101000111010100001111111010100011101010000110101000011010111111010100011101010000111
11100000011110000000001000000000100000111100000011110000000001111110000001111000000000100000000010000011110000001111000000000111
11100000011110000110001000011000100000111100000011110000110001111110000001111000011000100001100010000011110000001111000011000111
11100000011110000000001000000000100000111100000011110000000001111110000001111000000000100000000010000011110000001111000000000111
11111111111111111111111111111111111111111111111111111111111111111111111111111111111111111111111111111111111111111111111111111111
11111111111111111111111111111111111111111111111111111111111111111111111111111111111111111111111111111111111111111111111111111111
11111111111111111111111111111111111111111111111111111111111111111111111111111111111111111111111111111111111111111111111111111111
11111111111111111111111111111111111111111111111111111111111111111111111111111111111111111111111111111111111111111111111111111111
11111111111111111111111111111111111111111111111111111111111111111111111111111111111111111111111111111111111111111111111111111111
11111111111111111111111111111111111111111111111111111111111111111111111111111111111111111111111111111111111111111111111111111111
11100000000010000000010000000001000000000100000000010000000011111110000000001000000001000000000100000000010000000001000000001111
11100001100010000100000000110001000011000100001100010000100001111110000110001000010000000011000100001100010000110001000010000111
11100000000010000000000000000001000000000100000000010000000001111110000000001000000000000000000100000000010000000001000000000111
11110101000011010100001010100001101010000110101000011010100001111111010100001101010000101010000110101000011010100001101010000111
11110000000111000000001000000011100000001110000000111000000001111111000000011100000000100000001110000000111000000011100000000111
11110001000111000100001000100011100010001110001000111000100001111111000100011100010000100010001110001000111000100011100010000111
11110000000111000000011000000011100000001110000000111000000011111111000000011100000001100000001110000000111000000011100000001111
11110101000011010111111010100011101010000110101000011010111111111111010100001101011111101010001110101000011010100001101011111111
11100000000010000011110000001111000000000100000000010000011111111110000000001000001111000000111100000000010000000001000001111111
11100001100010000011110000001111000011000100001100010000011111111110000110001000001111000000111100001100010000110001000001111111
11100000000010000011110000001111000000000100000000010000011111111110000000001000001111000000111100000000010000000001000001111111
11111111111111111111111111111111111111111111111111111111111111111111111111111111111111111111111111111111111111111111111111111111
11111111111111111111111111111111111111111111111111111111111111111111111111111111111111111111111111111111111111111111111111111111
11111111111111111111111111111111111111111111111111111111111111111111111111111111111111111111111111111111111111111111111111111111
11111111111111111111111111111111111111111111111111111111111111111111111111111111111111111111111111111111111111111111111111111111
11111111111111111111111111111111111111111111111111111111111111111111111111111111111111111111111111111111111111111111111111111111
11111111111111111111111111111111111111111111111111111111111111111111111111111111111111111111111111111111111111111111111111111111
11100000000010000000001000000000100000000100000000010000000001111110000000001000000000100000000010000000010000000001000000000111
11100001100010000110001000011000100001000000001100010000110001111110000110001000011000100001100010000100000000110001000011000111
11100000000010000000001000000000100000000000000000010000000001111110000000001000000000100000000010000000000000000001000000000111
11110101000011010100001101010000110101000010101000011010100001111111010100001101010000110101000011010100001010100001101010000111
11110000000111000000011100000001110000000010000000111000000011111111000000011100000001110000000111000000001000000011100000001111
11110001000111000100011100010001110001000010001000111000100011111111000100011100010001110001000111000100001000100011100010001111
11110000000111000000011100000001110000000110000000111000000011111111000000011100000001110000000111000000011000000011100000001111
11110101000111010100001101010000110101111110101000111010100001111111010100011101010000110101000011010111111010100011101010000111
11100000011110000000001000000000100000111100000011110000000001111110000001111000000000100000000010000011110000001111000000000111
11100000011110000110001000011000100000111100000011110000110001111110000001111000011000100001100010000011110000001111000011000111
11100000011110000000001000000000100000111100000011110000000001111110000001111000000000100000000010000011110000001111000000000111
11111111111111111111111111111111111111111111111111111111111111111111111111111111111111111111111111111111111111111111111111111111
11111111111111111111111111111111111111111111111111111111111111111111111111111111111111111111111111111111111111111111111111111111
11111111111111111111111111111111111111111111111111111111111111111111111111111111111111111111111111111111111111111111111111111111
11111111111111111111111111111111111111111111111111111111111111111111111111111111111111111111111111111111111111111111111111111111
11111111111111111111111111111111111111111111111111111111111111111111111111111111111111111111111111111111111111111111111111111111
11111111111111111111111111111111111111111111111111111111111111111111111111111111111111111111111111111111111111111111111111111111
11111111111111111111111111111111111111111111111111111111111111111111111111111111111111111111111111111111111111111111111111111111
11111111111111111111111111111111111111111111111111111111111111111111111111111111111111111111111111111111111111111111111111111111
11111111111111111111111111111111111111111111111111111111111111111111111111111111111111111111111111111111111111111111111111111111
11111111111111111111111111111111111111111111111111111111111111111111111111111111111111111111111111111111111111111111111111111111
11111111111111111111111111111111111111111111111111111111111111111111111111111111111111111111111111111111111111111111111111111111
11111111111111111111111111111111111111111111111111111111111111111111111111111111111111111111111111111111111111111111111111111111
11111111111111111111111111111111111111111111111111111111111111111111111111111111111111111111111111111111111111111111111111111111
11111111111111111111111111111111111111111111111111111111111111111111111111111111111111111111111111111111111111111111111111111111
11111111111111111111111111111111111111111111111111111111111111111111111111111111111111111111111111111111111111111111111111111111
11111111111111111111111111111111111111111111111111111111111111111111111111111111111111111111111111111111111111111111111111111111
11111111111111111111111111111111111111111111111111111111111111111111111111111111111111111111111111111111111111111111111111111111
11111111111111111111111111111111111111111111111111111111111111111111111111111111111111111111111111111111111111111111111111111111
11111111111111111111111111111111111111111111111111111111111111111111111111111111111111111111111111111111111111111111111111111111
11100000000010000000001000000000100000000100000000010000000001111110000000001000000000100000000010000000010000000001000000000111
11100001100010000110001000011000100001000000001100010000110001111110000110001000011000100001100010000100000000110001000011000111
11100000000010000000001000000000100000000000000000010000000001111110000000001000000000100000000010000000000000000001000000000111
11110101000011010100001101010000110101000010101000011010100001111111010100001101010000110101000011010100001010100001101010000111
11110000000111000000011100000001110000000010000000111000000011111111000000011100000001110000000111000000001000000011100000001111
11110001000111000100011100010001110001000010001000111000100011111111000100011100010001110001000111000100001000100011100010001111
11110000000111000000011100000001110000000110000000111000000011111111000000011100000001110000000111000000011000000011100000001111
11110101000111010100001101010000110101111110101000111010100001111111010100011101010000110101000011010111111010100011101010000111
11100000011110000000001000000000100000111100000011110000000001111110000001111000000000100000000010000011110000001111000000000111
11100000011110000110001000011000100000111100000011110000110001111110000001111000011000100001100010000011110000001111000011000111
11100000011110000000001000000000100000111100000011110000000001111110000001111000000000100000000010000011110000001111000000000111
11111111111111111111111111111111111111111111111111111111111111111111111111111111111111111111111111111111111111111111111111111111
11111111111111111111111111111111111111111111111111111111111111111111111111111111111111111111111111111111111111111111111111111111
11111111111111111111111111111111111111111111111111111111111111111111111111111111111111111111111111111111111111111111111111111111
11111111111111111111111111111111111111111111111111111111111111111111111111111111111111111111111111111111111111111111111111111111
11111111111111111111111111111111111111111111111111111111111111111111111111111111111111111111111111111111111111111111111111111111
11111111111111111111111111111111111111111111111111111111111111111111111111111111111111111111111111111111111111111111111111111111
11100000000010000000010000000001000000000100000000010000000011111110000000001000000001000000000100000000010000000001000000001111
11100001100010000100000000110001000011000100001100010000100001111110000110001000010000000011000100001100010000110001000010000111
11100000000010000000000000000001000000000100000000010000000001111110000000001000000000000000000100000000010000000001000000000111
11110101000011010100001010100001101010000110101000011010100001111111010100001101010000101010000110101000011010100001101010000111
11110000000111000000001000000011100000001110000000111000000001111111000000011100000000100000001110000000111000000011100000000111
11110001000111000100001000100011100010001110001000111000100001111111000100011100010000100010001110001000111000100011100010000111
11110000000111000000011000000011100000001110000000111000000011111111000000011100000001100000001110000000111000000011100000001111
11110101000011010111111010100011101010000110101000011010111111111111010100001101011111101010001110101000011010100001101011111111
11100000000010000011110000001111000000000100000000010000011111111110000000001000001111000000111100000000010000000001000001111111
11100001100010000011110000001111000011000100001100010000011111111110000110001000001111000000111100001100010000110001000001111111
11100000000010000011110000001111000000000100000000010000011111111110000000001000001111000000111100000000010000000001000001111111
11111111111111111111111111111111111111111111111111111111111111111111111111111111111111111111111111111111111111111111111111111111
11111111111111111111111111111111111111111111111111111111111111111111111111111111111111111111111111111111111111111111111111111111
11111111111111111111111111111111111111111111111111111111111111111111111111111111111111111111111111111111111111111111111111111111
11111111111111111111111111111111111111111111111111111111111111111111111111111111111111111111111111111111111111111111111111111111
11111111111111111111111111111111111111111111111111111111111111111111111111111111111111111111111111111111111111111111111111111111
11111111111111111111111111111111111111111111111111111111111111111111111111111111111111111111111111111111111111111111111111111111
11100000000010000000001000000000100000000100000000010000000001111110000000001000000000100000000010000000010000000001000000000111
11100001100010000110001000011000100001000000001100010000110001111110000110001000011000100001100010000100000000110001000011000111
11100000000010000000001000000000100000000000000000010000000001111110000000001000000000100000000010000000000000000001000000000111
11110101000011010100001101010000110101000010101000011010100001111111010100001101010000110101000011010100001010100001101010000111
11110000000111000000011100000001110000000010000000111000000011111111000000011100000001110000000111000000001000000011100000001111
11110001000111000100011100010001110001000010001000111000100011111111000100011100010001110001000111000100001000100011100010001111
11110000000111000000011100000001110000000110000000111000000011111111000000011100000001110000000111000000011000000011100000001111
11110101000111010100001101010000110101111110101000111010100001111111010100011101010000110101000011010111111010100011101010000111
11100000011110000000001000000000100000111100000011110000000001111110000001111000000000100000000010000011110000001111000000000111
11100000011110000110001000011000100000111100000011110000110001111110000001111000011000100001100010000011110000001111000011000111
11100000011110000000001000000000100000111100000011110000000001111110000001111000000000100000000010000011110000001111000000000111
11111111111111111111111111111111111111111111111111111111111111111111111111111111111111111111111111111111111111111111111111111111
11111111111111111111111111111111111111111111111111111111111111111111111111111111111111111111111111111111111111111111111111111111
11111111111111111111111111111111111111111111111111111111111111111111111111111111111111111111111111111111111111111111111111111111
11111111111111111111111111111111111111111111111111111111111111111111111111111111111111111111111111111111111111111111111111111111
11111111111111111111111111111111111111111111111111111111111111111111111111111111111111111111111111111111111111111111111111111111
11111111111111111111111111111111111111111111111111111111111111111111111111111111111111111111111111111111111111111111111111111111
11111111111111111111111111111111111111111111111111111111111111111111111111111111111111111111111111111111111111111111111111111111
11111111111111111111111111111111111111111111111111111111111111111111111111111111111111111111111111111111111111111111111111111111
11111111111111111111111111111111111111111111111111111111111111111111111111111111111111111111111111111111111111111111111111111111
11111111111111111111111111111111111111111111111111111111111111111111111111111111111111111111111111111111111111111111111111111111
