P1
64 64
1111111111111111111111111111111111111111111111111111111111111111
1111111111111111111111111111111111111111111111111111111111111111
1111111111111111111111111111111111111111111111111111111111111111
1111111111111111111111111111111111111111111111111111111111111111
1111111111111111111111111111111111111111111111111111111111111111
1111111111111111111111111111111111111111111111111111111111111111
1111111111111111111111111111111111111111111111111111111111111111
1111111111111111111111111111111111111111111111111111111111111111
1111111111111111111111111111111111111111111111111111111111111111
1110000000001000000000100000000010000000010000000001000000000111
1110000110001000011000100001100010000100000000110001000011000111
1110000000001000000000100000000010000000000000000001000000000111
1111010100001101010000110101000011010100001010100001101010000111
1111000000011100000001110000000111000000001000000011100000001111
1111000100011100010001110001000111000100001000100011100010001111
1111000000011100000001110000000111000000011000000011100000001111
1111010100011101010000110101000011010111111010100011101010000111
1110000001111000000000100000000010000011110000001111000000000111
1110000001111000011000100001100010000011110000001111000011000111
1110000001111000000000100000000010000011110000001111000000000111
1111111111111111111111111111111111111111111111111111111111111111
1111111111111111111111111111111111111111111111111111111111111111
1111111111111111111111111111111111111111111111111111111111111111
1111111111111111111111111111111111111111111111111111111111111111
1111111111111111111111111111111111111111111111111111111111111111
1111111111111111111111111111111111111111111111111111111111111111
1110000000001000000001000000000100000000010000000001000000001111
1110000110001000010000000011000100001100010000110001000010000111
1110000000001000000000000000000100000000010000000001000000000111
1111010100001101010000101010000110101000011010100001101010000111
1111000000011100000000100000001110000000111000000011100000000111
1111000100011100010000100010001110001000111000100011100010000111
1111000000011100000001100000001110000000111000000011100000001111
1111010100001101011111101010001110101000011010100001101011111111
1110000000001000001111000000111100000000010000000001000001111111
1110000110001000001111000000111100001100010000110001000001111111
1110000000001000001111000000111100000000010000000001000001111111
1111111111111111111111111111111111111111111111111111111111111111
1111111111111111111111111111111111111111111111111111111111111111
1111111111111111111111111111111111111111111111111111111111111111
1111111111111111111111111111111111111111111111111111111111111111
1111111111111111111111111111111111111111111111111111111111111111
1111111111111111111111111111111111111111111111111111111111111111
1110000000001000000000100000000010000000010000000001000000000111
1110000110001000011000100001100010000100000000110001000011000111
1110000000001000000000100000000010000000000000000001000000000111
1111010100001101010000110101000011010100001010100001101010000111
1111000000011100000001110000000111000000001000000011100000001111
1111000100011100010001110001000111000100001000100011100010001111
1111000000011100000001110000000111000000011000000011100000001111
1111010100011101010000110101000011010111111010100011101010000111
1110000001111000000000100000000010000011110000001111000000000111
1110000001111000011000100001100010000011110000001111000011000111
1110000001111000000000100000000010000011110000001111000000000111
1111111111111111111111111111111111111111111111111111111111111111
1111111111111111111111111111111111111111111111111111111111111111
1111111111111111111111111111111111111111111111111111111111111111
1111111111111111111111111111111111111111111111111111111111111111
1111111111111111111111111111111111111111111111111111111111111111
1111111111111111111111111111111111111111111111111111111111111111
1111111111111111111111111111111111111111111111111111111111111111
1111111111111111111111111111111111111111111111111111111111111111
1111111111111111111111111111111111111111111111111111111111111111
1111111111111111111111111111111111111111111111111111111111111111
