P1
64 64
0000000000000000000000000000000000000000000000000000000000000000
0000000000000000000000000000000000000000000000000000000000000000
0000000000000000000000000000000000000000000000000000000000000000
0000000000000000000000000000000000000000000000000000000000000000
0000000000000000000000000000000000000000000000000000000000000000
0000000000000000000000000000000000000000000000000000000000000000
0000000000000000000000000000000000000000000000000000000000000000
0000000000000000000000000000000000000000000000000000000000000000
0000000000000000000000000000000000000000000000000000000000000000
0000000000000000000000000000000000000000000000000000000000000000
0000000000000000000000000000000000000000100000000000000000000000
0000101001000010100100001010010000101010000101001000010100100000
0000000000000000000000000000000000000000000000000000000000000000
0000001010000000101000000010100000001010000001010000000101000000
0000000000000000000000000000000000000000100000000000000000000000
0000001010000000101000000010100000001000000001010000000101000000
0000000000000000000000000000000000000000000000000000000000000000
0000101000000010100100001010010000101000000101000000010100100000
0000000000000000000000000000000000000000000000000000000000000000
0000000000000000000000000000000000000000000000000000000000000000
0000000000000000000000000000000000000000000000000000000000000000
0000000000000000000000000000000000000000000000000000000000000000
0000000000000000000000000000000000000000000000000000000000000000
0000000000000000000000000000000000000000000000000000000000000000
0000000000000000000000000000000000000000000000000000000000000000
0000000000000000000000000000000000000000000000000000000000000000
0000000000000000000000000000000000000000000000000000000000000000
0000000000000000000010000000000000000000000000000000000000010000
0000101001000010101000010100100001010010000101001000010101000000
0000000000000000000000000000000000000000000000000000000000000000
0000001010000000101000000101000000010100000001010000000101000000
0000000000000000000010000000000000000000000000000000000000010000
0000001010000000100000000101000000010100000001010000000100000000
0000000000000000000000000000000000000000000000000000000000000000
0000101001000010100000010100000001010010000101001000010100000000
0000000000000000000000000000000000000000000000000000000000000000
0000000000000000000000000000000000000000000000000000000000000000
0000000000000000000000000000000000000000000000000000000000000000
0000000000000000000000000000000000000000000000000000000000000000
0000000000000000000000000000000000000000000000000000000000000000
0000000000000000000000000000000000000000000000000000000000000000
0000000000000000000000000000000000000000000000000000000000000000
0000000000000000000000000000000000000000000000000000000000000000
0000000000000000000000000000000000000000000000000000000000000000
0000000000000000000000000000000000000000100000000000000000000000
0000101001000010100100001010010000101010000101001000010100100000
0000000000000000000000000000000000000000000000000000000000000000
0000001010000000101000000010100000001010000001010000000101000000
0000000000000000000000000000000000000000100000000000000000000000
0000001010000000101000000010100000001000000001010000000101000000
0000000000000000000000000000000000000000000000000000000000000000
0000101000000010100100001010010000101000000101000000010100100000
0000000000000000000000000000000000000000000000000000000000000000
0000000000000000000000000000000000000000000000000000000000000000
0000000000000000000000000000000000000000000000000000000000000000
0000000000000000000000000000000000000000000000000000000000000000
0000000000000000000000000000000000000000000000000000000000000000
0000000000000000000000000000000000000000000000000000000000000000
0000000000000000000000000000000000000000000000000000000000000000
0000000000000000000000000000000000000000000000000000000000000000
0000000000000000000000000000000000000000000000000000000000000000
0000000000000000000000000000000000000000000000000000000000000000
0000000000000000000000000000000000000000000000000000000000000000
0000000000000000000000000000000000000000000000000000000000000000
