P1
64 448
0000000000000000000000000000000000000000000000000000000000000000
0000000000000000000000000000000000000000000000000000000000000000
0000000000000000000000000000000000000000000000000000000000000000
0000000000000000000000000000000000000000000000000000000000000000
0000000000000000000000000000000000000000000000000000000000000000
0000000000000000000000000000000000000000000000000000000000000000
0000000000000000000000000000000000000000000000000000000000000000
0000000000000000000000000000000000000000000000000000000000000000
0000000000000000000000000000000000000000000000000000000000000000
0000111111100011111110001111111000111111000111111100011111110000
0000100000010010000001001000000100100001100100000010010000001000
0000101111110010111111001011111100101110110101111110010111111000
0000101000000010100000001010000000101001010101000000010100000000
0000101111100010111110001011111000101110110101111100010111110000
0000100000100010000010001000001000100001100100000100010000010000
0000101111100010111110001011111000101111000101111100010111110000
0000101000000010100000001010000000101000000101000000010100000000
0000101100000010111111001011111100101000000101100000010111111000
0000100000000010000001001000000100101000000100000000010000001000
0000111100000011111110001111111000111000000111100000011111110000
0000000000000000000000000000000000000000000000000000000000000000
0000000000000000000000000000000000000000000000000000000000000000
0000000000000000000000000000000000000000000000000000000000000000
0000000000000000000000000000000000000000000000000000000000000000
0000000000000000000000000000000000000000000000000000000000000000
0000000000000000000000000000000000000000000000000000000000000000
0000111111100011111100011111110001111111000111111100011111100000
0000100000010010000110010000001001000000100100000010010000110000
0000101111110010111011010111111001011111100101111110010111011000
0000101000000010100101010100000001010000000101000000010100101000
0000101111100010111011010111110001011111000101111100010111011000
0000100000100010000110010000010001000001000100000100010000110000
0000101111100010111100010111110001011111000101111100010111100000
0000101000000010100000010100000001010000000101000000010100000000
0000101111110010100000010110000001011111100101111110010100000000
0000100000010010100000010000000001000000100100000010010100000000
0000111111100011100000011110000001111111000111111100011100000000
0000000000000000000000000000000000000000000000000000000000000000
0000000000000000000000000000000000000000000000000000000000000000
0000000000000000000000000000000000000000000000000000000000000000
0000000000000000000000000000000000000000000000000000000000000000
0000000000000000000000000000000000000000000000000000000000000000
0000000000000000000000000000000000000000000000000000000000000000
0000111111100011111110001111111000111111000111111100011111110000
0000100000010010000001001000000100100001100100000010010000001000
0000101111110010111111001011111100101110110101111110010111111000
0000101000000010100000001010000000101001010101000000010100000000
0000101111100010111110001011111000101110110101111100010111110000
0000100000100010000010001000001000100001100100000100010000010000
0000101111100010111110001011111000101111000101111100010111110000
0000101000000010100000001010000000101000000101000000010100000000
0000101100000010111111001011111100101000000101100000010111111000
0000100000000010000001001000000100101000000100000000010000001000
0000111100000011111110001111111000111000000111100000011111110000
0000000000000000000000000000000000000000000000000000000000000000
0000000000000000000000000000000000000000000000000000000000000000
0000000000000000000000000000000000000000000000000000000000000000
0000000000000000000000000000000000000000000000000000000000000000
0000000000000000000000000000000000000000000000000000000000000000
0000000000000000000000000000000000000000000000000000000000000000
0000000000000000000000000000000000000000000000000000000000000000
0000000000000000000000000000000000000000000000000000000000000000
0000000000000000000000000000000000000000000000000000000000000000
0000000000000000000000000000000000000000000000000000000000000000
0000000000000000000000000000000000000000000000000000000000000000
0000000000000000000000000000000000000000000000000000000000000000
0000000000000000000000000000000000000000000000000000000000000000
0000000000000000000000000000000000000000000000000000000000000000
0000000000000000000000000000000000000000000000000000000000000000
0000000000000000000000000000000000000000000000000000000000000000
0000000000000000000000000000000000000000000000000000000000000000
0000000000000000000000000000000000000000000000000000000000000000
0000000000000000000000000000000000000000000000000000000000000000
0000111111100011111110001111111000111111000111111100011111110000
0000100000010010000001001000000100100001100100000010010000001000
0000101111110010111111001011111100101110110101111110010111111000
0000101000000010100000001010000000101001010101000000010100000000
0000101111100010111110001011111000101110110101111100010111110000
0000100000100010000010001000001000100001100100000100010000010000
0000101111100010111110001011111000101111000101111100010111110000
0000101000000010100000001010000000101000000101000000010100000000
0000101100000010111111001011111100101000000101100000010111111000
0000100000000010000001001000000100101000000100000000010000001000
0000111100000011111110001111111000111000000111100000011111110000
0000000000000000000000000000000000000000000000000000000000000000
0000000000000000000000000000000000000000000000000000000000000000
0000000000000000000000000000000000000000000000000000000000000000
0000000000000000000000000000000000000000000000000000000000000000
0000000000000000000000000000000000000000000000000000000000000000
0000000000000000000000000000000000000000000000000000000000000000
0000111111100011111100011111110001111111000111111100011111100000
0000100000010010000110010000001001000000100100000010010000110000
0000101111110010111011010111111001011111100101111110010111011000
0000101000000010100101010100000001010000000101000000010100101000
0000101111100010111011010111110001011111000101111100010111011000
0000100000100010000110010000010001000001000100000100010000110000
0000101111100010111100010111110001011111000101111100010111100000
0000101000000010100000010100000001010000000101000000010100000000
0000101111110010100000010110000001011111100101111110010100000000
0000100000010010100000010000000001000000100100000010010100000000
0000111111100011100000011110000001111111000111111100011100000000
0000000000000000000000000000000000000000000000000000000000000000
0000000000000000000000000000000000000000000000000000000000000000
0000000000000000000000000000000000000000000000000000000000000000
0000000000000000000000000000000000000000000000000000000000000000
0000000000000000000000000000000000000000000000000000000000000000
0000000000000000000000000000000000000000000000000000000000000000
0000111111100011111110001111111000111111000111111100011111110000
0000100000010010000001001000000100100001100100000010010000001000
0000101111110010111111001011111100101110110101111110010111111000
0000101000000010100000001010000000101001010101000000010100000000
0000101111100010111110001011111000101110110101111100010111110000
0000100000100010000010001000001000100001100100000100010000010000
0000101111100010111110001011111000101111000101111100010111110000
0000101000000010100000001010000000101000000101000000010100000000
0000101100000010111111001011111100101000000101100000010111111000
0000100000000010000001001000000100101000000100000000010000001000
0000111100000011111110001111111000111000000111100000011111110000
0000000000000000000000000000000000000000000000000000000000000000
0000000000000000000000000000000000000000000000000000000000000000
0000000000000000000000000000000000000000000000000000000000000000
0000000000000000000000000000000000000000000000000000000000000000
0000000000000000000000000000000000000000000000000000000000000000
0000000000000000000000000000000000000000000000000000000000000000
0000000000000000000000000000000000000000000000000000000000000000
0000000000000000000000000000000000000000000000000000000000000000
0000000000000000000000000000000000000000000000000000000000000000
0000000000000000000000000000000000000000000000000000000000000000
0000000000000000000000000000000000000000000000000000000000000000
0000000000000000000000000000000000000000000000000000000000000000
0000000000000000000000000000000000000000000000000000000000000000
0000000000000000000000000000000000000000000000000000000000000000
0000000000000000000000000000000000000000000000000000000000000000
0000000000000000000000000000000000000000000000000000000000000000
0000000000000000000000000000000000000000000000000000000000000000
0000000000000000000000000000000000000000000000000000000000000000
0000000000000000000000000000000000000000000000000000000000000000
0000111111100011111110001111111000111111000111111100011111110000
0000100000010010000001001000000100100001100100000010010000001000
0000101111110010111111001011111100101110110101111110010111111000
0000101000000010100000001010000000101001010101000000010100000000
0000101111100010111110001011111000101110110101111100010111110000
0000100000100010000010001000001000100001100100000100010000010000
0000101111100010111110001011111000101111000101111100010111110000
0000101000000010100000001010000000101000000101000000010100000000
0000101100000010111111001011111100101000000101100000010111111000
0000100000000010000001001000000100101000000100000000010000001000
0000111100000011111110001111111000111000000111100000011111110000
0000000000000000000000000000000000000000000000000000000000000000
0000000000000000000000000000000000000000000000000000000000000000
0000000000000000000000000000000000000000000000000000000000000000
0000000000000000000000000000000000000000000000000000000000000000
0000000000000000000000000000000000000000000000000000000000000000
0000000000000000000000000000000000000000000000000000000000000000
0000111111100011111100011111110001111111000111111100011111100000
0000100000010010000110010000001001000000100100000010010000110000
0000101111110010111011010111111001011111100101111110010111011000
0000101000000010100101010100000001010000000101000000010100101000
0000101111100010111011010111110001011111000101111100010111011000
0000100000100010000110010000010001000001000100000100010000110000
0000101111100010111100010111110001011111000101111100010111100000
0000101000000010100000010100000001010000000101000000010100000000
0000101111110010100000010110000001011111100101111110010100000000
0000100000010010100000010000000001000000100100000010010100000000
0000111111100011100000011110000001111111000111111100011100000000
0000000000000000000000000000000000000000000000000000000000000000
0000000000000000000000000000000000000000000000000000000000000000
0000000000000000000000000000000000000000000000000000000000000000
0000000000000000000000000000000000000000000000000000000000000000
0000000000000000000000000000000000000000000000000000000000000000
0000000000000000000000000000000000000000000000000000000000000000
0000111111100011111110001111111000111111000111111100011111110000
0000100000010010000001001000000100100001100100000010010000001000
0000101111110010111111001011111100101110110101111110010111111000
0000101000000010100000001010000000101001010101000000010100000000
0000101111100010111110001011111000101110110101111100010111110000
0000100000100010000010001000001000100001100100000100010000010000
0000101111100010111110001011111000101111000101111100010111110000
0000101000000010100000001010000000101000000101000000010100000000
0000101100000010111111001011111100101000000101100000010111111000
0000100000000010000001001000000100101000000100000000010000001000
0000111100000011111110001111111000111000000111100000011111110000
0000000000000000000000000000000000000000000000000000000000000000
0000000000000000000000000000000000000000000000000000000000000000
0000000000000000000000000000000000000000000000000000000000000000
0000000000000000000000000000000000000000000000000000000000000000
0000000000000000000000000000000000000000000000000000000000000000
0000000000000000000000000000000000000000000000000000000000000000
0000000000000000000000000000000000000000000000000000000000000000
0000000000000000000000000000000000000000000000000000000000000000
0000000000000000000000000000000000000000000000000000000000000000
0000000000000000000000000000000000000000000000000000000000000000
0000000000000000000000000000000000000000000000000000000000000000
0000000000000000000000000000000000000000000000000000000000000000
0000000000000000000000000000000000000000000000000000000000000000
0000000000000000000000000000000000000000000000000000000000000000
0000000000000000000000000000000000000000000000000000000000000000
0000000000000000000000000000000000000000000000000000000000000000
0000000000000000000000000000000000000000000000000000000000000000
0000000000000000000000000000000000000000000000000000000000000000
0000000000000000000000000000000000000000000000000000000000000000
0000111111100011111110001111111000111111000111111100011111110000
0000100000010010000001001000000100100001100100000010010000001000
0000101111110010111111001011111100101110110101111110010111111000
0000101000000010100000001010000000101001010101000000010100000000
0000101111100010111110001011111000101110110101111100010111110000
0000100000100010000010001000001000100001100100000100010000010000
0000101111100010111110001011111000101111000101111100010111110000
0000101000000010100000001010000000101000000101000000010100000000
0000101100000010111111001011111100101000000101100000010111111000
0000100000000010000001001000000100101000000100000000010000001000
0000111100000011111110001111111000111000000111100000011111110000
0000000000000000000000000000000000000000000000000000000000000000
0000000000000000000000000000000000000000000000000000000000000000
0000000000000000000000000000000000000000000000000000000000000000
0000000000000000000000000000000000000000000000000000000000000000
0000000000000000000000000000000000000000000000000000000000000000
0000000000000000000000000000000000000000000000000000000000000000
0000111111100011111100011111110001111111000111111100011111100000
0000100000010010000110010000001001000000100100000010010000110000
0000101111110010111011010111111001011111100101111110010111011000
0000101000000010100101010100000001010000000101000000010100101000
0000101111100010111011010111110001011111000101111100010111011000
0000100000100010000110010000010001000001000100000100010000110000
0000101111100010111100010111110001011111000101111100010111100000
0000101000000010100000010100000001010000000101000000010100000000
0000101111110010100000010110000001011111100101111110010100000000
0000100000010010100000010000000001000000100100000010010100000000
0000111111100011100000011110000001111111000111111100011100000000
0000000000000000000000000000000000000000000000000000000000000000
0000000000000000000000000000000000000000000000000000000000000000
0000000000000000000000000000000000000000000000000000000000000000
0000000000000000000000000000000000000000000000000000000000000000
0000000000000000000000000000000000000000000000000000000000000000
0000000000000000000000000000000000000000000000000000000000000000
0000111111100011111110001111111000111111000111111100011111110000
0000100000010010000001001000000100100001100100000010010000001000
0000101111110010111111001011111100101110110101111110010111111000
0000101000000010100000001010000000101001010101000000010100000000
0000101111100010111110001011111000101110110101111100010111110000
0000100000100010000010001000001000100001100100000100010000010000
0000101111100010111110001011111000101111000101111100010111110000
0000101000000010100000001010000000101000000101000000010100000000
0000101100000010111111001011111100101000000101100000010111111000
0000100000000010000001001000000100101000000100000000010000001000
0000111100000011111110001111111000111000000111100000011111110000
0000000000000000000000000000000000000000000000000000000000000000
0000000000000000000000000000000000000000000000000000000000000000
0000000000000000000000000000000000000000000000000000000000000000
0000000000000000000000000000000000000000000000000000000000000000
0000000000000000000000000000000000000000000000000000000000000000
0000000000000000000000000000000000000000000000000000000000000000
0000000000000000000000000000000000000000000000000000000000000000
0000000000000000000000000000000000000000000000000000000000000000
0000000000000000000000000000000000000000000000000000000000000000
0000000000000000000000000000000000000000000000000000000000000000
0000000000000000000000000000000000000000000000000000000000000000
0000000000000000000000000000000000000000000000000000000000000000
0000000000000000000000000000000000000000000000000000000000000000
0000000000000000000000000000000000000000000000000000000000000000
0000000000000000000000000000000000000000000000000000000000000000
0000000000000000000000000000000000000000000000000000000000000000
0000000000000000000000000000000000000000000000000000000000000000
0000000000000000000000000000000000000000000000000000000000000000
0000000000000000000000000000000000000000000000000000000000000000
0000111111100011111110001111111000111111000111111100011111110000
0000100000010010000001001000000100100001100100000010010000001000
0000101111110010111111001011111100101110110101111110010111111000
0000101000000010100000001010000000101001010101000000010100000000
0000101111100010111110001011111000101110110101111100010111110000
0000100000100010000010001000001000100001100100000100010000010000
0000101111100010111110001011111000101111000101111100010111110000
0000101000000010100000001010000000101000000101000000010100000000
0000101100000010111111001011111100101000000101100000010111111000
0000100000000010000001001000000100101000000100000000010000001000
0000111100000011111110001111111000111000000111100000011111110000
0000000000000000000000000000000000000000000000000000000000000000
0000000000000000000000000000000000000000000000000000000000000000
0000000000000000000000000000000000000000000000000000000000000000
0000000000000000000000000000000000000000000000000000000000000000
0000000000000000000000000000000000000000000000000000000000000000
0000000000000000000000000000000000000000000000000000000000000000
0000111111100011111100011111110001111111000111111100011111100000
0000100000010010000110010000001001000000100100000010010000110000
0000101111110010111011010111111001011111100101111110010111011000
0000101000000010100101010100000001010000000101000000010100101000
0000101111100010111011010111110001011111000101111100010111011000
0000100000100010000110010000010001000001000100000100010000110000
0000101111100010111100010111110001011111000101111100010111100000
0000101000000010100000010100000001010000000101000000010100000000
0000101111110010100000010110000001011111100101111110010100000000
0000100000010010100000010000000001000000100100000010010100000000
0000111111100011100000011110000001111111000111111100011100000000
0000000000000000000000000000000000000000000000000000000000000000
0000000000000000000000000000000000000000000000000000000000000000
0000000000000000000000000000000000000000000000000000000000000000
0000000000000000000000000000000000000000000000000000000000000000
0000000000000000000000000000000000000000000000000000000000000000
0000000000000000000000000000000000000000000000000000000000000000
0000111111100011111110001111111000111111000111111100011111110000
0000100000010010000001001000000100100001100100000010010000001000
0000101111110010111111001011111100101110110101111110010111111000
0000101000000010100000001010000000101001010101000000010100000000
0000101111100010111110001011111000101110110101111100010111110000
0000100000100010000010001000001000100001100100000100010000010000
0000101111100010111110001011111000101111000101111100010111110000
0000101000000010100000001010000000101000000101000000010100000000
0000101100000010111111001011111100101000000101100000010111111000
0000100000000010000001001000000100101000000100000000010000001000
0000111100000011111110001111111000111000000111100000011111110000
0000000000000000000000000000000000000000000000000000000000000000
0000000000000000000000000000000000000000000000000000000000000000
0000000000000000000000000000000000000000000000000000000000000000
0000000000000000000000000000000000000000000000000000000000000000
0000000000000000000000000000000000000000000000000000000000000000
0000000000000000000000000000000000000000000000000000000000000000
0000000000000000000000000000000000000000000000000000000000000000
0000000000000000000000000000000000000000000000000000000000000000
0000000000000000000000000000000000000000000000000000000000000000
0000000000000000000000000000000000000000000000000000000000000000
0000000000000000000000000000000000000000000000000000000000000000
0000000000000000000000000000000000000000000000000000000000000000
0000000000000000000000000000000000000000000000000000000000000000
0000000000000000000000000000000000000000000000000000000000000000
0000000000000000000000000000000000000000000000000000000000000000
0000000000000000000000000000000000000000000000000000000000000000
0000000000000000000000000000000000000000000000000000000000000000
0000000000000000000000000000000000000000000000000000000000000000
0000000000000000000000000000000000000000000000000000000000000000
0000111111100011111110001111111000111111000111111100011111110000
0000100000010010000001001000000100100001100100000010010000001000
0000101111110010111111001011111100101110110101111110010111111000
0000101000000010100000001010000000101001010101000000010100000000
0000101111100010111110001011111000101110110101111100010111110000
0000100000100010000010001000001000100001100100000100010000010000
0000101111100010111110001011111000101111000101111100010111110000
0000101000000010100000001010000000101000000101000000010100000000
0000101100000010111111001011111100101000000101100000010111111000
0000100000000010000001001000000100101000000100000000010000001000
0000111100000011111110001111111000111000000111100000011111110000
0000000000000000000000000000000000000000000000000000000000000000
0000000000000000000000000000000000000000000000000000000000000000
0000000000000000000000000000000000000000000000000000000000000000
0000000000000000000000000000000000000000000000000000000000000000
0000000000000000000000000000000000000000000000000000000000000000
0000000000000000000000000000000000000000000000000000000000000000
0000111111100011111100011111110001111111000111111100011111100000
0000100000010010000110010000001001000000100100000010010000110000
0000101111110010111011010111111001011111100101111110010111011000
0000101000000010100101010100000001010000000101000000010100101000
0000101111100010111011010111110001011111000101111100010111011000
0000100000100010000110010000010001000001000100000100010000110000
0000101111100010111100010111110001011111000101111100010111100000
0000101000000010100000010100000001010000000101000000010100000000
0000101111110010100000010110000001011111100101111110010100000000
0000100000010010100000010000000001000000100100000010010100000000
0000111111100011100000011110000001111111000111111100011100000000
0000000000000000000000000000000000000000000000000000000000000000
0000000000000000000000000000000000000000000000000000000000000000
0000000000000000000000000000000000000000000000000000000000000000
0000000000000000000000000000000000000000000000000000000000000000
0000000000000000000000000000000000000000000000000000000000000000
0000000000000000000000000000000000000000000000000000000000000000
0000111111100011111110001111111000111111000111111100011111110000
0000100000010010000001001000000100100001100100000010010000001000
0000101111110010111111001011111100101110110101111110010111111000
0000101000000010100000001010000000101001010101000000010100000000
0000101111100010111110001011111000101110110101111100010111110000
0000100000100010000010001000001000100001100100000100010000010000
0000101111100010111110001011111000101111000101111100010111110000
0000101000000010100000001010000000101000000101000000010100000000
0000101100000010111111001011111100101000000101100000010111111000
0000100000000010000001001000000100101000000100000000010000001000
0000111100000011111110001111111000111000000111100000011111110000
0000000000000000000000000000000000000000000000000000000000000000
0000000000000000000000000000000000000000000000000000000000000000
0000000000000000000000000000000000000000000000000000000000000000
0000000000000000000000000000000000000000000000000000000000000000
0000000000000000000000000000000000000000000000000000000000000000
0000000000000000000000000000000000000000000000000000000000000000
0000000000000000000000000000000000000000000000000000000000000000
0000000000000000000000000000000000000000000000000000000000000000
0000000000000000000000000000000000000000000000000000000000000000
0000000000000000000000000000000000000000000000000000000000000000
0000000000000000000000000000000000000000000000000000000000000000
0000000000000000000000000000000000000000000000000000000000000000
0000000000000000000000000000000000000000000000000000000000000000
0000000000000000000000000000000000000000000000000000000000000000
0000000000000000000000000000000000000000000000000000000000000000
0000000000000000000000000000000000000000000000000000000000000000
0000000000000000000000000000000000000000000000000000000000000000
0000000000000000000000000000000000000000000000000000000000000000
0000000000000000000000000000000000000000000000000000000000000000
0000111111100011111110001111111000111111000111111100011111110000
0000100000010010000001001000000100100001100100000010010000001000
0000101111110010111111001011111100101110110101111110010111111000
0000101000000010100000001010000000101001010101000000010100000000
0000101111100010111110001011111000101110110101111100010111110000
0000100000100010000010001000001000100001100100000100010000010000
0000101111100010111110001011111000101111000101111100010111110000
0000101000000010100000001010000000101000000101000000010100000000
0000101100000010111111001011111100101000000101100000010111111000
0000100000000010000001001000000100101000000100000000010000001000
0000111100000011111110001111111000111000000111100000011111110000
0000000000000000000000000000000000000000000000000000000000000000
0000000000000000000000000000000000000000000000000000000000000000
0000000000000000000000000000000000000000000000000000000000000000
0000000000000000000000000000000000000000000000000000000000000000
0000000000000000000000000000000000000000000000000000000000000000
0000000000000000000000000000000000000000000000000000000000000000
0000111111100011111100011111110001111111000111111100011111100000
0000100000010010000110010000001001000000100100000010010000110000
0000101111110010111011010111111001011111100101111110010111011000
0000101000000010100101010100000001010000000101000000010100101000
0000101111100010111011010111110001011111000101111100010111011000
0000100000100010000110010000010001000001000100000100010000110000
0000101111100010111100010111110001011111000101111100010111100000
0000101000000010100000010100000001010000000101000000010100000000
0000101111110010100000010110000001011111100101111110010100000000
0000100000010010100000010000000001000000100100000010010100000000
0000111111100011100000011110000001111111000111111100011100000000
0000000000000000000000000000000000000000000000000000000000000000
0000000000000000000000000000000000000000000000000000000000000000
0000000000000000000000000000000000000000000000000000000000000000
0000000000000000000000000000000000000000000000000000000000000000
0000000000000000000000000000000000000000000000000000000000000000
0000000000000000000000000000000000000000000000000000000000000000
0000111111100011111110001111111000111111000111111100011111110000
0000100000010010000001001000000100100001100100000010010000001000
0000101111110010111111001011111100101110110101111110010111111000
0000101000000010100000001010000000101001010101000000010100000000
0000101111100010111110001011111000101110110101111100010111110000
0000100000100010000010001000001000100001100100000100010000010000
0000101111100010111110001011111000101111000101111100010111110000
0000101000000010100000001010000000101000000101000000010100000000
0000101100000010111111001011111100101000000101100000010111111000
0000100000000010000001001000000100101000000100000000010000001000
0000111100000011111110001111111000111000000111100000011111110000
0000000000000000000000000000000000000000000000000000000000000000
0000000000000000000000000000000000000000000000000000000000000000
0000000000000000000000000000000000000000000000000000000000000000
0000000000000000000000000000000000000000000000000000000000000000
0000000000000000000000000000000000000000000000000000000000000000
0000000000000000000000000000000000000000000000000000000000000000
0000000000000000000000000000000000000000000000000000000000000000
0000000000000000000000000000000000000000000000000000000000000000
0000000000000000000000000000000000000000000000000000000000000000
0000000000000000000000000000000000000000000000000000000000000000
