P1
256 64
0000000000000000000000000000000000000000000000000000000000000000000000000000000000000000000000000000000000000000000000000000000000000000000000000000000000000000000000000000000000000000000000000000000000000000000000000000000000000000000000000000000000000000
0000000000000000000000000000000000000000000000000000000000000000000000000000000000000000000000000000000000000000000000000000000000000000000000000000000000000000000000000000000000000000000000000000000000000000000000000000000000000000000000000000000000000000
0000000000000000000000000000000000000000000000000000000000000000000000000000000000000000000000000000000000000000000000000000000000000000000000000000000000000000000000000000000000000000000000000000000000000000000000000000000000000000000000000000000000000000
0000000000000000000000000000000000000000000000000000000000000000000000000000000000000000000000000000000000000000000000000000000000000000000000000000000000000000000000000000000000000000000000000000000000000000000000000000000000000000000000000000000000000000
0000000000000000000000000000000000000000000000000000000000000000000000000000000000000000000000000000000000000000000000000000000000000000000000000000000000000000000000000000000000000000000000000000000000000000000000000000000000000000000000000000000000000000
0000000000000000000000000000000000000000000000000000000000000000000000000000000000000000000000000000000000000000000000000000000000000000000000000000000000000000000000000000000000000000000000000000000000000000000000000000000000000000000000000000000000000000
0000000000000000000000000000000000000000000000000000000000000000000000000000000000000000000000000000000000000000000000000000000000000000000000000000000000000000000000000000000000000000000000000000000000000000000000000000000000000000000000000000000000000000
0000000000000000000000000000000000000000000000000000000000000000000000000000000000000000000000000000000000000000000000000000000000000000000000000000000000000000000000000000000000000000000000000000000000000000000000000000000000000000000000000000000000000000
0000000000000000000000000000000000000000000000000000000000000000000000000000000000000000000000000000000000000000000000000000000000000000000000000000000000000000000000000000000000000000000000000000000000000000000000000000000000000000000000000000000000000000
0000111111100011111110001111111000111111000111111100011111110000000011111110001111111000111111100011111100011111110001111111000000001111111000111111100011111110001111110001111111000111111100000000111111100011111110001111111000111111000111111100011111110000
0000100000110010000011001000001100100001100100000110010000011000000010000011001000001100100000110010000110010000011001000001100000001000001100100000110010000011001000011001000001100100000110000000100000110010000011001000001100100001100100000110010000011000
0000101111110010111111001011111100101111110101111110010111111000000010111111001011111100101111110010111111010111111001011111100000001011111100101111110010111111001011111101011111100101111110000000101111110010111111001011111100101111110101111110010111111000
0000101000000010100000001010000000101001010101000000010100000000000010100000001010000000101000000010100101010100000001010000000000001010000000101000000010100000001010010101010000000101000000000000101000000010100000001010000000101001010101000000010100000000
0000101111100010111110001011111000101111110101111100010111110000000010111110001011111000101111100010111111010111110001011111000000001011111000101111100010111110001011111101011111000101111100000000101111100010111110001011111000101111110101111100010111110000
0000100000100010000010001000001000100001100100000100010000010000000010000010001000001000100000100010000110010000010001000001000000001000001000100000100010000010001000011001000001000100000100000000100000100010000010001000001000100001100100000100010000010000
0000101111100010111110001011111000101111000101111100010111110000000010111110001011111000101111100010111100010111110001011111000000001011111000101111100010111110001011110001011111000101111100000000101111100010111110001011111000101111000101111100010111110000
0000101000000010100000001010000000101000000101000000010100000000000010100000001010000000101000000010100000010100000001010000000000001010000000101000000010100000001010000001010000000101000000000000101000000010100000001010000000101000000101000000010100000000
0000101100000010111111001011111100101000000101100000010111111000000010110000001011111100101111110010100000010110000001011111100000001011000000101111110010111111001010000001011000000101111110000000101100000010111111001011111100101000000101100000010111111000
0000100000000010000011001000001100101000000100000000010000011000000010000000001000001100100000110010100000010000000001000001100000001000000000100000110010000011001010000001000000000100000110000000100000000010000011001000001100101000000100000000010000011000
0000111100000011111110001111111000111000000111100000011111110000000011110000001111111000111111100011100000011110000001111111000000001111000000111111100011111110001110000001111000000111111100000000111100000011111110001111111000111000000111100000011111110000
0000000000000000000000000000000000000000000000000000000000000000000000000000000000000000000000000000000000000000000000000000000000000000000000000000000000000000000000000000000000000000000000000000000000000000000000000000000000000000000000000000000000000000
0000000000000000000000000000000000000000000000000000000000000000000000000000000000000000000000000000000000000000000000000000000000000000000000000000000000000000000000000000000000000000000000000000000000000000000000000000000000000000000000000000000000000000
0000000000000000000000000000000000000000000000000000000000000000000000000000000000000000000000000000000000000000000000000000000000000000000000000000000000000000000000000000000000000000000000000000000000000000000000000000000000000000000000000000000000000000
0000000000000000000000000000000000000000000000000000000000000000000000000000000000000000000000000000000000000000000000000000000000000000000000000000000000000000000000000000000000000000000000000000000000000000000000000000000000000000000000000000000000000000
0000000000000000000000000000000000000000000000000000000000000000000000000000000000000000000000000000000000000000000000000000000000000000000000000000000000000000000000000000000000000000000000000000000000000000000000000000000000000000000000000000000000000000
0000000000000000000000000000000000000000000000000000000000000000000000000000000000000000000000000000000000000000000000000000000000000000000000000000000000000000000000000000000000000000000000000000000000000000000000000000000000000000000000000000000000000000
0000111111100011111100011111110001111111000111111100011111100000000011111110001111110001111111000111111100011111110001111110000000001111111000111111000111111100011111110001111111000111111000000000111111100011111100011111110001111111000111111100011111100000
0000100000110010000110010000011001000001100100000110010000110000000010000011001000011001000001100100000110010000011001000011000000001000001100100001100100000110010000011001000001100100001100000000100000110010000110010000011001000001100100000110010000110000
0000101111110010111111010111111001011111100101111110010111111000000010111111001011111101011111100101111110010111111001011111100000001011111100101111110101111110010111111001011111100101111110000000101111110010111111010111111001011111100101111110010111111000
0000101000000010100101010100000001010000000101000000010100101000000010100000001010010101010000000101000000010100000001010010100000001010000000101001010101000000010100000001010000000101001010000000101000000010100101010100000001010000000101000000010100101000
0000101111100010111111010111110001011111000101111100010111111000000010111110001011111101011111000101111100010111110001011111100000001011111000101111110101111100010111110001011111000101111110000000101111100010111111010111110001011111000101111100010111111000
0000100000100010000110010000010001000001000100000100010000110000000010000010001000011001000001000100000100010000010001000011000000001000001000100001100100000100010000010001000001000100001100000000100000100010000110010000010001000001000100000100010000110000
0000101111100010111100010111110001011111000101111100010111100000000010111110001011110001011111000101111100010111110001011110000000001011111000101111000101111100010111110001011111000101111000000000101111100010111100010111110001011111000101111100010111100000
0000101000000010100000010100000001010000000101000000010100000000000010100000001010000001010000000101000000010100000001010000000000001010000000101000000101000000010100000001010000000101000000000000101000000010100000010100000001010000000101000000010100000000
0000101111110010100000010110000001011111100101111110010100000000000010111111001010000001011000000101111110010111111001010000000000001011111100101000000101100000010111111001011111100101000000000000101111110010100000010110000001011111100101111110010100000000
0000100000110010100000010000000001000001100100000110010100000000000010000011001010000001000000000100000110010000011001010000000000001000001100101000000100000000010000011001000001100101000000000000100000110010100000010000000001000001100100000110010100000000
0000111111100011100000011110000001111111000111111100011100000000000011111110001110000001111000000111111100011111110001110000000000001111111000111000000111100000011111110001111111000111000000000000111111100011100000011110000001111111000111111100011100000000
0000000000000000000000000000000000000000000000000000000000000000000000000000000000000000000000000000000000000000000000000000000000000000000000000000000000000000000000000000000000000000000000000000000000000000000000000000000000000000000000000000000000000000
0000000000000000000000000000000000000000000000000000000000000000000000000000000000000000000000000000000000000000000000000000000000000000000000000000000000000000000000000000000000000000000000000000000000000000000000000000000000000000000000000000000000000000
0000000000000000000000000000000000000000000000000000000000000000000000000000000000000000000000000000000000000000000000000000000000000000000000000000000000000000000000000000000000000000000000000000000000000000000000000000000000000000000000000000000000000000
0000000000000000000000000000000000000000000000000000000000000000000000000000000000000000000000000000000000000000000000000000000000000000000000000000000000000000000000000000000000000000000000000000000000000000000000000000000000000000000000000000000000000000
0000000000000000000000000000000000000000000000000000000000000000000000000000000000000000000000000000000000000000000000000000000000000000000000000000000000000000000000000000000000000000000000000000000000000000000000000000000000000000000000000000000000000000
0000000000000000000000000000000000000000000000000000000000000000000000000000000000000000000000000000000000000000000000000000000000000000000000000000000000000000000000000000000000000000000000000000000000000000000000000000000000000000000000000000000000000000
0000111111100011111110001111111000111111000111111100011111110000000011111110001111111000111111100011111100011111110001111111000000001111111000111111100011111110001111110001111111000111111100000000111111100011111110001111111000111111000111111100011111110000
0000100000110010000011001000001100100001100100000110010000011000000010000011001000001100100000110010000110010000011001000001100000001000001100100000110010000011001000011001000001100100000110000000100000110010000011001000001100100001100100000110010000011000
0000101111110010111111001011111100101111110101111110010111111000000010111111001011111100101111110010111111010111111001011111100000001011111100101111110010111111001011111101011111100101111110000000101111110010111111001011111100101111110101111110010111111000
0000101000000010100000001010000000101001010101000000010100000000000010100000001010000000101000000010100101010100000001010000000000001010000000101000000010100000001010010101010000000101000000000000101000000010100000001010000000101001010101000000010100000000
0000101111100010111110001011111000101111110101111100010111110000000010111110001011111000101111100010111111010111110001011111000000001011111000101111100010111110001011111101011111000101111100000000101111100010111110001011111000101111110101111100010111110000
0000100000100010000010001000001000100001100100000100010000010000000010000010001000001000100000100010000110010000010001000001000000001000001000100000100010000010001000011001000001000100000100000000100000100010000010001000001000100001100100000100010000010000
0000101111100010111110001011111000101111000101111100010111110000000010111110001011111000101111100010111100010111110001011111000000001011111000101111100010111110001011110001011111000101111100000000101111100010111110001011111000101111000101111100010111110000
0000101000000010100000001010000000101000000101000000010100000000000010100000001010000000101000000010100000010100000001010000000000001010000000101000000010100000001010000001010000000101000000000000101000000010100000001010000000101000000101000000010100000000
0000101100000010111111001011111100101000000101100000010111111000000010110000001011111100101111110010100000010110000001011111100000001011000000101111110010111111001010000001011000000101111110000000101100000010111111001011111100101000000101100000010111111000
0000100000000010000011001000001100101000000100000000010000011000000010000000001000001100100000110010100000010000000001000001100000001000000000100000110010000011001010000001000000000100000110000000100000000010000011001000001100101000000100000000010000011000
0000111100000011111110001111111000111000000111100000011111110000000011110000001111111000111111100011100000011110000001111111000000001111000000111111100011111110001110000001111000000111111100000000111100000011111110001111111000111000000111100000011111110000
0000000000000000000000000000000000000000000000000000000000000000000000000000000000000000000000000000000000000000000000000000000000000000000000000000000000000000000000000000000000000000000000000000000000000000000000000000000000000000000000000000000000000000
0000000000000000000000000000000000000000000000000000000000000000000000000000000000000000000000000000000000000000000000000000000000000000000000000000000000000000000000000000000000000000000000000000000000000000000000000000000000000000000000000000000000000000
0000000000000000000000000000000000000000000000000000000000000000000000000000000000000000000000000000000000000000000000000000000000000000000000000000000000000000000000000000000000000000000000000000000000000000000000000000000000000000000000000000000000000000
0000000000000000000000000000000000000000000000000000000000000000000000000000000000000000000000000000000000000000000000000000000000000000000000000000000000000000000000000000000000000000000000000000000000000000000000000000000000000000000000000000000000000000
0000000000000000000000000000000000000000000000000000000000000000000000000000000000000000000000000000000000000000000000000000000000000000000000000000000000000000000000000000000000000000000000000000000000000000000000000000000000000000000000000000000000000000
0000000000000000000000000000000000000000000000000000000000000000000000000000000000000000000000000000000000000000000000000000000000000000000000000000000000000000000000000000000000000000000000000000000000000000000000000000000000000000000000000000000000000000
0000000000000000000000000000000000000000000000000000000000000000000000000000000000000000000000000000000000000000000000000000000000000000000000000000000000000000000000000000000000000000000000000000000000000000000000000000000000000000000000000000000000000000
0000000000000000000000000000000000000000000000000000000000000000000000000000000000000000000000000000000000000000000000000000000000000000000000000000000000000000000000000000000000000000000000000000000000000000000000000000000000000000000000000000000000000000
0000000000000000000000000000000000000000000000000000000000000000000000000000000000000000000000000000000000000000000000000000000000000000000000000000000000000000000000000000000000000000000000000000000000000000000000000000000000000000000000000000000000000000
0000000000000000000000000000000000000000000000000000000000000000000000000000000000000000000000000000000000000000000000000000000000000000000000000000000000000000000000000000000000000000000000000000000000000000000000000000000000000000000000000000000000000000
