P1
128 64
00000000000000000000000000000000000000000000000000000000000000000000000000000000000000000000000000000000000000000000000000000000
00000000000000000000000000000000000000000000000000000000000000000000000000000000000000000000000000000000000000000000000000000000
00000000000000000000000000000000000000000000000000000000000000000000000000000000000000000000000000000000000000000000000000000000
00000000000000000000000000000000000000000000000000000000000000000000000000000000000000000000000000000000000000000000000000000000
00000000000000000000000000000000000000000000000000000000000000000000000000000000000000000000000000000000000000000000000000000000
00000000000000000000000000000000000000000000000000000000000000000000000000000000000000000000000000000000000000000000000000000000
00000000000000000000000000000000000000000000000000000000000000000000000000000000000000000000000000000000000000000000000000000000
00000000000000000000000000000000000000000000000000000000000000000000000000000000000000000000000000000000000000000000000000000000
00000000000000000000000000000000000000000000000000000000000000000000000000000000000000000000000000000000000000000000000000000000
00001111111000111111100011111110001111110001111111000111111100000000111111100011111110001111111000111111000111111100011111110000
00001000000100100000010010000001001000011001000000100100000010000000100000010010000001001000000100100001100100000010010000001000
00001011111100101111110010111111001011101101011111100101111110000000101111110010111111001011111100101110110101111110010111111000
00001010000000101000000010100000001010010101010000000101000000000000101000000010100000001010000000101001010101000000010100000000
00001011111000101111100010111110001011101101011111000101111100000000101111100010111110001011111000101110110101111100010111110000
00001000001000100000100010000010001000011001000001000100000100000000100000100010000010001000001000100001100100000100010000010000
00001011111000101111100010111110001011110001011111000101111100000000101111100010111110001011111000101111000101111100010111110000
00001010000000101000000010100000001010000001010000000101000000000000101000000010100000001010000000101000000101000000010100000000
00001011000000101111110010111111001010000001011000000101111110000000101100000010111111001011111100101000000101100000010111111000
00001000000000100000010010000001001010000001000000000100000010000000100000000010000001001000000100101000000100000000010000001000
00001111000000111111100011111110001110000001111000000111111100000000111100000011111110001111111000111000000111100000011111110000
00000000000000000000000000000000000000000000000000000000000000000000000000000000000000000000000000000000000000000000000000000000
00000000000000000000000000000000000000000000000000000000000000000000000000000000000000000000000000000000000000000000000000000000
00000000000000000000000000000000000000000000000000000000000000000000000000000000000000000000000000000000000000000000000000000000
00000000000000000000000000000000000000000000000000000000000000000000000000000000000000000000000000000000000000000000000000000000
00000000000000000000000000000000000000000000000000000000000000000000000000000000000000000000000000000000000000000000000000000000
00000000000000000000000000000000000000000000000000000000000000000000000000000000000000000000000000000000000000000000000000000000
00001111111000111111000111111100011111110001111111000111111000000000111111100011111100011111110001111111000111111100011111100000
00001000000100100001100100000010010000001001000000100100001100000000100000010010000110010000001001000000100100000010010000110000
00001011111100101110110101111110010111111001011111100101110110000000101111110010111011010111111001011111100101111110010111011000
00001010000000101001010101000000010100000001010000000101001010000000101000000010100101010100000001010000000101000000010100101000
00001011111000101110110101111100010111110001011111000101110110000000101111100010111011010111110001011111000101111100010111011000
00001000001000100001100100000100010000010001000001000100001100000000100000100010000110010000010001000001000100000100010000110000
00001011111000101111000101111100010111110001011111000101111000000000101111100010111100010111110001011111000101111100010111100000
00001010000000101000000101000000010100000001010000000101000000000000101000000010100000010100000001010000000101000000010100000000
00001011111100101000000101100000010111111001011111100101000000000000101111110010100000010110000001011111100101111110010100000000
00001000000100101000000100000000010000001001000000100101000000000000100000010010100000010000000001000000100100000010010100000000
00001111111000111000000111100000011111110001111111000111000000000000111111100011100000011110000001111111000111111100011100000000
00000000000000000000000000000000000000000000000000000000000000000000000000000000000000000000000000000000000000000000000000000000
00000000000000000000000000000000000000000000000000000000000000000000000000000000000000000000000000000000000000000000000000000000
00000000000000000000000000000000000000000000000000000000000000000000000000000000000000000000000000000000000000000000000000000000
00000000000000000000000000000000000000000000000000000000000000000000000000000000000000000000000000000000000000000000000000000000
00000000000000000000000000000000000000000000000000000000000000000000000000000000000000000000000000000000000000000000000000000000
00000000000000000000000000000000000000000000000000000000000000000000000000000000000000000000000000000000000000000000000000000000
00001111111000111111100011111110001111110001111111000111111100000000111111100011111110001111111000111111000111111100011111110000
00001000000100100000010010000001001000011001000000100100000010000000100000010010000001001000000100100001100100000010010000001000
00001011111100101111110010111111001011101101011111100101111110000000101111110010111111001011111100101110110101111110010111111000
00001010000000101000000010100000001010010101010000000101000000000000101000000010100000001010000000101001010101000000010100000000
00001011111000101111100010111110001011101101011111000101111100000000101111100010111110001011111000101110110101111100010111110000
00001000001000100000100010000010001000011001000001000100000100000000100000100010000010001000001000100001100100000100010000010000
00001011111000101111100010111110001011110001011111000101111100000000101111100010111110001011111000101111000101111100010111110000
00001010000000101000000010100000001010000001010000000101000000000000101000000010100000001010000000101000000101000000010100000000
00001011000000101111110010111111001010000001011000000101111110000000101100000010111111001011111100101000000101100000010111111000
00001000000000100000010010000001001010000001000000000100000010000000100000000010000001001000000100101000000100000000010000001000
00001111000000111111100011111110001110000001111000000111111100000000111100000011111110001111111000111000000111100000011111110000
00000000000000000000000000000000000000000000000000000000000000000000000000000000000000000000000000000000000000000000000000000000
00000000000000000000000000000000000000000000000000000000000000000000000000000000000000000000000000000000000000000000000000000000
00000000000000000000000000000000000000000000000000000000000000000000000000000000000000000000000000000000000000000000000000000000
00000000000000000000000000000000000000000000000000000000000000000000000000000000000000000000000000000000000000000000000000000000
00000000000000000000000000000000000000000000000000000000000000000000000000000000000000000000000000000000000000000000000000000000
00000000000000000000000000000000000000000000000000000000000000000000000000000000000000000000000000000000000000000000000000000000
00000000000000000000000000000000000000000000000000000000000000000000000000000000000000000000000000000000000000000000000000000000
00000000000000000000000000000000000000000000000000000000000000000000000000000000000000000000000000000000000000000000000000000000
00000000000000000000000000000000000000000000000000000000000000000000000000000000000000000000000000000000000000000000000000000000
00000000000000000000000000000000000000000000000000000000000000000000000000000000000000000000000000000000000000000000000000000000
