P1
128 128
11111111111111111111111111111111111111111111111111111111111111111111111111111111111111111111111111111111111111111111111111111111
11111111111111111111111111111111111111111111111111111111111111111111111111111111111111111111111111111111111111111111111111111111
11111111111111111111111111111111111111111111111111111111111111111111111111111111111111111111111111111111111111111111111111111111
11111111111111111111111111111111111111111111111111111111111111111111111111111111111111111111111111111111111111111111111111111111
11111111111111111111111111111111111111111111111111111111111111111111111111111111111111111111111111111111111111111111111111111111
11111111111111111111111111111111111111111111111111111111111111111111111111111111111111111111111111111111111111111111111111111111
11111111111111111111111111111111111111111111111111111111111111111111111111111111111111111111111111111111111111111111111111111111
11111111111111111111111111111111111111111111111111111111111111111111111111111111111111111111111111111111111111111111111111111111
11111111111111111111111111111111111111111111111111111111111111111111111111111111111111111111111111111111111111111111111111111111
11110000000111000000011100000001110000001110000000111000000011111111000000011100000001110000000111000000111000000011100000001111
11110111110011011111001101111100110111100110111110011011111001111111011111001101111100110111110011011110011011111001101111100111
11110100000011010000001101000000110100000010100000011010000001111111010000001101000000110100000011010000001010000001101000000111
11110101111111010111111101011111110101101010101111111010111111111111010111111101011111110101111111010110101010111111101011111111
11110100000111010000011101000001110100000010100000111010000011111111010000011101000001110100000111010000001010000011101000001111
11110111110111011111011101111101110111100110111110111011111011111111011111011101111101110111110111011110011011111011101111101111
11110100000111010000011101000001110100001110100000111010000011111111010000011101000001110100000111010000111010000011101000001111
11110101111111010111111101011111110101111110101111111010111111111111010111111101011111110101111111010111111010111111101011111111
11110100111111010000001101000000110101111110100111111010000001111111010011111101000000110100000011010111111010011111101000000111
11110111111111011111001101111100110101111110111111111011111001111111011111111101111100110111110011010111111011111111101111100111
11110000111111000000011100000001110001111110000111111000000011111111000011111100000001110000000111000111111000011111100000001111
11111111111111111111111111111111111111111111111111111111111111111111111111111111111111111111111111111111111111111111111111111111
11111111111111111111111111111111111111111111111111111111111111111111111111111111111111111111111111111111111111111111111111111111
11111111111111111111111111111111111111111111111111111111111111111111111111111111111111111111111111111111111111111111111111111111
11111111111111111111111111111111111111111111111111111111111111111111111111111111111111111111111111111111111111111111111111111111
11111111111111111111111111111111111111111111111111111111111111111111111111111111111111111111111111111111111111111111111111111111
11111111111111111111111111111111111111111111111111111111111111111111111111111111111111111111111111111111111111111111111111111111
11110000000111000000111000000011100000001110000000111000000111111111000000011100000011100000001110000000111000000011100000011111
11110111110011011110011011111001101111100110111110011011110011111111011111001101111001101111100110111110011011111001101111001111
11110100000011010000001010000001101000000110100000011010000001111111010000001101000000101000000110100000011010000001101000000111
11110101111111010110101010111111101011111110101111111010110101111111010111111101011010101011111110101111111010111111101011010111
11110100000111010000001010000011101000001110100000111010000001111111010000011101000000101000001110100000111010000011101000000111
11110111110111011110011011111011101111101110111110111011110011111111011111011101111001101111101110111110111011111011101111001111
11110100000111010000111010000011101000001110100000111010000111111111010000011101000011101000001110100000111010000011101000011111
11110101111111010111111010111111101011111110101111111010111111111111010111111101011111101011111110101111111010111111101011111111
11110100000011010111111010011111101000000110100000011010111111111111010000001101011111101001111110100000011010000001101011111111
11110111110011010111111011111111101111100110111110011010111111111111011111001101011111101111111110111110011011111001101011111111
11110000000111000111111000011111100000001110000000111000111111111111000000011100011111100001111110000000111000000011100011111111
11111111111111111111111111111111111111111111111111111111111111111111111111111111111111111111111111111111111111111111111111111111
11111111111111111111111111111111111111111111111111111111111111111111111111111111111111111111111111111111111111111111111111111111
11111111111111111111111111111111111111111111111111111111111111111111111111111111111111111111111111111111111111111111111111111111
11111111111111111111111111111111111111111111111111111111111111111111111111111111111111111111111111111111111111111111111111111111
11111111111111111111111111111111111111111111111111111111111111111111111111111111111111111111111111111111111111111111111111111111
11111111111111111111111111111111111111111111111111111111111111111111111111111111111111111111111111111111111111111111111111111111
11110000000111000000011100000001110000001110000000111000000011111111000000011100000001110000000111000000111000000011100000001111
11110111110011011111001101111100110111100110111110011011111001111111011111001101111100110111110011011110011011111001101111100111
11110100000011010000001101000000110100000010100000011010000001111111010000001101000000110100000011010000001010000001101000000111
11110101111111010111111101011111110101101010101111111010111111111111010111111101011111110101111111010110101010111111101011111111
11110100000111010000011101000001110100000010100000111010000011111111010000011101000001110100000111010000001010000011101000001111
11110111110111011111011101111101110111100110111110111011111011111111011111011101111101110111110111011110011011111011101111101111
11110100000111010000011101000001110100001110100000111010000011111111010000011101000001110100000111010000111010000011101000001111
11110101111111010111111101011111110101111110101111111010111111111111010111111101011111110101111111010111111010111111101011111111
11110100111111010000001101000000110101111110100111111010000001111111010011111101000000110100000011010111111010011111101000000111
11110111111111011111001101111100110101111110111111111011111001111111011111111101111100110111110011010111111011111111101111100111
11110000111111000000011100000001110001111110000111111000000011111111000011111100000001110000000111000111111000011111100000001111
11111111111111111111111111111111111111111111111111111111111111111111111111111111111111111111111111111111111111111111111111111111
11111111111111111111111111111111111111111111111111111111111111111111111111111111111111111111111111111111111111111111111111111111
11111111111111111111111111111111111111111111111111111111111111111111111111111111111111111111111111111111111111111111111111111111
11111111111111111111111111111111111111111111111111111111111111111111111111111111111111111111111111111111111111111111111111111111
11111111111111111111111111111111111111111111111111111111111111111111111111111111111111111111111111111111111111111111111111111111
11111111111111111111111111111111111111111111111111111111111111111111111111111111111111111111111111111111111111111111111111111111
11111111111111111111111111111111111111111111111111111111111111111111111111111111111111111111111111111111111111111111111111111111
11111111111111111111111111111111111111111111111111111111111111111111111111111111111111111111111111111111111111111111111111111111
11111111111111111111111111111111111111111111111111111111111111111111111111111111111111111111111111111111111111111111111111111111
11111111111111111111111111111111111111111111111111111111111111111111111111111111111111111111111111111111111111111111111111111111
11111111111111111111111111111111111111111111111111111111111111111111111111111111111111111111111111111111111111111111111111111111
11111111111111111111111111111111111111111111111111111111111111111111111111111111111111111111111111111111111111111111111111111111
11111111111111111111111111111111111111111111111111111111111111111111111111111111111111111111111111111111111111111111111111111111
11111111111111111111111111111111111111111111111111111111111111111111111111111111111111111111111111111111111111111111111111111111
11111111111111111111111111111111111111111111111111111111111111111111111111111111111111111111111111111111111111111111111111111111
11111111111111111111111111111111111111111111111111111111111111111111111111111111111111111111111111111111111111111111111111111111
11111111111111111111111111111111111111111111111111111111111111111111111111111111111111111111111111111111111111111111111111111111
11111111111111111111111111111111111111111111111111111111111111111111111111111111111111111111111111111111111111111111111111111111
11111111111111111111111111111111111111111111111111111111111111111111111111111111111111111111111111111111111111111111111111111111
11110000000111000000011100000001110000001110000000111000000011111111000000011100000001110000000111000000111000000011100000001111
11110111110011011111001101111100110111100110111110011011111001111111011111001101111100110111110011011110011011111001101111100111
11110100000011010000001101000000110100000010100000011010000001111111010000001101000000110100000011010000001010000001101000000111
11110101111111010111111101011111110101101010101111111010111111111111010111111101011111110101111111010110101010111111101011111111
11110100000111010000011101000001110100000010100000111010000011111111010000011101000001110100000111010000001010000011101000001111
11110111110111011111011101111101110111100110111110111011111011111111011111011101111101110111110111011110011011111011101111101111
11110100000111010000011101000001110100001110100000111010000011111111010000011101000001110100000111010000111010000011101000001111
11110101111111010111111101011111110101111110101111111010111111111111010111111101011111110101111111010111111010111111101011111111
11110100111111010000001101000000110101111110100111111010000001111111010011111101000000110100000011010111111010011111101000000111
11110111111111011111001101111100110101111110111111111011111001111111011111111101111100110111110011010111111011111111101111100111
11110000111111000000011100000001110001111110000111111000000011111111000011111100000001110000000111000111111000011111100000001111
11111111111111111111111111111111111111111111111111111111111111111111111111111111111111111111111111111111111111111111111111111111
11111111111111111111111111111111111111111111111111111111111111111111111111111111111111111111111111111111111111111111111111111111
11111111111111111111111111111111111111111111111111111111111111111111111111111111111111111111111111111111111111111111111111111111
11111111111111111111111111111111111111111111111111111111111111111111111111111111111111111111111111111111111111111111111111111111
11111111111111111111111111111111111111111111111111111111111111111111111111111111111111111111111111111111111111111111111111111111
11111111111111111111111111111111111111111111111111111111111111111111111111111111111111111111111111111111111111111111111111111111
11110000000111000000111000000011100000001110000000111000000111111111000000011100000011100000001110000000111000000011100000011111
11110111110011011110011011111001101111100110111110011011110011111111011111001101111001101111100110111110011011111001101111001111
11110100000011010000001010000001101000000110100000011010000001111111010000001101000000101000000110100000011010000001101000000111
11110101111111010110101010111111101011111110101111111010110101111111010111111101011010101011111110101111111010111111101011010111
11110100000111010000001010000011101000001110100000111010000001111111010000011101000000101000001110100000111010000011101000000111
11110111110111011110011011111011101111101110111110111011110011111111011111011101111001101111101110111110111011111011101111001111
11110100000111010000111010000011101000001110100000111010000111111111010000011101000011101000001110100000111010000011101000011111
11110101111111010111111010111111101011111110101111111010111111111111010111111101011111101011111110101111111010111111101011111111
11110100000011010111111010011111101000000110100000011010111111111111010000001101011111101001111110100000011010000001101011111111
11110111110011010111111011111111101111100110111110011010111111111111011111001101011111101111111110111110011011111001101011111111
11110000000111000111111000011111100000001110000000111000111111111111000000011100011111100001111110000000111000000011100011111111
11111111111111111111111111111111111111111111111111111111111111111111111111111111111111111111111111111111111111111111111111111111
11111111111111111111111111111111111111111111111111111111111111111111111111111111111111111111111111111111111111111111111111111111
11111111111111111111111111111111111111111111111111111111111111111111111111111111111111111111111111111111111111111111111111111111
11111111111111111111111111111111111111111111111111111111111111111111111111111111111111111111111111111111111111111111111111111111
11111111111111111111111111111111111111111111111111111111111111111111111111111111111111111111111111111111111111111111111111111111
11111111111111111111111111111111111111111111111111111111111111111111111111111111111111111111111111111111111111111111111111111111
11110000000111000000011100000001110000001110000000111000000011111111000000011100000001110000000111000000111000000011100000001111
11110111110011011111001101111100110111100110111110011011111001111111011111001101111100110111110011011110011011111001101111100111
11110100000011010000001101000000110100000010100000011010000001111111010000001101000000110100000011010000001010000001101000000111
11110101111111010111111101011111110101101010101111111010111111111111010111111101011111110101111111010110101010111111101011111111
11110100000111010000011101000001110100000010100000111010000011111111010000011101000001110100000111010000001010000011101000001111
11110111110111011111011101111101110111100110111110111011111011111111011111011101111101110111110111011110011011111011101111101111
11110100000111010000011101000001110100001110100000111010000011111111010000011101000001110100000111010000111010000011101000001111
11110101111111010111111101011111110101111110101111111010111111111111010111111101011111110101111111010111111010111111101011111111
11110100111111010000001101000000110101111110100111111010000001111111010011111101000000110100000011010111111010011111101000000111
11110111111111011111001101111100110101111110111111111011111001111111011111111101111100110111110011010111111011111111101111100111
11110000111111000000011100000001110001111110000111111000000011111111000011111100000001110000000111000111111000011111100000001111
11111111111111111111111111111111111111111111111111111111111111111111111111111111111111111111111111111111111111111111111111111111
11111111111111111111111111111111111111111111111111111111111111111111111111111111111111111111111111111111111111111111111111111111
11111111111111111111111111111111111111111111111111111111111111111111111111111111111111111111111111111111111111111111111111111111
11111111111111111111111111111111111111111111111111111111111111111111111111111111111111111111111111111111111111111111111111111111
11111111111111111111111111111111111111111111111111111111111111111111111111111111111111111111111111111111111111111111111111111111
11111111111111111111111111111111111111111111111111111111111111111111111111111111111111111111111111111111111111111111111111111111
11111111111111111111111111111111111111111111111111111111111111111111111111111111111111111111111111111111111111111111111111111111
11111111111111111111111111111111111111111111111111111111111111111111111111111111111111111111111111111111111111111111111111111111
11111111111111111111111111111111111111111111111111111111111111111111111111111111111111111111111111111111111111111111111111111111
11111111111111111111111111111111111111111111111111111111111111111111111111111111111111111111111111111111111111111111111111111111
