P1
64 64
0000000000000000000000000000000000000000000000000000000000000000
0000000000000000000000000000000000000000000000000000000000000000
0000000000000000000000000000000000000000000000000000000000000000
0000000000000000000000000000000000000000000000000000000000000000
0000000000000000000000000000000000000000000000000000000000000000
0000000000000000000000000000000000000000000000000000000000000000
0000000000000000000000000000000000000000000000000000000000000000
0000000000000000000000000000000000000000000000000000000000000000
0000000000000000000000000000000000000000000000000000000000000000
0000000000000000000000000000000000000000000000000000000000000000
0000011111110000011111110000011111110000011111100000111111100000
0000001000010000001000010000001000010000001000110000010000100000
0000001000000000001000000000001000000000001000010000010000000000
0000001000100000001000100000001000100000001000110000010001000000
0000001111100000001111100000001111100000001111100000011111000000
0000001000100000001000100000001000100000001000000000010001000000
0000001000000000001000000000001000000000001000000000010000000000
0000001000000000001000010000001000010000001000000000010000000000
0000011110000000011111110000011111110000011100000000111100000000
0000000000000000000000000000000000000000000000000000000000000000
0000000000000000000000000000000000000000000000000000000000000000
0000000000000000000000000000000000000000000000000000000000000000
0000000000000000000000000000000000000000000000000000000000000000
0000000000000000000000000000000000000000000000000000000000000000
0000000000000000000000000000000000000000000000000000000000000000
0000000000000000000000000000000000000000000000000000000000000000
0000000000000000000000000000000000000000000000000000000000000000
0000011111110000011111110000011111100000111111100000111111100000
0000001000010000001000010000001000110000010000100000010000100000
0000001000000000001000000000001000010000010000000000010000000000
0000001000100000001000100000001000110000010001000000010001000000
0000001111100000001111100000001111100000011111000000011111000000
0000001000100000001000100000001000000000010001000000010001000000
0000001000000000001000000000001000000000010000000000010000000000
0000001000010000001000010000001000000000010000000000010000100000
0000011111110000011111110000011100000000111100000000111111100000
0000000000000000000000000000000000000000000000000000000000000000
0000000000000000000000000000000000000000000000000000000000000000
0000000000000000000000000000000000000000000000000000000000000000
0000000000000000000000000000000000000000000000000000000000000000
0000000000000000000000000000000000000000000000000000000000000000
0000000000000000000000000000000000000000000000000000000000000000
0000000000000000000000000000000000000000000000000000000000000000
0000000000000000000000000000000000000000000000000000000000000000
0000011111110000011111100000111111100000111111100000111111100000
0000001000010000001000110000010000100000010000100000010000100000
0000001000000000001000010000010000000000010000000000010000000000
0000001000100000001000110000010001000000010001000000010001000000
0000001111100000001111100000011111000000011111000000011111000000
0000001000100000001000000000010001000000010001000000010001000000
0000001000000000001000000000010000000000010000000000010000000000
0000001000010000001000000000010000000000010000100000010000100000
0000011111110000011100000000111100000000111111100000111111100000
0000000000000000000000000000000000000000000000000000000000000000
0000000000000000000000000000000000000000000000000000000000000000
0000000000000000000000000000000000000000000000000000000000000000
0000000000000000000000000000000000000000000000000000000000000000
0000000000000000000000000000000000000000000000000000000000000000
0000000000000000000000000000000000000000000000000000000000000000
0000000000000000000000000000000000000000000000000000000000000000
0000000000000000000000000000000000000000000000000000000000000000
0000000000000000000000000000000000000000000000000000000000000000
0000000000000000000000000000000000000000000000000000000000000000
0000000000000000000000000000000000000000000000000000000000000000
