P3
64 64
255
70 70 70 68 68 68 87 87 87 95 95 95 128 128 128 120 120 120 88 88 88 58 58 58 
32 32 32 64 64 64 66 66 66 42 42 42 65 65 65 90 90 90 74 74 74 82 82 82 
85 85 85 74 74 74 92 92 92 80 80 80 86 86 86 87 87 87 163 163 163 182 182 182 
179 179 179 181 181 181 180 180 180 181 181 181 181 181 181 182 182 182 184 184 184 183 183 183 
186 186 186 128 128 128 80 80 80 40 40 40 30 30 30 29 29 29 28 28 28 29 29 29 
29 29 29 28 28 28 30 30 30 28 28 28 29 29 29 30 30 30 32 32 32 31 31 31 
30 30 30 31 31 31 31 31 31 31 31 31 32 32 32 32 32 32 32 32 32 33 33 33 
36 36 36 38 38 38 58 58 58 128 128 128 188 188 188 180 180 180 104 104 104 50 50 50 

88 88 88 75 75 75 92 92 92 86 86 86 94 94 94 102 102 102 73 73 73 43 43 43 
34 34 34 69 69 69 66 66 66 35 35 35 57 57 57 92 92 92 82 82 82 83 83 83 
87 87 87 76 76 76 93 93 93 80 80 80 87 87 87 86 86 86 164 164 164 182 182 182 
182 182 182 182 182 182 183 183 183 183 183 183 181 181 181 183 183 183 187 187 187 184 184 184 
188 188 188 129 129 129 84 84 84 39 39 39 30 30 30 29 29 29 27 27 27 28 28 28 
29 29 29 27 27 27 28 28 28 28 28 28 29 29 29 28 28 28 29 29 29 28 28 28 
30 30 30 30 30 30 30 30 30 30 30 30 31 31 31 31 31 31 33 33 33 45 45 45 
83 83 83 124 124 124 166 166 166 120 120 120 139 139 139 146 146 146 69 69 69 46 46 46 

109 109 109 99 99 99 110 110 110 118 118 118 109 109 109 93 93 93 51 51 51 36 36 36 
41 41 41 65 65 65 51 51 51 33 33 33 58 58 58 95 95 95 80 80 80 85 85 85 
86 86 86 77 77 77 94 94 94 80 80 80 88 88 88 88 88 88 163 163 163 184 184 184 
183 183 183 182 182 182 184 184 184 181 181 181 183 183 183 183 183 183 186 186 186 186 186 186 
190 190 190 131 131 131 90 90 90 40 40 40 30 30 30 28 28 28 28 28 28 27 27 27 
28 28 28 28 28 28 27 27 27 28 28 28 28 28 28 28 28 28 28 28 28 28 28 28 
28 28 28 29 29 29 30 30 30 29 29 29 31 31 31 32 32 32 55 55 55 104 104 104 
135 135 135 145 145 145 116 116 116 100 100 100 113 113 113 153 153 153 117 117 117 98 98 98 

100 100 100 105 105 105 86 86 86 69 69 69 63 63 63 58 58 58 36 36 36 27 27 27 
34 34 34 43 43 43 46 46 46 34 34 34 65 65 65 92 92 92 76 76 76 87 87 87 
88 88 88 79 79 79 95 95 95 82 82 82 90 90 90 87 87 87 163 163 163 183 183 183 
183 183 183 185 185 185 185 185 185 184 184 184 183 183 183 186 186 186 186 186 186 186 186 186 
191 191 191 131 131 131 92 92 92 39 39 39 30 30 30 27 27 27 25 25 25 27 27 27 
27 27 27 26 26 26 27 27 27 28 28 28 27 27 27 28 28 28 28 28 28 29 29 29 
28 28 28 29 29 29 29 29 29 30 30 30 31 31 31 43 43 43 117 117 117 149 149 149 
136 136 136 120 120 120 79 79 79 103 103 103 140 140 140 126 126 126 167 167 167 84 84 84 

98 98 98 68 68 68 61 61 61 64 64 64 49 49 49 31 31 31 26 26 26 25 25 25 
67 67 67 68 68 68 56 56 56 51 51 51 56 56 56 126 126 126 93 93 93 88 88 88 
89 89 89 80 80 80 95 95 95 83 83 83 91 91 91 88 88 88 163 163 163 185 185 185 
184 184 184 186 186 186 186 186 186 186 186 186 185 185 185 187 187 187 188 188 188 189 189 189 
190 190 190 135 135 135 88 88 88 41 41 41 30 30 30 27 27 27 25 25 25 26 26 26 
26 26 26 27 27 27 27 27 27 26 26 26 28 28 28 28 28 28 27 27 27 27 27 27 
27 27 27 29 29 29 31 31 31 35 35 35 66 66 66 117 117 117 129 129 129 96 96 96 
82 82 82 100 100 100 75 75 75 111 111 111 160 160 160 134 134 134 104 104 104 52 52 52 

66 66 66 52 52 52 44 44 44 37 37 37 40 40 40 38 38 38 31 31 31 36 36 36 
72 72 72 69 69 69 98 98 98 129 129 129 90 90 90 125 125 125 154 154 154 101 101 101 
92 92 92 81 81 81 96 96 96 84 84 84 92 92 92 88 88 88 165 165 165 186 186 186 
187 187 187 186 186 186 187 187 187 188 188 188 186 186 186 188 188 188 190 190 190 191 191 191 
191 191 191 135 135 135 90 90 90 42 42 42 29 29 29 28 28 28 26 26 26 26 26 26 
27 27 27 26 26 26 26 26 26 26 26 26 27 27 27 27 27 27 27 27 27 29 29 29 
29 29 29 29 29 29 73 73 73 138 138 138 160 160 160 135 135 135 97 97 97 61 61 61 
71 71 71 95 95 95 77 77 77 119 119 119 185 185 185 163 163 163 129 129 129 62 62 62 

67 67 67 65 65 65 52 52 52 47 47 47 48 48 48 37 37 37 37 37 37 56 56 56 
66 66 66 71 71 71 83 83 83 114 114 114 87 87 87 149 149 149 144 144 144 146 146 146 
104 104 104 83 83 83 98 98 98 83 83 83 92 92 92 90 90 90 165 165 165 186 186 186 
188 188 188 188 188 188 191 191 191 190 190 190 191 191 191 192 192 192 193 193 193 192 192 192 
193 193 193 136 136 136 88 88 88 43 43 43 29 29 29 26 26 26 26 26 26 27 27 27 
26 26 26 26 26 26 27 27 27 27 27 27 27 27 27 27 27 27 26 26 26 29 29 29 
30 30 30 62 62 62 93 93 93 82 82 82 81 81 81 90 90 90 67 67 67 62 62 62 
101 101 101 85 85 85 83 83 83 113 113 113 115 115 115 195 195 195 162 162 162 143 143 143 

64 64 64 61 61 61 51 51 51 81 81 81 73 73 73 61 61 61 72 72 72 73 73 73 
84 84 84 73 73 73 67 67 67 84 84 84 87 87 87 157 157 157 133 133 133 158 158 158 
162 162 162 87 87 87 99 99 99 84 84 84 95 95 95 91 91 91 163 163 163 187 187 187 
190 190 190 189 189 189 193 193 193 191 191 191 191 191 191 193 193 193 195 195 195 193 193 193 
194 194 194 141 141 141 92 92 92 41 41 41 29 29 29 27 27 27 25 25 25 26 26 26 
26 26 26 26 26 26 26 26 26 26 26 26 27 27 27 27 27 27 28 28 28 28 28 28 
120 120 120 120 120 120 69 69 69 51 51 51 53 53 53 66 66 66 62 62 62 87 87 87 
104 104 104 86 86 86 90 90 90 112 112 112 100 100 100 128 128 128 188 188 188 158 158 158 

56 56 56 43 43 43 61 61 61 87 87 87 104 104 104 106 106 106 86 86 86 95 95 95 
89 89 89 70 70 70 88 88 88 87 87 87 116 116 116 129 129 129 134 134 134 139 139 139 
190 190 190 101 101 101 101 101 101 86 86 86 94 94 94 91 91 91 165 165 165 188 188 188 
193 193 193 192 192 192 193 193 193 199 199 199 199 199 199 200 200 200 194 194 194 194 194 194 
195 195 195 143 143 143 92 92 92 43 43 43 29 29 29 26 26 26 25 25 25 25 25 25 
26 26 26 24 24 24 25 25 25 25 25 25 27 27 27 27 27 27 28 28 28 66 66 66 
121 121 121 92 92 92 110 110 110 59 59 59 48 48 48 61 61 61 68 68 68 79 79 79 
94 94 94 100 100 100 105 105 105 107 107 107 92 92 92 106 106 106 162 162 162 166 166 166 

52 52 52 43 43 43 59 59 59 63 63 63 71 71 71 83 83 83 100 100 100 99 99 99 
78 78 78 83 83 83 99 99 99 109 109 109 129 129 129 123 123 123 141 141 141 138 138 138 
176 176 176 138 138 138 103 103 103 86 86 86 96 96 96 92 92 92 165 165 165 191 191 191 
193 193 193 185 185 185 188 188 188 189 189 189 181 181 181 213 213 213 199 199 199 195 195 195 
197 197 197 140 140 140 94 94 94 43 43 43 28 28 28 27 27 27 25 25 25 25 25 25 
26 26 26 25 25 25 25 25 25 26 26 26 25 25 25 27 27 27 44 44 44 60 60 60 
72 72 72 123 123 123 115 115 115 94 94 94 64 64 64 66 66 66 77 77 77 85 85 85 
103 103 103 101 101 101 113 113 113 105 105 105 90 90 90 114 114 114 145 145 145 162 162 162 

60 60 60 68 68 68 60 60 60 64 64 64 65 65 65 60 60 60 68 68 68 85 85 85 
91 91 91 98 98 98 110 110 110 124 124 124 125 125 125 128 128 128 117 117 117 132 132 132 
161 161 161 154 154 154 106 106 106 89 89 89 98 98 98 91 91 91 168 168 168 193 193 193 
174 174 174 181 181 181 192 192 192 185 185 185 149 149 149 191 191 191 201 201 201 195 195 195 
200 200 200 141 141 141 95 95 95 43 43 43 30 30 30 27 27 27 26 26 26 26 26 26 
26 26 26 26 26 26 26 26 26 26 26 26 26 26 26 33 33 33 48 48 48 42 42 42 
64 64 64 90 90 90 115 115 115 145 145 145 125 125 125 112 112 112 107 107 107 120 120 120 
118 118 118 119 119 119 101 101 101 102 102 102 106 106 106 119 119 119 128 128 128 144 144 144 

41 41 41 50 50 50 48 48 48 46 46 46 65 65 65 63 63 63 50 50 50 68 68 68 
106 106 106 104 104 104 87 87 87 95 95 95 100 100 100 105 105 105 112 112 112 115 115 115 
156 156 156 150 150 150 105 105 105 88 88 88 98 98 98 93 93 93 166 166 166 191 191 191 
157 157 157 141 141 141 177 177 177 185 185 185 162 162 162 155 155 155 199 199 199 195 195 195 
198 198 198 144 144 144 102 102 102 45 45 45 31 31 31 27 27 27 26 26 26 26 26 26 
26 26 26 26 26 26 27 27 27 26 26 26 27 27 27 40 40 40 49 49 49 61 61 61 
59 59 59 65 65 65 108 108 108 183 183 183 207 207 207 184 184 184 187 187 187 160 160 160 
130 130 130 112 112 112 113 113 113 109 109 109 121 121 121 138 138 138 107 107 107 134 134 134 

38 38 38 42 42 42 37 37 37 43 43 43 48 48 48 45 45 45 52 52 52 98 98 98 
100 100 100 97 97 97 92 92 92 79 79 79 103 103 103 92 92 92 91 91 91 114 114 114 
148 148 148 129 129 129 104 104 104 89 89 89 98 98 98 93 93 93 163 163 163 195 195 195 
145 145 145 135 135 135 157 157 157 165 165 165 138 138 138 172 172 172 194 194 194 196 196 196 
198 198 198 146 146 146 106 106 106 45 45 45 31 31 31 29 29 29 28 28 28 27 27 27 
27 27 27 26 26 26 27 27 27 26 26 26 31 31 31 49 49 49 60 60 60 61 61 61 
58 58 58 63 63 63 105 105 105 196 196 196 214 214 214 217 217 217 223 223 223 230 230 230 
203 203 203 199 199 199 196 196 196 192 192 192 187 187 187 175 175 175 120 120 120 127 127 127 

31 31 31 29 29 29 28 28 28 29 29 29 31 31 31 34 34 34 55 55 55 71 71 71 
107 107 107 114 114 114 108 108 108 79 79 79 97 97 97 76 76 76 98 98 98 128 128 128 
133 133 133 101 101 101 104 104 104 88 88 88 101 101 101 94 94 94 165 165 165 190 190 190 
129 129 129 132 132 132 144 144 144 143 143 143 115 115 115 166 166 166 196 196 196 195 195 195 
199 199 199 143 143 143 103 103 103 46 46 46 31 31 31 29 29 29 27 27 27 27 27 27 
28 28 28 27 27 27 28 28 28 28 28 28 34 34 34 57 57 57 60 60 60 42 42 42 
51 51 51 74 74 74 137 137 137 202 202 202 217 217 217 216 216 216 206 206 206 179 179 179 
87 87 87 212 212 212 219 219 219 222 222 222 210 210 210 177 177 177 139 139 139 126 126 126 

42 42 42 32 32 32 28 28 28 41 41 41 45 45 45 37 37 37 36 36 36 53 53 53 
73 73 73 68 68 68 73 73 73 71 71 71 70 70 70 71 71 71 145 145 145 113 113 113 
100 100 100 93 93 93 102 102 102 89 89 89 101 101 101 96 96 96 166 166 166 186 186 186 
128 128 128 89 89 89 91 91 91 78 78 78 117 117 117 181 181 181 199 199 199 197 197 197 
199 199 199 147 147 147 98 98 98 45 45 45 33 33 33 30 30 30 28 28 28 28 28 28 
27 27 27 29 29 29 30 30 30 29 29 29 36 36 36 44 44 44 34 34 34 35 35 35 
48 48 48 56 56 56 106 106 106 165 165 165 109 109 109 87 87 87 95 95 95 89 89 89 
57 57 57 223 223 223 220 220 220 225 225 225 181 181 181 168 168 168 151 151 151 116 116 116 

58 58 58 48 48 48 43 43 43 42 42 42 38 38 38 46 46 46 40 40 40 40 40 40 
55 55 55 63 63 63 48 48 48 47 47 47 51 51 51 53 53 53 155 155 155 117 117 117 
95 95 95 93 93 93 104 104 104 88 88 88 102 102 102 95 95 95 165 165 165 198 198 198 
143 143 143 106 106 106 77 77 77 99 99 99 169 169 169 196 196 196 197 197 197 198 198 198 
199 199 199 149 149 149 99 99 99 44 44 44 32 32 32 30 30 30 29 29 29 30 30 30 
29 29 29 30 30 30 30 30 30 28 28 28 94 94 94 84 84 84 45 45 45 39 39 39 
37 37 37 61 61 61 145 145 145 78 78 78 111 111 111 130 130 130 116 116 116 76 76 76 
54 54 54 231 231 231 228 228 228 173 173 173 182 182 182 169 169 169 130 130 130 95 95 95 

47 47 47 36 36 36 45 45 45 55 55 55 62 62 62 48 48 48 51 51 51 47 47 47 
54 54 54 49 49 49 48 48 48 49 49 49 48 48 48 51 51 51 139 139 139 143 143 143 
96 96 96 96 96 96 104 104 104 90 90 90 102 102 102 96 96 96 166 166 166 197 197 197 
191 191 191 168 168 168 156 156 156 178 178 178 194 194 194 199 199 199 197 197 197 197 197 197 
198 198 198 152 152 152 101 101 101 44 44 44 32 32 32 30 30 30 30 30 30 31 31 31 
32 32 32 33 33 33 36 36 36 38 38 38 43 43 43 48 48 48 47 47 47 37 37 37 
50 50 50 161 161 161 96 96 96 96 96 96 125 125 125 86 86 86 76 76 76 61 61 61 
65 65 65 217 217 217 172 172 172 162 162 162 210 210 210 209 209 209 125 125 125 66 66 66 

47 47 47 52 52 52 58 58 58 67 67 67 53 53 53 44 44 44 56 56 56 54 54 54 
50 50 50 53 53 53 49 49 49 50 50 50 47 47 47 57 57 57 125 125 125 152 152 152 
97 97 97 95 95 95 105 105 105 90 90 90 104 104 104 95 95 95 165 165 165 196 196 196 
196 196 196 198 198 198 197 197 197 198 198 198 197 197 197 199 199 199 199 199 199 197 197 197 
199 199 199 148 148 148 98 98 98 44 44 44 33 33 33 29 29 29 31 31 31 32 32 32 
59 59 59 145 145 145 181 181 181 173 173 173 103 103 103 49 49 49 60 60 60 78 78 78 
139 139 139 148 148 148 77 77 77 86 86 86 97 97 97 83 83 83 60 60 60 54 54 54 
83 83 83 185 185 185 99 99 99 153 153 153 172 172 172 200 200 200 128 128 128 62 62 62 

62 62 62 69 69 69 48 48 48 60 60 60 42 42 42 43 43 43 46 46 46 43 43 43 
42 42 42 48 48 48 52 52 52 45 45 45 54 54 54 48 48 48 101 101 101 136 136 136 
94 94 94 95 95 95 105 105 105 89 89 89 105 105 105 98 98 98 166 166 166 198 198 198 
198 198 198 196 196 196 197 197 197 197 197 197 198 198 198 197 197 197 197 197 197 198 198 198 
197 197 197 145 145 145 96 96 96 44 44 44 33 33 33 32 32 32 29 29 29 107 107 107 
189 189 189 172 172 172 165 165 165 158 158 158 144 144 144 146 146 146 136 136 136 141 141 141 
155 155 155 82 82 82 105 105 105 85 85 85 60 60 60 63 63 63 47 47 47 42 42 42 
146 146 146 165 165 165 75 75 75 63 63 63 92 92 92 149 149 149 142 142 142 62 62 62 

64 64 64 50 50 50 56 56 56 59 59 59 53 53 53 60 60 60 41 41 41 42 42 42 
61 61 61 63 63 63 63 63 63 64 64 64 55 55 55 44 44 44 77 77 77 187 187 187 
102 102 102 98 98 98 107 107 107 91 91 91 105 105 105 99 99 99 167 167 167 196 196 196 
198 198 198 199 199 199 197 197 197 198 198 198 198 198 198 196 196 196 198 198 198 197 197 197 
198 198 198 146 146 146 94 94 94 42 42 42 35 35 35 32 32 32 69 69 69 174 174 174 
142 142 142 161 161 161 172 172 172 162 162 162 160 160 160 152 152 152 147 147 147 177 177 177 
153 153 153 86 86 86 115 115 115 89 89 89 63 63 63 63 63 63 63 63 63 145 145 145 
219 219 219 195 195 195 75 75 75 59 59 59 67 67 67 128 128 128 146 146 146 51 51 51 

47 47 47 51 51 51 54 54 54 51 51 51 70 70 70 69 69 69 54 54 54 59 59 59 
53 53 53 49 49 49 67 67 67 61 61 61 55 55 55 48 48 48 101 101 101 213 213 213 
111 111 111 105 105 105 108 108 108 92 92 92 108 108 108 99 99 99 168 168 168 196 196 196 
197 197 197 200 200 200 198 198 198 198 198 198 199 199 199 199 199 199 198 198 198 197 197 197 
200 200 200 144 144 144 95 95 95 43 43 43 34 34 34 29 29 29 143 143 143 153 153 153 
156 156 156 177 177 177 136 136 136 154 154 154 161 161 161 161 161 161 155 155 155 170 170 170 
97 97 97 60 60 60 74 74 74 124 124 124 101 101 101 126 126 126 186 186 186 208 208 208 
211 211 211 206 206 206 127 127 127 90 90 90 113 113 113 134 134 134 134 134 134 45 45 45 

56 56 56 65 65 65 47 47 47 49 49 49 69 69 69 84 84 84 73 73 73 58 58 58 
49 49 49 49 49 49 70 70 70 69 69 69 53 53 53 94 94 94 152 152 152 219 219 219 
121 121 121 100 100 100 109 109 109 94 94 94 107 107 107 98 98 98 171 171 171 198 198 198 
200 200 200 199 199 199 199 199 199 200 200 200 199 199 199 198 198 198 199 199 199 197 197 197 
203 203 203 152 152 152 91 91 91 41 41 41 34 34 34 71 71 71 158 158 158 155 155 155 
176 176 176 150 150 150 169 169 169 163 163 163 148 148 148 158 158 158 147 147 147 128 128 128 
127 127 127 113 113 113 191 191 191 208 208 208 203 203 203 208 208 208 182 182 182 208 208 208 
222 222 222 215 215 215 159 159 159 149 149 149 115 115 115 140 140 140 91 91 91 40 40 40 

64 64 64 44 44 44 42 42 42 56 56 56 70 70 70 73 73 73 60 60 60 55 55 55 
51 51 51 47 47 47 76 76 76 65 65 65 76 76 76 144 144 144 185 185 185 196 196 196 
113 113 113 102 102 102 111 111 111 93 93 93 109 109 109 97 97 97 171 171 171 198 198 198 
199 199 199 200 200 200 198 198 198 200 200 200 200 200 200 200 200 200 200 200 200 198 198 198 
202 202 202 156 156 156 87 87 87 42 42 42 40 40 40 152 152 152 161 161 161 182 182 182 
165 165 165 175 175 175 166 166 166 150 150 150 171 171 171 168 168 168 121 121 121 82 82 82 
157 157 157 170 170 170 158 158 158 153 153 153 155 155 155 107 107 107 136 136 136 193 193 193 
214 214 214 221 221 221 196 196 196 165 165 165 176 176 176 159 159 159 58 58 58 41 41 41 

39 39 39 42 42 42 46 46 46 41 41 41 65 65 65 51 51 51 66 66 66 69 69 69 
52 52 52 64 64 64 53 53 53 70 70 70 143 143 143 135 135 135 197 197 197 145 145 145 
97 97 97 102 102 102 110 110 110 92 92 92 112 112 112 101 101 101 171 171 171 198 198 198 
200 200 200 200 200 200 199 199 199 201 201 201 201 201 201 201 201 201 199 199 199 198 198 198 
201 201 201 160 160 160 90 90 90 42 42 42 57 57 57 123 123 123 116 116 116 165 165 165 
138 138 138 151 151 151 158 158 158 143 143 143 163 163 163 162 162 162 145 145 145 85 85 85 
155 155 155 156 156 156 85 85 85 88 88 88 78 78 78 108 108 108 129 129 129 109 109 109 
125 125 125 175 175 175 117 117 117 151 151 151 167 167 167 135 135 135 49 49 49 39 39 39 

35 35 35 38 38 38 44 44 44 39 39 39 45 45 45 117 117 117 150 150 150 117 117 117 
76 76 76 74 74 74 72 72 72 120 120 120 193 193 193 147 147 147 157 157 157 116 116 116 
97 97 97 102 102 102 112 112 112 94 94 94 112 112 112 100 100 100 169 169 169 199 199 199 
199 199 199 200 200 200 199 199 199 201 201 201 202 202 202 201 201 201 199 199 199 198 198 198 
202 202 202 163 163 163 85 85 85 43 43 43 39 39 39 59 59 59 60 60 60 99 99 99 
102 102 102 102 102 102 118 118 118 117 117 117 134 134 134 168 168 168 153 153 153 107 107 107 
159 159 159 113 113 113 112 112 112 133 133 133 164 164 164 221 221 221 199 199 199 108 108 108 
111 111 111 162 162 162 102 102 102 76 76 76 139 139 139 90 90 90 40 40 40 38 38 38 

29 29 29 35 35 35 34 34 34 30 30 30 124 124 124 116 116 116 65 65 65 66 66 66 
85 85 85 101 101 101 112 112 112 185 185 185 213 213 213 163 163 163 123 123 123 112 112 112 
98 98 98 104 104 104 110 110 110 94 94 94 113 113 113 100 100 100 169 169 169 201 201 201 
201 201 201 202 202 202 203 203 203 202 202 202 204 204 204 202 202 202 201 201 201 201 201 201 
200 200 200 166 166 166 88 88 88 44 44 44 36 36 36 42 42 42 51 51 51 77 77 77 
101 101 101 107 107 107 117 117 117 119 119 119 136 136 136 169 169 169 152 152 152 106 106 106 
122 122 122 108 108 108 115 115 115 140 140 140 190 190 190 192 192 192 164 164 164 148 148 148 
110 110 110 175 175 175 166 166 166 118 118 118 140 140 140 57 57 57 36 36 36 35 35 35 

30 30 30 30 30 30 32 32 32 54 54 54 93 93 93 103 103 103 71 71 71 103 103 103 
144 144 144 169 169 169 202 202 202 214 214 214 218 218 218 156 156 156 172 172 172 116 116 116 
100 100 100 106 106 106 111 111 111 97 97 97 116 116 116 99 99 99 170 170 170 200 200 200 
202 202 202 203 203 203 202 202 202 203 203 203 205 205 205 204 204 204 203 203 203 205 205 205 
202 202 202 167 167 167 86 86 86 44 44 44 35 35 35 38 38 38 52 52 52 64 64 64 
92 92 92 110 110 110 110 110 110 112 112 112 131 131 131 160 160 160 136 136 136 67 67 67 
79 79 79 103 103 103 129 129 129 136 136 136 82 82 82 88 88 88 76 76 76 71 71 71 
67 67 67 79 79 79 150 150 150 114 114 114 133 133 133 55 55 55 39 39 39 37 37 37 

36 36 36 36 36 36 42 42 42 84 84 84 105 105 105 105 105 105 121 121 121 193 193 193 
194 194 194 199 199 199 213 213 213 211 211 211 216 216 216 147 147 147 195 195 195 132 132 132 
101 101 101 106 106 106 110 110 110 96 96 96 116 116 116 101 101 101 170 170 170 202 202 202 
203 203 203 204 204 204 204 204 204 205 205 205 206 206 206 207 207 207 204 204 204 201 201 201 
204 204 204 171 171 171 93 93 93 46 46 46 43 43 43 79 79 79 56 56 56 68 68 68 
90 90 90 103 103 103 112 112 112 121 121 121 131 131 131 146 146 146 127 127 127 55 55 55 
63 63 63 103 103 103 108 108 108 120 120 120 146 146 146 158 158 158 155 155 155 134 134 134 
118 118 118 71 71 71 114 114 114 120 120 120 112 112 112 110 110 110 116 116 116 74 74 74 

73 73 73 74 74 74 57 57 57 109 109 109 127 127 127 70 70 70 149 149 149 204 204 204 
211 211 211 209 209 209 213 213 213 206 206 206 214 214 214 175 175 175 190 190 190 152 152 152 
102 102 102 107 107 107 113 113 113 96 96 96 118 118 118 101 101 101 173 173 173 205 205 205 
204 204 204 207 207 207 206 206 206 208 208 208 207 207 207 205 205 205 206 206 206 206 206 206 
207 207 207 171 171 171 119 119 119 103 103 103 86 86 86 81 81 81 57 57 57 60 60 60 
90 90 90 93 93 93 99 99 99 112 112 112 121 121 121 131 131 131 105 105 105 51 51 51 
51 51 51 103 103 103 67 67 67 150 150 150 152 152 152 133 133 133 119 119 119 136 136 136 
150 150 150 142 142 142 101 101 101 135 135 135 96 96 96 50 50 50 81 81 81 104 104 104 

96 96 96 107 107 107 62 62 62 121 121 121 114 114 114 86 86 86 136 136 136 215 215 215 
211 211 211 207 207 207 213 213 213 209 209 209 212 212 212 168 168 168 168 168 168 130 130 130 
101 101 101 110 110 110 112 112 112 99 99 99 118 118 118 102 102 102 173 173 173 204 204 204 
205 205 205 208 208 208 209 209 209 216 216 216 217 217 217 214 214 214 208 208 208 206 206 206 
204 204 204 172 172 172 112 112 112 89 89 89 64 64 64 54 54 54 58 58 58 57 57 57 
91 91 91 94 94 94 97 97 97 120 120 120 119 119 119 124 124 124 92 92 92 48 48 48 
45 45 45 69 69 69 97 97 97 90 90 90 188 188 188 163 163 163 124 124 124 131 131 131 
153 153 153 115 115 115 134 134 134 109 109 109 86 86 86 70 70 70 48 48 48 78 78 78 

119 119 119 99 99 99 69 69 69 100 100 100 153 153 153 140 140 140 158 158 158 216 216 216 
216 216 216 212 212 212 214 214 214 205 205 205 198 198 198 104 104 104 103 103 103 115 115 115 
100 100 100 111 111 111 113 113 113 98 98 98 121 121 121 103 103 103 171 171 171 207 207 207 
208 208 208 200 200 200 206 206 206 208 208 208 212 212 212 227 227 227 213 213 213 209 209 209 
207 207 207 176 176 176 69 69 69 83 83 83 84 84 84 71 71 71 73 73 73 70 70 70 
94 94 94 115 115 115 117 117 117 144 144 144 145 145 145 140 140 140 90 90 90 47 47 47 
45 45 45 47 47 47 64 64 64 72 72 72 146 146 146 209 209 209 216 216 216 205 205 205 
148 148 148 113 113 113 66 66 66 65 65 65 76 76 76 62 62 62 45 45 45 38 38 38 

149 149 149 146 146 146 90 90 90 79 79 79 111 111 111 119 119 119 193 193 193 221 221 221 
223 223 223 219 219 219 212 212 212 202 202 202 169 169 169 111 111 111 103 103 103 118 118 118 
102 102 102 112 112 112 113 113 113 102 102 102 121 121 121 103 103 103 168 168 168 206 206 206 
195 195 195 198 198 198 215 215 215 205 205 205 200 200 200 194 194 194 219 219 219 209 209 209 
206 206 206 179 179 179 65 65 65 54 54 54 80 80 80 70 70 70 60 60 60 83 83 83 
104 104 104 123 123 123 142 142 142 159 159 159 162 162 162 139 139 139 73 73 73 45 45 45 
45 45 45 47 47 47 51 51 51 62 62 62 57 57 57 84 84 84 126 126 126 105 105 105 
102 102 102 76 76 76 42 42 42 45 45 45 78 78 78 70 70 70 57 57 57 40 40 40 

165 165 165 202 202 202 140 140 140 101 101 101 99 99 99 143 143 143 209 209 209 219 219 219 
220 220 220 217 217 217 207 207 207 207 207 207 133 133 133 109 109 109 106 106 106 117 117 117 
101 101 101 114 114 114 114 114 114 101 101 101 122 122 122 103 103 103 168 168 168 208 208 208 
182 182 182 191 191 191 205 205 205 206 206 206 201 201 201 175 175 175 219 219 219 208 208 208 
210 210 210 184 184 184 71 71 71 51 51 51 59 59 59 74 74 74 85 85 85 93 93 93 
105 105 105 115 115 115 155 155 155 186 186 186 166 166 166 111 111 111 58 58 58 49 49 49 
47 47 47 50 50 50 52 52 52 59 59 59 59 59 59 60 60 60 65 65 65 125 125 125 
127 127 127 79 79 79 54 54 54 40 40 40 51 51 51 58 58 58 45 45 45 38 38 38 

218 218 218 217 217 217 207 207 207 189 189 189 154 154 154 186 186 186 206 206 206 216 216 216 
215 215 215 209 209 209 201 201 201 190 190 190 123 123 123 108 108 108 107 107 107 120 120 120 
101 101 101 118 118 118 115 115 115 102 102 102 125 125 125 105 105 105 167 167 167 210 210 210 
176 176 176 174 174 174 185 185 185 191 191 191 183 183 183 175 175 175 213 213 213 211 211 211 
209 209 209 186 186 186 85 85 85 64 64 64 47 47 47 57 57 57 62 62 62 98 98 98 
108 108 108 101 101 101 140 140 140 162 162 162 147 147 147 82 82 82 48 48 48 126 126 126 
55 55 55 61 61 61 60 60 60 55 55 55 58 58 58 55 55 55 118 118 118 146 146 146 
113 113 113 93 93 93 69 69 69 40 40 40 50 50 50 61 61 61 50 50 50 37 37 37 

221 221 221 228 228 228 215 215 215 221 221 221 200 200 200 200 200 200 203 203 203 206 206 206 
206 206 206 201 201 201 200 200 200 161 161 161 119 119 119 105 105 105 106 106 106 118 118 118 
101 101 101 118 118 118 112 112 112 105 105 105 126 126 126 105 105 105 167 167 167 211 211 211 
166 166 166 148 148 148 161 161 161 165 165 165 132 132 132 174 174 174 210 210 210 209 209 209 
208 208 208 186 186 186 89 89 89 72 72 72 51 51 51 47 47 47 71 71 71 103 103 103 
106 106 106 101 101 101 129 129 129 133 133 133 129 129 129 62 62 62 36 36 36 161 161 161 
128 128 128 77 77 77 108 108 108 85 85 85 73 73 73 69 69 69 126 126 126 157 157 157 
76 76 76 87 87 87 87 87 87 40 40 40 40 40 40 45 45 45 45 45 45 39 39 39 

227 227 227 226 226 226 203 203 203 209 209 209 212 212 212 191 191 191 182 182 182 187 187 187 
186 186 186 202 202 202 194 194 194 135 135 135 121 121 121 106 106 106 110 110 110 120 120 120 
101 101 101 118 118 118 115 115 115 107 107 107 126 126 126 107 107 107 168 168 168 212 212 212 
164 164 164 122 122 122 94 94 94 89 89 89 105 105 105 181 181 181 211 211 211 208 208 208 
209 209 209 185 185 185 87 87 87 74 74 74 60 60 60 48 48 48 74 74 74 101 101 101 
107 107 107 107 107 107 129 129 129 130 130 130 118 118 118 55 55 55 45 45 45 109 109 109 
193 193 193 149 149 149 124 124 124 119 119 119 97 97 97 82 82 82 99 99 99 128 128 128 
67 67 67 56 56 56 110 110 110 45 45 45 40 40 40 41 41 41 39 39 39 37 37 37 

229 229 229 215 215 215 186 186 186 170 170 170 169 169 169 152 152 152 159 159 159 170 170 170 
191 191 191 195 195 195 177 177 177 113 113 113 120 120 120 105 105 105 111 111 111 121 121 121 
103 103 103 123 123 123 115 115 115 108 108 108 129 129 129 107 107 107 167 167 167 211 211 211 
190 190 190 147 147 147 94 94 94 99 99 99 167 167 167 200 200 200 208 208 208 209 209 209 
208 208 208 184 184 184 81 81 81 65 65 65 70 70 70 66 66 66 95 95 95 115 115 115 
115 115 115 124 124 124 134 134 134 139 139 139 105 105 105 52 52 52 45 45 45 56 56 56 
217 217 217 175 175 175 154 154 154 132 132 132 84 84 84 72 72 72 85 85 85 97 97 97 
61 61 61 52 52 52 132 132 132 78 78 78 41 41 41 42 42 42 40 40 40 40 40 40 

184 184 184 203 203 203 180 180 180 129 129 129 114 114 114 130 130 130 137 137 137 168 168 168 
186 186 186 180 180 180 154 154 154 104 104 104 123 123 123 105 105 105 111 111 111 121 121 121 
105 105 105 125 125 125 115 115 115 112 112 112 129 129 129 109 109 109 165 165 165 211 211 211 
211 211 211 200 200 200 184 184 184 189 189 189 199 199 199 208 208 208 209 209 209 210 210 210 
210 210 210 187 187 187 67 67 67 65 65 65 67 67 67 77 77 77 124 124 124 118 118 118 
128 128 128 143 143 143 155 155 155 158 158 158 100 100 100 52 52 52 49 49 49 43 43 43 
169 169 169 184 184 184 159 159 159 135 135 135 148 148 148 136 136 136 106 106 106 91 91 91 
75 75 75 105 105 105 205 205 205 107 107 107 48 48 48 47 47 47 42 42 42 41 41 41 

110 110 110 197 197 197 182 182 182 166 166 166 145 145 145 143 143 143 148 148 148 166 166 166 
178 178 178 169 169 169 134 134 134 106 106 106 124 124 124 107 107 107 113 113 113 123 123 123 
103 103 103 127 127 127 115 115 115 114 114 114 130 130 130 112 112 112 165 165 165 212 212 212 
210 210 210 211 211 211 208 208 208 208 208 208 209 209 209 209 209 209 209 209 209 209 209 209 
208 208 208 190 190 190 91 91 91 64 64 64 64 64 64 94 94 94 126 126 126 130 130 130 
138 138 138 156 156 156 172 172 172 151 151 151 96 96 96 48 48 48 45 45 45 44 44 44 
70 70 70 87 87 87 134 134 134 125 125 125 108 108 108 154 154 154 187 187 187 209 209 209 
211 211 211 193 193 193 162 162 162 113 113 113 58 58 58 42 42 42 41 41 41 39 39 39 

75 75 75 155 155 155 202 202 202 191 191 191 185 185 185 185 185 185 162 162 162 160 160 160 
161 161 161 161 161 161 144 144 144 108 108 108 126 126 126 105 105 105 117 117 117 121 121 121 
105 105 105 129 129 129 114 114 114 115 115 115 129 129 129 111 111 111 164 164 164 212 212 212 
211 211 211 210 210 210 208 208 208 209 209 209 209 209 209 210 210 210 210 210 210 211 211 211 
208 208 208 201 201 201 103 103 103 93 93 93 64 64 64 120 120 120 122 122 122 143 143 143 
154 154 154 165 165 165 160 160 160 148 148 148 89 89 89 49 49 49 49 49 49 43 43 43 
47 47 47 91 91 91 231 231 231 138 138 138 102 102 102 104 104 104 122 122 122 210 210 210 
181 181 181 121 121 121 126 126 126 156 156 156 152 152 152 64 64 64 51 51 51 61 61 61 

100 100 100 102 102 102 188 188 188 195 195 195 198 198 198 182 182 182 134 134 134 125 125 125 
131 131 131 152 152 152 129 129 129 108 108 108 125 125 125 104 104 104 119 119 119 122 122 122 
105 105 105 131 131 131 114 114 114 117 117 117 129 129 129 112 112 112 159 159 159 212 212 212 
209 209 209 210 210 210 209 209 209 210 210 210 209 209 209 210 210 210 209 209 209 206 206 206 
205 205 205 204 204 204 92 92 92 92 92 92 80 80 80 136 136 136 142 142 142 156 156 156 
168 168 168 178 178 178 174 174 174 148 148 148 78 78 78 49 49 49 50 50 50 46 46 46 
43 43 43 90 90 90 172 172 172 143 143 143 150 150 150 154 154 154 130 130 130 121 121 121 
194 194 194 140 140 140 190 190 190 143 143 143 146 146 146 107 107 107 72 72 72 79 79 79 

116 116 116 117 117 117 117 117 117 111 111 111 140 140 140 131 131 131 125 125 125 110 110 110 
93 93 93 117 117 117 111 111 111 109 109 109 126 126 126 105 105 105 120 120 120 122 122 122 
106 106 106 131 131 131 115 115 115 118 118 118 128 128 128 113 113 113 160 160 160 212 212 212 
211 211 211 209 209 209 210 210 210 211 211 211 211 211 211 209 209 209 211 211 211 205 205 205 
204 204 204 193 193 193 98 98 98 87 87 87 88 88 88 138 138 138 152 152 152 170 170 170 
170 170 170 175 175 175 173 173 173 134 134 134 72 72 72 41 41 41 43 43 43 42 42 42 
46 46 46 70 70 70 107 107 107 106 106 106 131 131 131 184 184 184 161 161 161 125 125 125 
180 180 180 135 135 135 168 168 168 128 128 128 105 105 105 124 124 124 73 73 73 73 73 73 

103 103 103 102 102 102 112 112 112 88 88 88 63 63 63 105 105 105 66 66 66 57 57 57 
80 80 80 110 110 110 110 110 110 111 111 111 127 127 127 107 107 107 122 122 122 123 123 123 
108 108 108 131 131 131 113 113 113 120 120 120 127 127 127 115 115 115 161 161 161 214 214 214 
212 212 212 209 209 209 209 209 209 212 212 212 210 210 210 210 210 210 210 210 210 211 211 211 
211 211 211 190 190 190 93 93 93 78 78 78 106 106 106 138 138 138 159 159 159 168 168 168 
170 170 170 172 172 172 168 168 168 124 124 124 66 66 66 43 43 43 49 49 49 44 44 44 
43 43 43 62 62 62 80 80 80 111 111 111 106 106 106 173 173 173 150 150 150 128 128 128 
83 83 83 96 96 96 125 125 125 149 149 149 140 140 140 111 111 111 63 63 63 52 52 52 

95 95 95 108 108 108 111 111 111 74 74 74 40 40 40 98 98 98 90 90 90 61 61 61 
78 78 78 109 109 109 110 110 110 114 114 114 129 129 129 105 105 105 125 125 125 121 121 121 
111 111 111 134 134 134 113 113 113 122 122 122 127 127 127 115 115 115 160 160 160 214 214 214 
211 211 211 211 211 211 211 211 211 210 210 210 211 211 211 210 210 210 212 212 212 211 211 211 
212 212 212 195 195 195 92 92 92 79 79 79 134 134 134 152 152 152 170 170 170 174 174 174 
168 168 168 171 171 171 161 161 161 130 130 130 66 66 66 51 51 51 57 57 57 47 47 47 
53 53 53 79 79 79 81 81 81 92 92 92 93 93 93 101 101 101 103 103 103 97 97 97 
67 67 67 75 75 75 71 71 71 133 133 133 183 183 183 137 137 137 87 87 87 63 63 63 

140 140 140 134 134 134 96 96 96 69 69 69 45 45 45 77 77 77 82 82 82 88 88 88 
73 73 73 108 108 108 110 110 110 113 113 113 127 127 127 105 105 105 124 124 124 121 121 121 
112 112 112 133 133 133 111 111 111 123 123 123 127 127 127 116 116 116 156 156 156 214 214 214 
211 211 211 211 211 211 213 213 213 210 210 210 211 211 211 210 210 210 211 211 211 212 212 212 
211 211 211 201 201 201 85 85 85 106 106 106 153 153 153 161 161 161 168 168 168 175 175 175 
173 173 173 173 173 173 163 163 163 138 138 138 74 74 74 51 51 51 55 55 55 60 60 60 
80 80 80 85 85 85 87 87 87 87 87 87 82 82 82 97 97 97 75 75 75 63 63 63 
77 77 77 75 75 75 80 80 80 85 85 85 147 147 147 148 148 148 106 106 106 58 58 58 

112 112 112 146 146 146 142 142 142 90 90 90 41 41 41 75 75 75 85 85 85 56 56 56 
53 53 53 102 102 102 109 109 109 119 119 119 127 127 127 105 105 105 127 127 127 116 116 116 
111 111 111 133 133 133 112 112 112 125 125 125 125 125 125 118 118 118 155 155 155 217 217 217 
213 213 213 214 214 214 213 213 213 212 212 212 212 212 212 211 211 211 214 214 214 214 214 214 
213 213 213 218 218 218 96 96 96 112 112 112 157 157 157 162 162 162 167 167 167 170 170 170 
167 167 167 174 174 174 164 164 164 142 142 142 84 84 84 53 53 53 60 60 60 54 54 54 
130 130 130 64 64 64 119 119 119 102 102 102 93 93 93 77 77 77 54 54 54 54 54 54 
90 90 90 87 87 87 102 102 102 98 98 98 110 110 110 116 116 116 116 116 116 59 59 59 

94 94 94 144 144 144 136 136 136 104 104 104 63 63 63 78 78 78 81 81 81 73 73 73 
51 51 51 87 87 87 106 106 106 119 119 119 126 126 126 106 106 106 132 132 132 117 117 117 
114 114 114 137 137 137 112 112 112 129 129 129 126 126 126 120 120 120 152 152 152 213 213 213 
212 212 212 214 214 214 213 213 213 213 213 213 213 213 213 214 214 214 214 214 214 217 217 217 
214 214 214 225 225 225 105 105 105 83 83 83 148 148 148 160 160 160 161 161 161 162 162 162 
164 164 164 170 170 170 165 165 165 147 147 147 104 104 104 61 61 61 77 77 77 74 74 74 
138 138 138 60 60 60 104 104 104 107 107 107 80 80 80 84 84 84 66 66 66 67 67 67 
120 120 120 125 125 125 95 95 95 119 119 119 109 109 109 78 78 78 92 92 92 56 56 56 

64 64 64 120 120 120 131 131 131 93 93 93 69 69 69 127 127 127 102 102 102 73 73 73 
55 55 55 51 51 51 81 81 81 118 118 118 126 126 126 108 108 108 132 132 132 118 118 118 
116 116 116 135 135 135 114 114 114 128 128 128 125 125 125 120 120 120 152 152 152 217 217 217 
213 213 213 216 216 216 214 214 214 215 215 215 215 215 215 214 214 214 218 218 218 178 178 178 
113 113 113 142 142 142 180 180 180 187 187 187 188 188 188 191 191 191 187 187 187 183 183 183 
183 183 183 182 182 182 184 184 184 185 185 185 179 179 179 175 175 175 174 174 174 175 175 175 
186 186 186 170 170 170 170 170 170 167 167 167 167 167 167 169 169 169 163 163 163 164 164 164 
167 167 167 173 173 173 169 169 169 167 167 167 168 168 168 161 161 161 160 160 160 154 154 154 

61 61 61 57 57 57 66 66 66 68 68 68 58 58 58 109 109 109 144 144 144 115 115 115 
69 69 69 62 62 62 67 67 67 113 113 113 125 125 125 107 107 107 133 133 133 116 116 116 
119 119 119 134 134 134 112 112 112 131 131 131 125 125 125 121 121 121 152 152 152 217 217 217 
216 216 216 216 216 216 216 216 216 215 215 215 216 216 216 216 216 216 204 204 204 81 81 81 
58 58 58 55 55 55 107 107 107 226 226 226 220 220 220 220 220 220 220 220 220 217 217 217 
217 217 217 217 217 217 220 220 220 217 217 217 218 218 218 216 216 216 217 217 217 219 219 219 
217 217 217 217 217 217 218 218 218 219 219 219 218 218 218 218 218 218 217 217 217 219 219 219 
219 219 219 218 218 218 219 219 219 222 222 222 219 219 219 220 220 220 221 221 221 221 221 221 

61 61 61 109 109 109 87 87 87 58 58 58 46 46 46 106 106 106 146 146 146 158 158 158 
96 96 96 70 70 70 62 62 62 77 77 77 127 127 127 108 108 108 135 135 135 119 119 119 
121 121 121 134 134 134 113 113 113 133 133 133 124 124 124 121 121 121 149 149 149 217 217 217 
215 215 215 219 219 219 218 218 218 217 217 217 219 219 219 220 220 220 169 169 169 67 67 67 
54 54 54 53 53 53 76 76 76 216 216 216 219 219 219 218 218 218 217 217 217 216 216 216 
214 214 214 216 216 216 218 218 218 215 215 215 215 215 215 213 213 213 213 213 213 216 216 216 
213 213 213 214 214 214 213 213 213 211 211 211 213 213 213 213 213 213 210 210 210 213 213 213 
213 213 213 213 213 213 213 213 213 213 213 213 213 213 213 211 211 211 212 212 212 212 212 212 

56 56 56 117 117 117 117 117 117 73 73 73 62 62 62 67 67 67 81 81 81 133 133 133 
102 102 102 95 95 95 72 72 72 68 68 68 125 125 125 110 110 110 135 135 135 118 118 118 
122 122 122 134 134 134 113 113 113 133 133 133 124 124 124 124 124 124 149 149 149 219 219 219 
218 218 218 220 220 220 218 218 218 224 224 224 230 230 230 229 229 229 219 219 219 125 125 125 
61 61 61 61 61 61 95 95 95 170 170 170 223 223 223 220 220 220 220 220 220 216 216 216 
217 217 217 217 217 217 217 217 217 217 217 217 214 214 214 214 214 214 214 214 214 220 220 220 
215 215 215 214 214 214 213 213 213 214 214 214 212 212 212 215 215 215 212 212 212 215 215 215 
213 213 213 214 214 214 215 215 215 213 213 213 215 215 215 213 213 213 213 213 213 214 214 214 

93 93 93 116 116 116 119 119 119 61 61 61 66 66 66 144 144 144 82 82 82 74 74 74 
86 86 86 100 100 100 84 84 84 63 63 63 113 113 113 111 111 111 135 135 135 118 118 118 
125 125 125 132 132 132 115 115 115 137 137 137 125 125 125 125 125 125 148 148 148 221 221 221 
216 216 216 217 217 217 216 216 216 224 224 224 230 230 230 238 238 238 235 235 235 199 199 199 
85 85 85 86 86 86 139 139 139 131 131 131 224 224 224 218 218 218 219 219 219 217 217 217 
215 215 215 218 218 218 215 215 215 218 218 218 217 217 217 217 217 217 215 215 215 223 223 223 
212 212 212 213 213 213 212 212 212 215 215 215 215 215 215 215 215 215 213 213 213 216 216 216 
215 215 215 215 215 215 215 215 215 215 215 215 213 213 213 214 214 214 215 215 215 215 215 215 

96 96 96 128 128 128 144 144 144 63 63 63 65 65 65 134 134 134 149 149 149 84 84 84 
44 44 44 84 84 84 105 105 105 73 73 73 95 95 95 110 110 110 138 138 138 118 118 118 
126 126 126 133 133 133 117 117 117 136 136 136 123 123 123 125 125 125 146 146 146 219 219 219 
218 218 218 209 209 209 213 213 213 224 224 224 227 227 227 230 230 230 239 239 239 226 226 226 
104 104 104 109 109 109 198 198 198 125 125 125 195 195 195 217 217 217 218 218 218 218 218 218 
216 216 216 216 216 216 218 218 218 220 220 220 217 217 217 218 218 218 215 215 215 218 218 218 
215 215 215 215 215 215 214 214 214 214 214 214 214 214 214 216 216 216 182 182 182 202 202 202 
215 215 215 215 215 215 215 215 215 214 214 214 214 214 214 215 215 215 215 215 215 216 216 216 

73 73 73 60 60 60 67 67 67 40 40 40 90 90 90 138 138 138 140 140 140 133 133 133 
68 68 68 58 58 58 83 83 83 103 103 103 76 76 76 107 107 107 135 135 135 117 117 117 
128 128 128 134 134 134 115 115 115 136 136 136 126 126 126 127 127 127 143 143 143 218 218 218 
220 220 220 198 198 198 200 200 200 222 222 222 224 224 224 229 229 229 227 227 227 232 232 232 
135 135 135 126 126 126 118 118 118 151 151 151 198 198 198 193 193 193 216 216 216 215 215 215 
215 215 215 215 215 215 215 215 215 219 219 219 174 174 174 215 215 215 215 215 215 218 218 218 
216 216 216 214 214 214 214 214 214 214 214 214 214 214 214 215 215 215 184 184 184 193 193 193 
217 217 217 216 216 216 215 215 215 216 216 216 215 215 215 216 216 216 216 216 216 215 215 215 

80 80 80 78 78 78 67 67 67 32 32 32 49 49 49 102 102 102 110 110 110 114 114 114 
83 83 83 82 82 82 54 54 54 102 102 102 92 92 92 100 100 100 135 135 135 117 117 117 
129 129 129 133 133 133 118 118 118 138 138 138 122 122 122 128 128 128 141 141 141 220 220 220 
220 220 220 180 180 180 182 182 182 197 197 197 207 207 207 209 209 209 216 216 216 222 222 222 
167 167 167 165 165 165 135 135 135 133 133 133 216 216 216 178 178 178 213 213 213 212 212 212 
214 214 214 218 218 218 216 216 216 187 187 187 103 103 103 221 221 221 213 213 213 216 216 216 
215 215 215 215 215 215 215 215 215 212 212 212 216 216 216 217 217 217 159 159 159 177 177 177 
218 218 218 215 215 215 216 216 216 206 206 206 181 181 181 219 219 219 215 215 215 219 219 219 

64 64 64 66 66 66 64 64 64 61 61 61 79 79 79 91 91 91 102 102 102 99 99 99 
98 98 98 90 90 90 64 64 64 75 75 75 91 91 91 91 91 91 127 127 127 113 113 113 
131 131 131 132 132 132 118 118 118 141 141 141 121 121 121 129 129 129 139 139 139 218 218 218 
219 219 219 167 167 167 154 154 154 162 162 162 177 177 177 146 146 146 199 199 199 215 215 215 
206 206 206 156 156 156 179 179 179 72 72 72 175 175 175 183 183 183 180 180 180 210 210 210 
213 213 213 218 218 218 221 221 221 119 119 119 132 132 132 220 220 220 215 215 215 216 216 216 
215 215 215 215 215 215 219 219 219 153 153 153 220 220 220 172 172 172 114 114 114 152 152 152 
218 218 218 216 216 216 217 217 217 186 186 186 198 198 198 216 216 216 217 217 217 136 136 136 

54 54 54 43 43 43 56 56 56 51 51 51 54 54 54 57 57 57 58 58 58 52 52 52 
54 54 54 71 71 71 109 109 109 92 92 92 66 66 66 85 85 85 109 109 109 106 106 106 
129 129 129 132 132 132 120 120 120 143 143 143 122 122 122 132 132 132 137 137 137 218 218 218 
218 218 218 171 171 171 116 116 116 89 89 89 82 82 82 119 119 119 200 200 200 207 207 207 
211 211 211 128 128 128 187 187 187 89 89 89 122 122 122 198 198 198 167 167 167 210 210 210 
211 211 211 215 215 215 185 185 185 104 104 104 184 184 184 217 217 217 217 217 217 217 217 217 
215 215 215 214 214 214 217 217 217 152 152 152 173 173 173 161 161 161 93 93 93 108 108 108 
185 185 185 217 217 217 211 211 211 170 170 170 217 217 217 214 214 214 218 218 218 148 148 148 

43 43 43 36 36 36 46 46 46 44 44 44 52 52 52 54 54 54 57 57 57 56 56 56 
44 44 44 56 56 56 63 63 63 114 114 114 93 93 93 82 82 82 97 97 97 92 92 92 
124 124 124 128 128 128 118 118 118 145 145 145 124 124 124 132 132 132 134 134 134 219 219 219 
217 217 217 195 195 195 139 139 139 86 86 86 106 106 106 189 189 189 198 198 198 202 202 202 
202 202 202 166 166 166 149 149 149 122 122 122 105 105 105 196 196 196 178 178 178 150 150 150 
119 119 119 162 162 162 124 124 124 107 107 107 198 198 198 217 217 217 217 217 217 218 218 218 
217 217 217 217 217 217 215 215 215 201 201 201 100 100 100 178 178 178 129 129 129 69 69 69 
124 124 124 220 220 220 193 193 193 187 187 187 217 217 217 215 215 215 217 217 217 173 173 173 

40 40 40 36 36 36 53 53 53 41 41 41 44 44 44 46 46 46 48 48 48 51 51 51 
46 46 46 56 56 56 48 48 48 67 67 67 92 92 92 95 95 95 100 100 100 84 84 84 
116 116 116 128 128 128 122 122 122 145 145 145 123 123 123 133 133 133 124 124 124 206 206 206 
215 215 215 213 213 213 196 196 196 177 177 177 196 196 196 197 197 197 196 196 196 195 195 195 
178 178 178 117 117 117 92 92 92 93 93 93 117 117 117 148 148 148 148 148 148 148 148 148 
138 138 138 138 138 138 119 119 119 115 115 115 155 155 155 222 222 222 220 220 220 220 220 220 
220 220 220 218 218 218 220 220 220 225 225 225 97 97 97 125 125 125 149 149 149 65 65 65 
83 83 83 138 138 138 164 164 164 174 174 174 219 219 219 219 219 219 218 218 218 196 196 196 

36 36 36 32 32 32 41 41 41 32 32 32 31 31 31 37 37 37 38 38 38 42 42 42 
44 44 44 44 44 44 50 50 50 51 51 51 61 61 61 58 58 58 72 72 72 77 77 77 
111 111 111 124 124 124 122 122 122 143 143 143 121 121 121 134 134 134 122 122 122 97 97 97 
110 110 110 100 100 100 99 99 99 99 99 99 99 99 99 100 100 100 109 109 109 116 116 116 
95 95 95 72 72 72 67 67 67 75 75 75 88 88 88 105 105 105 112 112 112 118 118 118 
131 131 131 125 125 125 98 98 98 88 88 88 112 112 112 166 166 166 167 167 167 171 171 171 
175 175 175 176 176 176 178 178 178 186 186 186 89 89 89 64 64 64 82 82 82 66 66 66 
73 73 73 77 77 77 84 84 84 96 96 96 206 206 206 204 204 204 207 207 207 171 171 171 

34 34 34 28 28 28 37 37 37 50 50 50 38 38 38 30 30 30 29 29 29 30 30 30 
31 31 31 32 32 32 43 43 43 41 41 41 61 61 61 48 48 48 43 43 43 81 81 81 
108 108 108 121 121 121 121 121 121 144 144 144 120 120 120 135 135 135 123 123 123 77 77 77 
77 77 77 43 43 43 41 41 41 40 40 40 41 41 41 73 73 73 95 95 95 92 92 92 
97 97 97 79 79 79 63 63 63 74 74 74 86 86 86 107 107 107 111 111 111 115 115 115 
128 128 128 125 125 125 95 95 95 86 86 86 86 86 86 49 49 49 47 47 47 47 47 47 
48 48 48 49 49 49 48 48 48 48 48 48 50 50 50 56 56 56 61 61 61 60 60 60 
67 67 67 71 71 71 73 73 73 67 67 67 60 60 60 64 64 64 65 65 65 65 65 65 

36 36 36 31 31 31 27 27 27 49 49 49 39 39 39 33 33 33 29 29 29 25 25 25 
24 24 24 23 23 23 28 28 28 28 28 28 55 55 55 86 86 86 50 50 50 73 73 73 
111 111 111 123 123 123 124 124 124 146 146 146 123 123 123 136 136 136 126 126 126 77 77 77 
77 77 77 42 42 42 37 37 37 36 36 36 69 69 69 87 87 87 65 65 65 49 49 49 
45 45 45 43 43 43 56 56 56 71 71 71 84 84 84 105 105 105 110 110 110 113 113 113 
128 128 128 119 119 119 93 93 93 86 86 86 80 80 80 44 44 44 40 40 40 40 40 40 
39 39 39 40 40 40 40 40 40 38 38 38 43 43 43 52 52 52 57 57 57 59 59 59 
65 65 65 71 71 71 71 71 71 60 60 60 42 42 42 42 42 42 42 42 42 50 50 50 

30 30 30 28 28 28 22 22 22 26 26 26 48 48 48 49 49 49 44 44 44 33 33 33 
27 27 27 22 22 22 24 24 24 23 23 23 24 24 24 34 34 34 80 80 80 101 101 101 
102 102 102 125 125 125 124 124 124 145 145 145 119 119 119 138 138 138 133 133 133 90 90 90 
83 83 83 47 47 47 37 37 37 40 40 40 84 84 84 63 63 63 37 37 37 36 36 36 
34 34 34 39 39 39 56 56 56 70 70 70 84 84 84 106 106 106 110 110 110 110 110 110 
113 113 113 105 105 105 94 94 94 86 86 86 73 73 73 42 42 42 38 38 38 38 38 38 
38 38 38 38 38 38 37 37 37 37 37 37 40 40 40 49 49 49 54 54 54 58 58 58 
64 64 64 70 70 70 70 70 70 61 61 61 39 39 39 41 41 41 41 41 41 48 48 48 

29 29 29 47 47 47 29 29 29 20 20 20 23 23 23 25 25 25 27 27 27 64 64 64 
76 76 76 61 61 61 51 51 51 37 37 37 26 26 26 32 32 32 52 52 52 84 84 84 
81 81 81 126 126 126 128 128 128 145 145 145 117 117 117 132 132 132 131 131 131 118 118 118 
139 139 139 104 104 104 105 105 105 76 76 76 81 81 81 78 78 78 72 72 72 50 50 50 
33 33 33 38 38 38 53 53 53 70 70 70 83 83 83 104 104 104 111 111 111 111 111 111 
113 113 113 103 103 103 95 95 95 85 85 85 79 79 79 66 66 66 62 62 62 66 66 66 
58 58 58 62 62 62 58 58 58 55 55 55 46 46 46 45 45 45 53 53 53 56 56 56 
63 63 63 69 69 69 72 72 72 64 64 64 48 48 48 48 48 48 47 47 47 52 52 52 

